<?xml version="1.0" encoding="utf-8"?>
<!-- Generator: Adobe Illustrator 22.1.0, SVG Export Plug-In . SVG Version: 6.00 Build 0)  -->
<svg version="1.1" id="Layer_1" xmlns="http://www.w3.org/2000/svg" xmlns:xlink="http://www.w3.org/1999/xlink" x="0px" y="0px"
	 viewBox="0 0 399.9712 278.148" style="enable-background:new 0 0 399.9712 278.148;" xml:space="preserve">
<style type="text/css">
	.st0{fill:#636466;}
	.st1{fill:#034EA2;}
	.st2{fill:#BCBEC0;}
	.st3{fill:#FFF200;}
</style>
<path id="XMLID_75_" class="st0" d="M91.8403,208.7803c0-0.351,0.1639-0.5429,0.5443-0.5429h10.0027
	c0.3262,0,0.5156,0.1919,0.5156,0.5163v1.6843c0,0.3232-0.1349,0.4886-0.5447,0.4886h-7.4176v4.6776h6.5763
	c0.3542,0,0.545,0.1632,0.545,0.4885v1.6844c0,0.3286-0.136,0.4886-0.545,0.4886h-6.5763v5.3539h7.6088
	c0.328,0,0.4895,0.1654,0.4895,0.5196v1.6587c0,0.3542-0.136,0.4885-0.5166,0.4885H92.3846c-0.3804,0-0.5443-0.1621-0.5443-0.4885
	V208.7803L91.8403,208.7803z"/>
<path id="XMLID_74_" class="st0" d="M115.6501,226.2864h-1.9318c-0.4096,0-0.5164-0.1909-0.5164-0.5162v-0.8427l-0.0543-0.0278
	c-1.0605,0.736-2.9079,1.6311-4.5677,1.6311c-3.6679,0-4.0206-2.173-4.0206-5.0276v-7.9962c0-0.3253,0.136-0.5409,0.5167-0.5409
	h1.9815c0.3552,0,0.4907,0.1899,0.4907,0.5409v7.6399c0,1.6332,0.3254,2.6637,1.9862,2.6637c1.166,0,2.9614-0.8683,3.6675-1.2214
	v-9.0822c0-0.3253,0.1068-0.5409,0.5164-0.5409h1.9318c0.3796,0,0.5152,0.1899,0.5152,0.5409v12.2632
	C116.1653,226.1243,116.0297,226.2864,115.6501,226.2864"/>
<path id="XMLID_73_" class="st0" d="M121.4618,225.7702c0,0.3253-0.1345,0.5162-0.5153,0.5162h-1.9564
	c-0.3831,0-0.5164-0.1621-0.5164-0.5162V213.507c0-0.351,0.1333-0.5387,0.5164-0.5387h1.9275c0.4097,0,0.5442,0.2134,0.5442,0.5387
	v1.2012l0.0553,0.0511c0.815-0.7637,2.7437-1.6843,4.0227-1.9286c0.3553-0.0832,0.5963,0,0.6507,0.4629l0.1921,1.8189
	c0.0287,0.3797,0.0533,0.5451-0.5175,0.6549c-1.5222,0.2945-3.4519,0.8396-4.4033,1.2513V225.7702L121.4618,225.7702z"/>
<path id="XMLID_70_" class="st0" d="M132.9046,215.3044c-2.3117,0-2.8268,1.47-2.8268,4.2948c0,2.8822,0.5151,4.2957,2.8001,4.2957
	c2.4738,0,2.9613-1.39,2.9613-4.2957C135.8392,216.7189,135.3772,215.3044,132.9046,215.3044 M132.8779,226.5052
	c-5.4628,0-5.8212-4.0003-5.8212-7.0992c0-2.5548,0.574-6.7129,5.8212-6.7129c5.2739,0,6.0068,3.5095,6.0068,6.7129
	C138.8847,222.5049,138.5039,226.5052,132.8779,226.5052"/>
<path id="XMLID_67_" class="st0" d="M147.0089,215.4666c-1.1148,0-2.8279,0.7894-3.6429,1.2267v6.7941
	c1.2225,0.3563,2.2017,0.4608,3.1277,0.4608c1.9563,0,2.6359-1.0059,2.6359-4.4301
	C149.1296,216.0619,148.45,215.4666,147.0089,215.4666 M146.7923,226.5308c-0.8982,0-2.1462-0.1633-3.3997-0.5953l-0.0266,0.0246
	v4.7853c0,0.2998-0.08,0.5431-0.5153,0.5431h-1.9318c-0.4351,0-0.5153-0.19-0.5153-0.5431V213.507
	c0-0.351,0.1355-0.5409,0.5153-0.5409h1.9318c0.3809,0,0.4875,0.2156,0.4875,0.5409v0.8203l0.0822,0.0502
	c0.9771-0.6796,2.7181-1.63,4.2948-1.63c3.5616,0,4.4865,2.6913,4.4865,6.7962
	C152.2017,223.9759,151.086,226.5308,146.7923,226.5308"/>
<path id="XMLID_64_" class="st0" d="M156.8986,218.4033h5.3839c0-1.6587-0.4353-3.2621-2.6914-3.2621
	C157.5802,215.1412,157.0352,216.3626,156.8986,218.4033 M156.874,220.444c0.0801,2.7437,1.0594,3.5042,3.2877,3.5042
	c0.9815,0,2.5026-0.1909,3.5331-0.2976c0.4907-0.0566,0.6549-0.0566,0.735,0.463l0.1643,0.896
	c0.0778,0.4065,0.0266,0.6261-0.463,0.8449c-1.0615,0.4043-3.0445,0.6763-4.3758,0.6763c-5.1929,0-5.9565-3.3155-5.9565-6.8495
	c0-2.637,0.4895-6.9882,5.7923-6.9882c4.8685,0,5.7358,3.1554,5.819,6.0921c0.0266,0.9771-0.2443,1.6588-1.3334,1.6588H156.874
	L156.874,220.444z"/>
<path id="XMLID_61_" class="st0" d="M175.0288,220.2253h-3.3164c-1.3591,0-2.2285,0.4886-2.2285,2.2849
	c0,1.1958,0.4065,1.5745,1.6823,1.5745c1.1702,0,2.829-0.6784,3.8626-1.279V220.2253L175.0288,220.2253z M175.191,224.7376
	c-1.358,1.0347-3.18,1.7676-5.0019,1.7676c-2.8823,0-3.723-1.5777-3.723-3.8626c-0.0276-3.1811,1.6855-4.5391,5.1087-4.5391h3.4796
	v-0.7083c0-1.6278-0.5962-2.2006-2.8247-2.2006c-0.8992,0-2.6113,0.1397-3.6983,0.2464c-0.5441,0.0821-0.6796,0.0544-0.7606-0.3254
	l-0.2453-1.007c-0.0544-0.3541,0.0266-0.5707,0.6261-0.815c1.167-0.4096,3.3165-0.6005,4.5933-0.6005
	c4.7033,0,5.273,1.9308,5.273,4.9774v5.2451c0,1.1169,0.1376,1.1414,0.977,1.2492c0.4107,0.0277,0.5174,0.1109,0.5174,0.4064v1.1456
	c0,0.2998-0.1909,0.4886-0.6518,0.5696c-0.4351,0.0811-0.8704,0.1377-1.2768,0.1377c-1.2759,0-2.0663-0.3819-2.3394-1.6598
	L175.191,224.7376L175.191,224.7376z"/>
<path id="XMLID_60_" class="st0" d="M191.3627,226.2864h-1.9575c-0.3562,0-0.5163-0.1621-0.5163-0.5162l0.0256-7.6368
	c0-1.6065-0.3797-2.6668-1.9574-2.6668c-1.086,0-2.9869,0.8704-3.723,1.2267v9.0769c0,0.3253-0.1344,0.5162-0.5183,0.5162h-1.9286
	c-0.3799,0-0.5143-0.1621-0.5143-0.5162V213.507c0-0.351,0.1344-0.5409,0.5143-0.5409h1.9286c0.3839,0,0.5183,0.1899,0.5183,0.5409
	v0.8203c0.0256,0,0.0534,0.0245,0.0822,0.0245c1.0048-0.7072,2.9059-1.631,4.5667-1.631c3.6675,0,3.996,2.4204,3.996,5.1683v7.8811
	C191.879,226.0955,191.7692,226.2864,191.3627,226.2864"/>
<path id="XMLID_59_" class="st0" d="M99.1533,236.7298c1.3308,0,3.5329,0.1931,4.9732,0.7883
	c0.4355,0.1889,0.5994,0.4075,0.5168,0.8449l-0.2455,1.1147c-0.0802,0.3265-0.216,0.4608-0.7062,0.4076
	c-1.3308-0.1633-2.9623-0.3511-4.3742-0.3511c-3.6971,0-4.242,2.9901-4.242,6.5242c0,3.5565,0.6797,6.3589,4.242,6.3589
	c1.574,0,2.9074-0.1654,4.3742-0.3542c0.5166-0.0555,0.626,0.0811,0.7354,0.4352l0.2163,1.0358
	c0.1093,0.4321-0.0267,0.6774-0.4615,0.8704c-1.3314,0.5697-3.6977,0.814-5.0285,0.814c-6.0613,0-7.3402-4.4888-7.3402-9.11
	C91.8131,241.4619,92.9545,236.7298,99.1533,236.7298"/>
<path id="XMLID_56_" class="st0" d="M110.8115,243.99c-2.3117,0-2.8269,1.4678-2.8269,4.2915c0,2.8854,0.5152,4.3011,2.8002,4.3011
	c2.4726,0,2.9601-1.3889,2.9601-4.3011C113.7449,245.4045,113.2829,243.99,110.8115,243.99 M110.7848,255.194
	c-5.4635,0-5.8182-4.0003-5.8182-7.0981c0-2.557,0.571-6.7172,5.8182-6.7172c5.2739,0,6.0067,3.5085,6.0067,6.7172
	C116.7915,251.1937,116.4108,255.194,110.7848,255.194"/>
<path id="XMLID_55_" class="st0" d="M137.34,254.9742h-1.9563c-0.3809,0-0.5196-0.1654-0.5196-0.5195v-7.72
	c0-2.0097-0.4875-2.5804-1.8476-2.5804c-1.006,0-2.6369,0.7862-3.4775,1.2236c0,0.2677,0.0277,0.7584,0.0277,1.3824v7.6944
	c0,0.3264-0.113,0.5195-0.5184,0.5195h-1.9863c-0.3509,0-0.4598-0.1654-0.4598-0.5195v-7.8576c0-1.6566-0.4351-2.4428-1.7932-2.4428
	c-0.9547,0-2.4757,0.6806-3.5072,1.2236v9.0768c0,0.3264-0.1356,0.5195-0.5153,0.5195h-1.9596
	c-0.3542,0-0.4898-0.1654-0.4898-0.5195v-12.2589c0-0.351,0.1356-0.5452,0.4898-0.5452h1.9297c0.4096,0,0.5452,0.2187,0.5452,0.5452
	v0.7883l0.0265,0.0288c1.0594-0.736,2.556-1.551,4.0515-1.6065c1.5756,0,2.8781,0.3253,3.723,1.9041
	c1.361-1.008,3.0434-1.9041,4.7842-1.9041c3.5885,0,3.9427,2.3383,3.9427,5.0563v7.992
	C137.8297,254.7811,137.7199,254.9742,137.34,254.9742"/>
<path id="XMLID_54_" class="st0" d="M158.646,254.9742h-1.9575c-0.3808,0-0.5184-0.1654-0.5184-0.5195v-7.72
	c0-2.0097-0.4876-2.5804-1.8476-2.5804c-1.006,0-2.637,0.7862-3.4787,1.2236c0,0.2677,0.0289,0.7584,0.0289,1.3824v7.6944
	c0,0.3264-0.1121,0.5195-0.5185,0.5195h-1.9862c-0.351,0-0.4599-0.1654-0.4599-0.5195v-7.8576c0-1.6566-0.4351-2.4428-1.7931-2.4428
	c-0.9537,0-2.4759,0.6806-3.5074,1.2236v9.0768c0,0.3264-0.1345,0.5195-0.5164,0.5195h-1.9595
	c-0.3542,0-0.4896-0.1654-0.4896-0.5195v-12.2589c0-0.351,0.1354-0.5452,0.4896-0.5452h1.9307c0.4107,0,0.5452,0.2187,0.5452,0.5452
	v0.7883l0.0255,0.0288c1.0614-0.736,2.557-1.551,4.0527-1.6065c1.5755,0,2.879,0.3253,3.7238,1.9041
	c1.3591-1.008,3.0434-1.9041,4.7833-1.9041c3.5885,0,3.9416,2.3383,3.9416,5.0563v7.992
	C159.1345,254.7811,159.0257,254.9742,158.646,254.9742"/>
<path id="XMLID_51_" class="st0" d="M164.3209,254.4547c0,0.2976-0.1098,0.5195-0.4895,0.5195h-1.932
	c-0.3775,0-0.5419-0.1685-0.5419-0.5195v-12.2845c0-0.3819,0.1644-0.5196,0.5419-0.5196h1.932c0.3797,0,0.4895,0.2187,0.4895,0.5196
	V254.4547L164.3209,254.4547z M162.8798,239.6964c-1.4155,0-1.6043-0.7883-1.6043-1.5777c0-0.8704,0.3017-1.5521,1.6043-1.5521
	c1.3313,0,1.6044,0.6262,1.6044,1.5521C164.4842,238.9593,164.2399,239.6964,162.8798,239.6964"/>
<path id="XMLID_50_" class="st0" d="M171.0606,255.1907c-1.3579,0-3.1821-0.1909-4.2136-0.5984
	c-0.544-0.2187-0.6507-0.4629-0.5708-0.8961l0.191-0.8982c0.0801-0.4341,0.271-0.465,0.7062-0.4085
	c1.1958,0.1899,2.9357,0.3253,3.8626,0.3253c1.7377,0,2.445-0.4608,2.445-1.5479c0-1.2511-0.463-1.5242-2.1751-1.7706
	c-2.6658-0.3798-5.0029-0.9494-5.0029-3.9129c0-2.6902,2.0662-4.1026,5.1118-4.1026c1.1115,0,2.99,0.1632,4.1303,0.5963
	c0.463,0.191,0.6539,0.4096,0.5729,0.8161l-0.2187,0.9792c-0.08,0.3819-0.2453,0.4363-0.7339,0.3819
	c-1.1702-0.1365-2.6914-0.2997-3.6973-0.2997c-1.7377,0-2.1473,0.4885-2.1473,1.5211c0,1.0593,0.6538,1.1958,2.3105,1.4679
	c2.5825,0.3797,4.9187,0.8992,4.9187,4.1357C176.55,254.155,173.8597,255.1907,171.0606,255.1907"/>
<path id="XMLID_49_" class="st0" d="M182.448,255.1907c-1.3611,0-3.1831-0.1909-4.2136-0.5984
	c-0.5441-0.2187-0.654-0.4629-0.5697-0.8961l0.191-0.8982c0.079-0.4341,0.2688-0.465,0.7051-0.4085
	c1.1958,0.1899,2.9356,0.3253,3.8627,0.3253c1.7377,0,2.4449-0.4608,2.4449-1.5479c0-1.2511-0.463-1.5242-2.1762-1.7706
	c-2.6635-0.3798-5.0019-0.9494-5.0019-3.9129c0-2.6902,2.0663-4.1026,5.1118-4.1026c1.1116,0,2.9901,0.1632,4.1294,0.5963
	c0.463,0.191,0.655,0.4096,0.5696,0.8161l-0.2154,0.9792c-0.079,0.3819-0.2444,0.4363-0.7329,0.3819
	c-1.1701-0.1365-2.6924-0.2997-3.6973-0.2997c-1.7377,0-2.1474,0.4885-2.1474,1.5211c0,1.0593,0.6539,1.1958,2.3106,1.4679
	c2.5825,0.3797,4.9187,0.8992,4.9187,4.1357C187.9374,254.155,185.2471,255.1907,182.448,255.1907"/>
<path id="XMLID_46_" class="st0" d="M192.7206,254.4547c0,0.2976-0.1088,0.5195-0.4907,0.5195h-1.9286
	c-0.3797,0-0.5419-0.1685-0.5419-0.5195v-12.2845c0-0.3819,0.1622-0.5196,0.5419-0.5196h1.9286
	c0.3819,0,0.4907,0.2187,0.4907,0.5196V254.4547L192.7206,254.4547z M191.2805,239.6964c-1.4145,0-1.6054-0.7883-1.6054-1.5777
	c0-0.8704,0.3031-1.5521,1.6054-1.5521c1.3313,0,1.6033,0.6262,1.6033,1.5521
	C192.8838,238.9593,192.6395,239.6964,191.2805,239.6964"/>
<path id="XMLID_43_" class="st0" d="M200.5761,243.99c-2.3127,0-2.8269,1.4678-2.8269,4.2915c0,2.8854,0.5142,4.3011,2.7991,4.3011
	c2.4727,0,2.9635-1.3889,2.9635-4.3011C203.5118,245.4045,203.0499,243.99,200.5761,243.99 M200.5483,255.194
	c-5.4637,0-5.8169-4.0003-5.8169-7.0981c0-2.557,0.5697-6.7172,5.8169-6.7172c5.274,0,6.01,3.5085,6.01,6.7172
	C206.5583,251.1937,206.1743,255.194,200.5483,255.194"/>
<path id="XMLID_42_" class="st0" d="M219.1107,254.9742h-1.9565c-0.3541,0-0.5163-0.1654-0.5163-0.5195l0.0277-7.6378
	c0-1.6033-0.3819-2.6626-1.9575-2.6626c-1.086,0-2.9889,0.8704-3.725,1.2236v9.0768c0,0.3264-0.1375,0.5195-0.5184,0.5195h-1.9265
	c-0.3819,0-0.5163-0.1654-0.5163-0.5195v-12.2589c0-0.351,0.1344-0.5452,0.5163-0.5452h1.9265c0.3809,0,0.5184,0.1942,0.5184,0.5452
	v0.8171c0.0268,0,0.0533,0.0277,0.0811,0.0277c1.0059-0.7072,2.9121-1.6342,4.5656-1.6342c3.6718,0,4.0002,2.4226,4.0002,5.1673
	v7.881C219.63,254.7811,219.5202,254.9742,219.1107,254.9742"/>
<polygon id="XMLID_41_" class="st1" points="81.7673,278.148 254.1124,278.148 254.1124,268.3073 81.7673,268.3073 81.7673,278.148 
	"/>
<path id="XMLID_40_" class="st2" d="M0.0027,72.9677c0,0,118.532-15.4547,121.8804-16.0067
	c5.1299-0.8423,9.6869-1.8294,13.9369-3.0154c9.5866-2.6449,18.4117-6.6832,26.2235-12.0044
	c7.4906-5.0622,14.4575-12.4289,21.3645-20.5065c4.3918-5.1404,9.0043-11.8429,13.3108-18.3126V0
	c-5.1054,7.6145-10.1351,14.1749-15.3066,19.9674c-6.8516,7.6875-14.0425,13.9748-21.3721,18.6939
	c-7.5621,4.9086-16.0735,8.573-25.3007,10.8908c-4.1358,1.0511-8.5648,1.8996-13.5424,2.5981
	c-3.2801,0.4672-6.6628,0.8235-9.9322,1.171C109.9591,53.4607,0.0027,65.213,0.0027,65.213V72.9677L0.0027,72.9677z"/>
<path id="XMLID_39_" class="st2" d="M158.9596,52.9404c-7.4181,4.2992-15.9882,7.4468-25.4684,9.3516
	c-4.0482,0.823-8.4634,1.4933-13.4942,2.046c-2.9549,0.3229-5.9332,0.5839-8.9147,0.8407
	c-1.6075,0.1411-3.2173,0.2828-4.8191,0.4328C69.9373,68.8924,33.8016,72.3811,0,75.6882v7.7494
	c34.0671-4.1414,70.4551-8.5234,106.7674-12.6643c1.614-0.1896,3.2279-0.3729,4.8472-0.55
	c2.9731-0.3308,5.9514-0.6615,8.9404-1.0574c5.1662-0.6933,9.687-1.4882,13.8206-2.4335
	c9.8491-2.2179,18.7446-5.7218,26.4347-10.4127c7.6389-4.6195,14.3913-11.0892,21.6505-19.0033
	c4.5219-4.9248,9.5526-11.8741,14.2547-18.4063v-2.8399c-5.5416,7.5766-10.7984,13.9422-16.0074,19.3747
	C173.6187,42.8434,166.303,48.7265,158.9596,52.9404"/>
<path id="XMLID_38_" class="st2" d="M179.7054,51.0408c-7.2346,6.6848-14.7828,11.9419-22.4462,15.6291
	c-7.4939,3.6414-15.8752,6.1973-25.6337,7.812c-4.0258,0.6729-8.4069,1.2225-13.3789,1.6782l-118.245,9.785v7.7307l105.1098-11.2382
	l13.6003-1.4418c5.1214-0.5937,9.5898-1.2657,13.6552-2.0444c10.1084-1.921,18.7787-4.7925,26.5009-8.776
	c7.8971-4.0259,15.7845-10.7195,23.1225-17.8075c4.9209-4.756,9.6615-10.8923,14.7252-17.3323v-2.5752
	C190.8688,39.7874,185.2802,45.8956,179.7054,51.0408"/>
<path id="XMLID_37_" class="st2" d="M151.1115,91.1898c-6.8846,3.8804-12.0305,6.116-21.8616,7.1503
	c-5.9407,0.6464-12.0487,0.9517-17.9564,1.248c-2.8577,0.1438-5.7216,0.2866-8.5776,0.4694
	c-17.8646,1.0292-35.4059,2.1709-53.3044,3.3424l-49.4088,3.3536v7.7317l49.9037-4.6158c16.124-1.455,34.8648-3.1362,53.1591-4.6397
	l13.2972-1.0397c5.1917-0.4021,9.4503-0.8282,13.3918-1.3449c10.1169-1.3158,18.7564-3.3742,26.4112-6.29
	c8.2481-3.1084,16.0203-7.9317,23.8064-13.6009c7.018-5.1133,16.7338-15.1941,16.7434-15.3275v-2.7304
	c-6.3513,6.2432-10.008,9.7512-16.9568,14.3655C171.4479,84.7773,157.2837,87.7113,151.1115,91.1898"/>
<path id="XMLID_36_" class="st2" d="M153.6259,105.8823c-7.4608,2.2025-15.856,3.6948-25.6689,4.5599
	c-3.9735,0.3468-8.2618,0.6134-13.1123,0.8076l-13.223,0.5867c-32.8662,1.5372-65.5694,3.2599-101.619,5.1801v7.7135
	c34.436-2.6871,68.1829-5.3006,101.9153-7.7189l13.1871-0.9056c5.0926-0.3382,9.3115-0.7041,13.2818-1.1553
	c10.0604-1.134,18.6637-2.8844,26.2982-5.3465c8.4656-2.6999,16.7168-6.616,24.519-11.6402
	c5.7678-3.6976,11.5325-8.1058,17.5114-13.367v-0.135c-6.5902,5.6697-12.8722,6.9255-19.1351,10.7356
	C169.9159,99.8794,161.8536,103.4723,153.6259,105.8823"/>
<path id="XMLID_35_" class="st2" d="M152.4055,118.6924c-7.514,1.7687-15.6543,2.9079-25.6262,3.58
	c-3.8466,0.2602-7.979,0.4555-13.0152,0.6112l-13.0994,0.4704c-33.0036,1.2577-66.4676,2.7042-100.662,4.1998v7.7071
	c33.973-2.3372,67.302-4.6093,100.9205-6.7279l13.0703-0.7893c5.1224-0.2945,9.2997-0.5964,13.1347-0.9484
	c10.1575-0.943,18.4662-2.319,26.1499-4.3245c8.6203-2.237,17.0016-5.5172,24.9083-9.7511
	c6.1145-3.2652,12.2141-7.1884,18.5324-11.919v-3.2955c-6.8325,4.9711-13.3801,9.0236-19.9394,12.3248
	C169.0157,113.7492,160.8168,116.7275,152.4055,118.6924"/>
<path id="XMLID_34_" class="st2" d="M151.2876,131.2511c-7.5387,1.391-15.6586,2.2774-25.5547,2.7949
	c-3.724,0.1909-7.7071,0.3285-12.9193,0.4512l-112.812,3.0764v7.7008l100.0372-5.2601l12.9594-0.6614
	c5.0574-0.24,9.1942-0.4885,13.0205-0.7883c10.0327-0.7702,18.2871-1.8839,25.974-3.5021
	c8.7238-1.823,17.1936-4.4899,25.1653-7.9141c6.4229-2.7447,12.8553-6.0921,19.5575-10.1638v-3.0957
	c-7.1598,4.1976-13.9646,7.5664-20.7256,10.2588C168.125,127.2999,159.8151,129.6873,151.2876,131.2511"/>
<path id="XMLID_33_" class="st2" d="M150.4011,143.8609c-13.8429,1.8626-28.0904,2.078-41.8725,2.2829
	c-3.1604,0.0437-6.3178,0.0948-9.4732,0.16l-99.0527,1.8027v7.687l99.2219-4.3075c3.1476-0.1462,6.2978-0.2731,9.4502-0.3969
	c13.8772-0.561,28.23-1.136,42.2587-3.3847c8.8827-1.4092,17.4293-3.4957,25.4031-6.1999
	c6.6053-2.2284,13.4505-5.1097,20.3822-8.5211v-2.9527c-7.2858,3.4221-14.4511,6.2617-21.3294,8.391
	C167.5084,140.8751,159.1025,142.7057,150.4011,143.8609"/>
<path id="XMLID_32_" class="st2" d="M149.615,156.554c-12.9705,1.0785-26.2448,1.0806-39.0819,1.0806
	c-3.9955,0-7.9879,0-11.9815,0.0342c-32.814,0.1419-65.3682,0.4171-98.5489,0.7018v7.6955
	c31.6041-1.0848,65.1333-2.2113,98.661-3.2141c3.9783-0.1354,7.9603-0.2346,11.9461-0.3381
	c12.9097-0.3286,26.2555-0.6721,39.3562-2.0972c9.1567-0.9868,17.4847-2.4397,25.4672-4.4281
	c6.9593-1.7228,14.1075-4.0248,21.2823-6.7833v-2.8237c-7.4095,2.6754-14.7935,4.8643-21.9854,6.457
	C166.831,154.5955,158.6118,155.8105,149.615,156.554"/>
<path id="XMLID_31_" class="st2" d="M149.1136,169.0657c-5.4041,0.2166-11.2573,0.3179-17.8934,0.3179
	c-2.5058,0-5.0147-0.0149-7.5184-0.0352l-25.5267-0.3157c-17.4219-0.1269-34.7746-0.16-51.0553-0.1728l-47.1157,0.0459v7.6901
	l47.2281-1.2525c16.2229-0.3967,33.6256-0.8149,50.9898-1.1306l25.5096-0.3371c6.9968-0.112,16.2305-0.319,25.5847-0.9398
	c9.1643-0.5974,17.5061-1.5169,25.5003-2.8045c7.1962-1.1595,14.546-2.7212,21.8989-4.6051v-2.733
	c-7.5546,1.7612-15.0632,3.1608-22.3491,4.1422C166.4171,168.0075,158.1573,168.702,149.1136,169.0657"/>
<path id="XMLID_30_" class="st2" d="M123.4075,181.1551l-25.4449-0.2752c-32.4541-0.4566-64.8812-1.0583-97.9599-1.6791v7.6922
	c31.5722-0.2101,65.0134-0.4534,97.9865-0.8267l25.4534-0.3819c8.5797-0.1472,16.9792-0.303,25.4747-0.5899
	c17.4891-0.5654,33.1573-1.8049,47.8015-3.7559v-2.6722c-14.7007,1.5905-30.3881,2.4278-47.8911,2.5452
	C140.36,181.2873,131.8838,181.2266,123.4075,181.1551"/>
<polygon id="XMLID_29_" class="st2" points="196.7155,194.756 0.0016,189.7305 0.0016,197.4207 196.7155,197.4207 196.7155,194.756 
	"/>
<path id="XMLID_28_" class="st2" d="M179.0034,65.5693c-7.4713,6.0488-13.2434,10.3476-22.3906,14.0092
	c-7.9621,3.1888-16.5163,4.4966-26.2929,5.8389c-6.2907,0.8855-12.8617,2.1996-19.1416,2.6206
	c-2.5814,0.1743-5.1647,0.3474-7.7414,0.5536L0.0016,96.1859v7.7192L103.8573,93.756l13.4634-1.2724
	c4.9955-0.4772,9.4256-1.0293,13.5517-1.7013c10.0657-1.6255,18.7373-4.1117,26.5105-7.5978
	c8.0635-3.5857,16.2261-9.4558,23.8084-15.8875c5.1598-4.3638,10.1256-9.859,15.5242-15.8578v-2.7673
	C190.1818,55.4785,184.7692,60.9164,179.0034,65.5693"/>
<path id="XMLID_27_" class="st2" d="M280.434,0.001c0,0,35.4017,56.3875,41.8757,66.7262
	c6.4709,10.3372,13.8729,18.5132,40.0645,24.0682c26.1947,5.556,37.597,8.1797,37.597,8.1797v2.0037
	c0,0-16.641-3.5486-38.0579-8.3322c-21.42-4.7826-30.1736-6.3922-39.9343-19.9753c-8.1242-11.3069-41.545-59.3501-41.545-59.3501
	V0.001L280.434,0.001z"/>
<path id="XMLID_26_" class="st2" d="M280.434,64.3948c0,0,32.2271,33.7719,41.545,43.4659
	c9.8834,10.2834,22.5454,14.0884,40.0987,17.2236c16.753,2.9911,37.885,6.4462,37.885,6.4462v1.9021
	c0,0-19.8444-3.2515-37.885-6.3396c-17.6908-3.0285-30.0735-4.7193-40.2063-14.0554c-9.0737-8.359-41.4374-38.7099-41.4374-38.7099
	V64.3948L280.434,64.3948z"/>
<path id="XMLID_25_" class="st2" d="M280.434,79.6103c0,0,30.6462,28.4606,41.545,38.185
	c10.0252,8.9456,18.1516,11.7276,40.2043,15.6362c22.0568,3.9106,37.7794,6.3385,37.7794,6.3385v2.0097
	c0,0-19.9469-3.277-37.885-6.1284c-17.9384-2.8535-29.3673-3.9821-40.0987-12.6791c-12.3869-10.0455-41.545-34.0613-41.545-34.0613
	V79.6103L280.434,79.6103z"/>
<path id="XMLID_24_" class="st2" d="M280.434,95.8311c0,0,35.0103,27.7747,41.5526,32.6347
	c6.5422,4.8611,15.1987,10.5308,40.3119,14.162c24.906,3.5981,37.6727,5.387,37.6727,5.387v2.1143
	c0,0-22.5817-3.2749-37.6727-5.1779c-15.0869-1.9031-26.6599-2.7127-40.2053-11.7309c-13.1881-8.7782-41.6592-28.824-41.6592-28.824
	V95.8311L280.434,95.8311z"/>
<path id="XMLID_23_" class="st2" d="M280.434,111.4247c0,0,35.1147,23.3807,41.7637,27.0802
	c6.649,3.6984,14.4586,9.7232,40.1008,12.9981c25.6443,3.275,37.6727,4.7513,37.6727,4.7513v2.0097
	c0,0-21.2099-2.3255-37.7804-4.1198c-16.5622-1.7995-27.8547-4.2285-40.2042-10.9905
	c-12.3486-6.762-41.5526-23.8255-41.5526-23.8255V111.4247L280.434,111.4247z"/>
<path id="XMLID_22_" class="st2" d="M280.434,127.0172c0,0,31.0377,16.8853,41.545,22.1604
	c11.7128,5.8798,21.8446,8.6971,40.2043,10.8828c18.0288,2.1484,37.7794,4.2296,37.7794,4.2296v1.8977
	c0,0-18.2625-1.9542-37.7794-3.8008c-19.3454-1.8327-26.2396-2.6775-40.2043-8.8763c-12.4935-5.5416-41.545-19.0924-41.545-19.0924
	V127.0172L280.434,127.0172z"/>
<path id="XMLID_21_" class="st2" d="M280.434,142.8241c0,0,24.5275,10.503,41.7637,17.3408
	c16.9579,6.728,29.9017,7.2922,40.2074,8.456c4.5389,0.5089,37.5661,3.9107,37.5661,3.9107v1.9019
	c0,0-19.7367-1.5862-37.6727-3.1713c-17.9404-1.5831-25.6774-2.254-40.2053-7.0789c-14.7028-4.8814-41.6592-14.2814-41.6592-14.2814
	V142.8241L280.434,142.8241z"/>
<path id="XMLID_20_" class="st2" d="M280.434,158.9361c0,0,24.7632,7.6762,41.6495,12.1149
	c16.8834,4.4354,32.398,6.2361,40.2074,6.7609c7.8086,0.5323,37.6803,2.957,37.6803,2.957v1.7985c0,0-16.991-1.1574-37.7879-2.6434
	c-16.8139-1.1957-30.3209-2.461-40.2043-4.6456c-10.9575-2.4182-41.545-9.6902-41.545-9.6902V158.9361L280.434,158.9361z"/>
<path id="XMLID_19_" class="st2" d="M280.434,174.7888c0,0,20.252,3.4914,41.6495,7.0383
	c16.0385,2.6615,37.7796,4.3363,40.0998,4.443c2.3232,0.1024,37.7794,2.5345,37.7794,2.5345v1.8999
	c0,0-22.6948-1.1724-37.7794-2.0066c-15.7153-0.8651-31.3312-1.822-40.2043-2.7468c-19.8731-2.0727-41.545-4.8163-41.545-4.8163
	V174.7888L280.434,174.7888z"/>
<path id="XMLID_18_" class="st2" d="M280.434,191.1963c0,0,31.9391,1.2011,41.6495,1.4123
	c9.7074,0.2091,77.8792,2.9591,77.8792,2.9591v1.853H280.434V191.1963L280.434,191.1963z"/>
<path id="XMLID_17_" class="st2" d="M362.1833,99.5132c-28.9139-6.2333-35.4531-16.8022-40.3119-23.3557
	c-4.8537-6.55-41.4374-60.0184-41.4374-60.0184v12.0663c1.4422,1.8872,32.7541,42.8768,41.543,54.1874
	c9.9056,12.745,25.4331,15.6395,40.2063,18.8111c14.7721,3.1679,37.7879,7.5871,37.7879,7.5871v-1.6887
	C399.9712,107.1023,369.6493,101.1226,362.1833,99.5132"/>
<path id="XMLID_16_" class="st2" d="M362.1833,107.9663c-23.7456-4.6513-33.3462-12.1529-40.3119-21.2384
	c-6.9638-9.0896-41.4374-54.5274-41.4374-54.5274v11.4231c1.4422,1.7121,32.9803,39.1192,41.4374,48.8078
	c9.8683,11.3034,23.6377,14.2645,40.3119,17.3303c16.6752,3.0637,37.7773,7.0788,37.7773,7.0788v-1.6886
	C399.9606,115.1519,375.8737,110.6471,362.1833,107.9663"/>
<path id="XMLID_15_" class="st2" d="M362.1833,116.7349c-24.6896-4.7886-29.7556-8.7334-40.2063-20.1824
	c-6.57-7.1947-40.1286-46.8196-41.543-48.491v10.5547c0,0,31.3587,33.4491,41.4374,43.3267
	c13.2306,12.9636,25.6453,13.9483,40.3119,16.5916c14.6696,2.6381,37.7773,6.8676,37.7773,6.8676v-1.7974
	C399.9606,123.6047,372.0622,118.6529,362.1833,116.7349"/>
<polygon id="XMLID_14_" class="st1" points="254.1124,82.1261 81.7673,82.1261 81.7673,197.4153 254.1124,197.4153 
	254.1124,82.1261 "/>
<polygon id="XMLID_13_" class="st3" points="169.8071,98.5209 175.8023,98.5209 170.9721,102.2857 172.8505,108.2576 
	168.0321,104.578 163.2222,108.2576 165.1167,102.2857 160.2439,98.5209 166.2219,98.5209 168.0321,92.6961 169.8071,98.5209 "/>
<polygon id="XMLID_12_" class="st3" points="170.0183,175.4054 176.023,175.4054 171.1907,179.0355 173.066,184.7745 
	168.254,181.2361 163.4387,184.7745 165.3355,179.0355 160.4551,175.4054 166.4427,175.4054 168.254,169.8018 170.0183,175.4054 "/>
<polygon id="XMLID_11_" class="st3" points="189.0362,170.3128 195.044,170.3128 190.2096,173.9343 192.087,179.6841 
	187.2728,176.1371 182.4587,179.6841 184.3542,173.9343 179.474,170.3128 185.4604,170.3128 187.2728,164.7071 189.0362,170.3128 
	"/>
<polygon id="XMLID_10_" class="st3" points="189.0362,103.6493 195.044,103.6493 190.2096,107.2709 192.087,113.0184 
	187.2728,109.4779 182.4587,113.0184 184.3542,107.2709 179.474,103.6493 185.4604,103.6493 187.2728,98.0448 189.0362,103.6493 "/>
<polygon id="XMLID_9_" class="st3" points="203.1565,117.7675 209.1506,117.7675 204.3192,121.3859 206.1978,127.1388 
	201.3826,123.5972 196.5779,127.1388 198.4746,121.3859 193.5932,117.7675 199.5712,117.7675 201.3826,112.1629 203.1565,117.7675 
	"/>
<polygon id="XMLID_8_" class="st3" points="203.1565,156.3865 209.1506,156.3865 204.3192,160.0198 206.1978,165.7663 
	201.3826,162.2184 196.5779,165.7663 198.4746,160.0198 193.5932,156.3865 199.5712,156.3865 201.3826,150.7809 203.1565,156.3865 
	"/>
<polygon id="XMLID_7_" class="st3" points="208.4465,136.781 214.4565,136.781 209.6198,140.4058 211.4952,146.1577 
	206.6831,142.6097 201.8689,146.1577 203.7646,140.4058 198.8842,136.781 204.8611,136.781 206.6831,131.1818 208.4465,136.781 "/>
<polygon id="XMLID_6_" class="st3" points="150.4171,103.6962 156.4122,103.6962 151.5788,107.3232 153.4574,113.0707 
	148.6421,109.5249 143.8301,113.0707 145.7268,107.3232 140.8538,103.6962 146.8318,103.6962 148.6421,98.0917 150.4171,103.6962 
	"/>
<polygon id="XMLID_5_" class="st3" points="136.6893,117.8155 142.6939,117.8155 137.8605,121.4371 139.7294,127.1879 
	134.9239,123.6431 130.1097,127.1879 132.002,121.4371 127.126,117.8155 133.1136,117.8155 134.9239,112.2109 136.6893,117.8155 "/>
<polygon id="XMLID_4_" class="st3" points="131.5935,136.8301 137.5928,136.8301 132.7595,140.457 134.639,146.2035 
	129.8238,142.6683 125.0117,146.2035 126.9042,140.457 122.0356,136.8301 128.0126,136.8301 129.8238,131.2297 131.5935,136.8301 
	"/>
<polygon id="XMLID_3_" class="st3" points="136.6893,156.4324 142.6939,156.4324 137.8605,160.0657 139.7294,165.8133 
	134.9239,162.2696 130.1097,165.8133 132.002,160.0657 127.126,156.4324 133.1136,156.4324 134.9239,150.8364 136.6893,156.4324 "/>
<polygon id="XMLID_2_" class="st3" points="150.6177,170.3608 156.6128,170.3608 151.7793,173.9855 153.6472,179.7331 
	148.8427,176.1884 144.0306,179.7331 145.9272,173.9855 141.0533,170.3608 147.0324,170.3608 148.8427,164.7551 150.6177,170.3608 
	"/>
</svg>
