<svg id="instagram-icon-light" xmlns="http://www.w3.org/2000/svg" viewBox="0 0 24 24">
  <defs>
    <style>
      .cls-1 {
        fill: #fff;
      }
    </style>
  </defs>
  <path id="Path_8" data-name="Path 8" class="cls-1" d="M16.85,0H7.15A7.158,7.158,0,0,0,0,7.15v9.7A7.158,7.158,0,0,0,7.15,24h9.7A7.158,7.158,0,0,0,24,16.85V7.15A7.158,7.158,0,0,0,16.85,0Zm4.735,16.85a4.735,4.735,0,0,1-4.735,4.735H7.15A4.735,4.735,0,0,1,2.414,16.85V7.15A4.735,4.735,0,0,1,7.15,2.414h9.7A4.735,4.735,0,0,1,21.586,7.15v9.7Z"/>
  <path id="Path_9" data-name="Path 9" class="cls-1" d="M139.207,133a6.207,6.207,0,1,0,6.207,6.207A6.214,6.214,0,0,0,139.207,133Zm0,10A3.793,3.793,0,1,1,143,139.207,3.793,3.793,0,0,1,139.207,143Z" transform="translate(-127.207 -127.207)"/>
  <circle id="Ellipse_1" data-name="Ellipse 1" class="cls-1" cx="1.487" cy="1.487" r="1.487" transform="translate(16.732 4.352)"/>
</svg>
