<?xml version="1.0" encoding="utf-8"?>
<!-- Generator: Adobe Illustrator 22.1.0, SVG Export Plug-In . SVG Version: 6.00 Build 0)  -->
<svg version="1.1" id="Layer_1" xmlns="http://www.w3.org/2000/svg" xmlns:xlink="http://www.w3.org/1999/xlink" x="0px" y="0px"
	 viewBox="0 0 231.0807 80.6174" style="enable-background:new 0 0 231.0807 80.6174;" xml:space="preserve">
<style type="text/css">
	.st0{fill:#006193;}
</style>
<path id="XMLID_8_" class="st0" d="M17.463,77.6411c0,1.644-1.3318,2.9763-2.9738,2.9763H2.9738C1.3318,80.6174,0,79.2851,0,77.6411
	V3.0194c0-1.6445,1.3318-2.9763,2.9738-2.9763h11.5154c1.642,0,2.9738,1.3318,2.9738,2.9763V77.6411L17.463,77.6411z"/>
<path id="XMLID_7_" class="st0" d="M47.6303,1.631c-2.0109,2.7561-22.6242,30.5617-24.2122,32.9438
	c-1.5879,2.3821-2.3794,7.9403,0,11.5103c2.3797,3.5707,22.6239,30.1668,24.2122,31.7553c1.5874,1.5885,2.3797,2.777,5.158,2.777
	c2.7796,0,4.957,0,8.0356,0c3.0786,0,6.2517-1.5885,2.6812-6.7469c-3.5708-5.1583-21.2847-29.1883-23.2693-32.1646
	c-1.9848-2.9764-0.4922-4.098,0.574-5.3282C41.8745,35.1489,62.3657,6.872,63.6766,4.905c1.312-1.9676,1.6389-4.8619-1.475-4.8619
	c-3.1151,0-9.1798,0-11.1468,0C49.0876,0.0431,48.6575,0.2229,47.6303,1.631L47.6303,1.631z"/>
<path id="XMLID_6_" class="st0" d="M119.139,0.0431c-4.1536,0-13.114,0-24.2597,0c-11.147,0-18.5809,8.3556-18.5809,19.0666
	s0,52.0205,0,55.9538c0,3.9351,1.0938,5.5539,3.7169,5.5539c2.6232,0,5.8983,0,8.0863,0c2.1876,0,3.9338-1.6238,3.9338-4.6821
	c0-3.0584,0-50.4888,0-54.2032c0-3.7131,2.8412-6.1211,7.8692-6.1211c5.0278,0,16.3942,0,19.2344,0
	c2.8437,0,4.0422-1.5265,4.0422-4.0418c0-2.5152,0-5.5734,0-7.5404S121.7619,0.0431,119.139,0.0431L119.139,0.0431z"/>
<g id="XMLID_3_">
	<path id="XMLID_5_" class="st0" d="M132.4742,0.0431c4.5889,0,8.3033,0,10.4907,0c2.1822,0,2.1822,0.0511,3.2791,3.3302
		c1.0916,3.2779,13.7684,49.1817,14.4247,51.3645c0.6563,2.1819,1.7468,1.3109,2.4017-0.8764
		c0.6563-2.187,3.7197-17.0427,4.155-18.7945c0.4353-1.7519,3.279-1.9721,4.5903,1.5266
		c1.3101,3.4986,3.7196,11.5823,4.5903,13.7693c0.8695,2.1872,0.8748,1.6598,0,5.6405c-0.8757,3.9798-6.3435,20.1515-7.4326,22.1185
		c-1.0917,1.9682-3.4987,1.7474-4.8113,1.7474c-1.3113,0-5.0257,0-6.3358,0c-1.3126,0-1.9625,0-3.0594-2.4023
		c-1.0956-2.4034-23.604-69.284-24.2605-71.9064C129.8501,2.9374,130.721,0.0431,132.4742,0.0431L132.4742,0.0431z"/>
	<path id="XMLID_4_" class="st0" d="M170.0625,0.0431c1.9691,0,9.4018,0,11.368,0c1.9678,0,1.9627,0.487,3.058,3.1094
		c1.097,2.6231,14.6406,49.8328,15.0813,51.8004c0.4406,1.9668,1.3112,0.8756,1.5322-1.0915
		c0.221-1.9668,14.4197-51.1492,14.8602-52.6758c0.4418-1.5267,2.6279-1.1425,4.3746-1.1425c1.7466,0,5.9016,0,7.868,0
		c1.9676,0,3.4987,0.7021,2.6239,5.0764c-0.8759,4.3749-21.6377,68.8488-22.5136,71.4705
		c-0.8774,2.6231-1.9626,4.0274-4.3707,4.0274c-2.4071,0-5.6847,0-7.6537,0c-1.9664,0-3.4986-0.5324-4.5903-3.3713
		c-1.0891-2.8374-22.9478-70.6-23.3834-72.782C167.8817,2.282,168.0962,0.0431,170.0625,0.0431L170.0625,0.0431z"/>
</g>
<path id="XMLID_2_" class="st0" d="M118.9194,46.7311c0,1.644-1.3322,2.9763-2.9737,2.9763h-14.5966
	c-1.6427,0-2.9739-1.3323-2.9739-2.9763v-9.344c0-1.644,1.3312-2.9763,2.9739-2.9763h14.5966c1.6415,0,2.9737,1.3323,2.9737,2.9763
	V46.7311L118.9194,46.7311z"/>
</svg>
