<svg xmlns="http://www.w3.org/2000/svg" viewBox="0 0 24 24">
  <defs>
    <style>
      .cls-1 {
        fill: #fff;
      }
    </style>
  </defs>
  <g id="language-icon-light" transform="translate(-11 -11)">
    <path id="Path_10" data-name="Path 10" class="cls-1" d="M31.483,14.517A11.99,11.99,0,1,0,35,23,11.911,11.911,0,0,0,31.483,14.517Zm2.429,7.944H29.26a20.836,20.836,0,0,0-.759-5.216,11.9,11.9,0,0,0,2.473-1.7A10.9,10.9,0,0,1,33.913,22.461ZM23.539,23.539h4.648a19.7,19.7,0,0,1-.681,4.8,12.114,12.114,0,0,0-3.967-.862ZM30.2,14.791a10.912,10.912,0,0,1-2.038,1.416,12.511,12.511,0,0,0-.632-1.469,8.633,8.633,0,0,0-1.577-2.253A10.878,10.878,0,0,1,30.2,14.791Zm-6.661-2.547c1.122.25,2.18,1.283,3.032,2.968a12.241,12.241,0,0,1,.617,1.455,10.992,10.992,0,0,1-3.649.818ZM27.511,17.7a19.7,19.7,0,0,1,.671,4.766H23.539v-3.9a12.121,12.121,0,0,0,3.972-.867Zm-5.05,4.761H17.813a19.7,19.7,0,0,1,.671-4.766,11.9,11.9,0,0,0,3.972.862v3.9Zm0-10.217v5.241a10.965,10.965,0,0,1-3.649-.818,12.242,12.242,0,0,1,.617-1.455c.852-1.685,1.91-2.718,3.032-2.968Zm-2.415.24a8.717,8.717,0,0,0-1.577,2.253,14.408,14.408,0,0,0-.632,1.469A11.075,11.075,0,0,1,15.8,14.791,10.878,10.878,0,0,1,20.051,12.484Zm-5.02,3.056a12.091,12.091,0,0,0,2.473,1.7,20.647,20.647,0,0,0-.759,5.216H12.092A10.9,10.9,0,0,1,15.031,15.54Zm-2.939,8h4.653a20.809,20.809,0,0,0,.769,5.246,11.793,11.793,0,0,0-2.464,1.695A10.881,10.881,0,0,1,12.092,23.539Zm3.732,7.69a10.953,10.953,0,0,1,2.028-1.406,13.273,13.273,0,0,0,.622,1.44,8.749,8.749,0,0,0,1.577,2.258A10.933,10.933,0,0,1,15.824,31.229Zm6.642,2.527c-1.122-.25-2.18-1.283-3.032-2.968a12.59,12.59,0,0,1-.607-1.425,10.811,10.811,0,0,1,3.639-.813v5.207ZM18.5,28.334a19.7,19.7,0,0,1-.681-4.8h4.648v3.933a11.869,11.869,0,0,0-3.967.862Zm5.045,5.422V28.549a10.93,10.93,0,0,1,3.639.813,12.59,12.59,0,0,1-.607,1.425C25.723,32.473,24.665,33.506,23.544,33.756Zm2.415-.24a8.665,8.665,0,0,0,1.577-2.258,13.273,13.273,0,0,0,.622-1.44,10.953,10.953,0,0,1,2.028,1.406,10.805,10.805,0,0,1-4.227,2.292Zm5.006-3.037A11.982,11.982,0,0,0,28.5,28.784a20.843,20.843,0,0,0,.769-5.246h4.653a10.932,10.932,0,0,1-2.958,6.94Z"/>
  </g>
</svg>
