<?xml version="1.0" encoding="utf-8"?>
<!-- Generator: Adobe Illustrator 22.1.0, SVG Export Plug-In . SVG Version: 6.00 Build 0)  -->
<svg version="1.1" id="Layer_1" xmlns="http://www.w3.org/2000/svg" xmlns:xlink="http://www.w3.org/1999/xlink" x="0px" y="0px"
	 viewBox="0 0 332.4053 337.3942" style="enable-background:new 0 0 332.4053 337.3942;" xml:space="preserve">
<style type="text/css">
	.st0{fill:#FFFFFF;stroke:#CE952B;stroke-width:3.3134;stroke-linecap:round;stroke-linejoin:round;}
	.st1{fill:#FFFFFF;stroke:#CE952B;stroke-width:1.7703;stroke-linecap:round;stroke-linejoin:round;}
	.st2{fill:#FFFFFF;stroke:#CE952B;stroke-width:1.6567;stroke-linecap:square;}
	.st3{fill:#CE952B;stroke:#CE952B;stroke-width:0.8283;stroke-linecap:round;stroke-linejoin:round;}
	.st4{fill:none;stroke:#CE952B;stroke-width:1.7704;stroke-linecap:round;stroke-linejoin:round;}
	.st5{fill:#CE952B;stroke:#CE952B;stroke-width:1.4965;stroke-linecap:square;}
	.st6{fill:#CE952B;}
	.st7{fill:#FFFFFF;stroke:#CE952B;stroke-width:1.6567;stroke-linecap:round;stroke-linejoin:round;}
	.st8{fill:none;stroke:#CE952B;stroke-width:1.7707;stroke-linecap:round;stroke-linejoin:round;}
	.st9{fill:#FFFFFF;stroke:#CE952B;stroke-width:1.7704;stroke-linecap:round;stroke-linejoin:round;}
	.st10{fill:#FFFFFF;stroke:#CE952B;stroke-width:1.2424;stroke-linecap:round;stroke-linejoin:round;}
	.st11{fill:#FFFFFF;stroke:#FFFFFF;stroke-width:1.7703;stroke-linecap:round;stroke-linejoin:round;}
	.st12{fill:#FFFFFF;stroke:#CE952B;stroke-width:0.5256;}
	.st13{clip-path:url(#XMLID_2_);fill:#ED1C24;}
	.st14{clip-path:url(#XMLID_2_);}
	.st15{fill:none;stroke:#CE952B;stroke-width:0.8484;}
</style>
<polygon id="XMLID_65_" points="0,330.9269 0,308.9202 6.6419,308.9202 10.6383,323.9302 14.5982,308.9202 21.2581,308.9202 
	21.2581,330.9269 17.118,330.9269 17.118,313.6055 12.7622,330.9269 8.4779,330.9269 4.1221,313.6055 4.1221,330.9269 0,330.9269 
	"/>
<path id="XMLID_62_" d="M25.2903,312.8242v-3.904h4.2299v3.904H25.2903L25.2903,312.8242z M25.2903,330.9269v-15.939h4.2299v15.939
	H25.2903L25.2903,330.9269z"/>
<path id="XMLID_61_" d="M47.9339,330.9269H43.722v-8.1378c0-1.7172-0.0901-2.8351-0.2698-3.3336
	c-0.1802-0.5077-0.468-0.8982-0.8822-1.179c-0.4138-0.2826-0.8998-0.4231-1.4579-0.4231c-0.7383,0-1.386,0.2035-1.9622,0.6013
	c-0.5939,0.3996-0.99,0.9306-1.2058,1.593c-0.2162,0.657-0.3239,1.8755-0.3239,3.6648v7.2144h-4.2121v-15.939h3.9238v2.3435
	c1.3861-1.8036,3.132-2.7017,5.2381-2.7017c0.9362,0,1.782,0.1638,2.5561,0.5004c0.7738,0.3348,1.35,0.7632,1.7459,1.2797
	c0.3959,0.5221,0.6842,1.116,0.8279,1.7713c0.1622,0.666,0.234,1.6091,0.234,2.844V330.9269L47.9339,330.9269z"/>
<path id="XMLID_58_" d="M51.822,312.8242v-3.904h4.2122v3.904H51.822L51.822,312.8242z M51.822,330.9269v-15.939h4.2122v15.939
	H51.822L51.822,330.9269z"/>
<path id="XMLID_57_" d="M58.6801,326.3818l4.2297-0.648c0.1802,0.8209,0.5581,1.4437,1.0982,1.8666
	c0.5581,0.4302,1.3322,0.6408,2.3221,0.6408c1.0797,0,1.9081-0.2033,2.4479-0.6011c0.3782-0.2826,0.5579-0.657,0.5579-1.125
	c0-0.3204-0.09-0.585-0.2878-0.7974c-0.216-0.2016-0.6842-0.3816-1.4221-0.5544c-3.402-0.7488-5.5621-1.4365-6.4619-2.0521
	c-1.2601-0.8676-1.8903-2.0627-1.8903-3.5927c0-1.3842,0.5403-2.538,1.6381-3.4848c1.0799-0.936,2.772-1.404,5.0763-1.404
	c2.1779,0,3.7977,0.351,4.8594,1.062c1.0626,0.711,1.7823,1.764,2.1784,3.1554l-3.9779,0.7344
	c-0.1622-0.6193-0.486-1.0944-0.9543-1.431c-0.486-0.3276-1.1698-0.4915-2.034-0.4915c-1.1158,0-1.9081,0.1567-2.3941,0.4699
	c-0.3239,0.2178-0.4858,0.4985-0.4858,0.8495c0,0.3042,0.1439,0.5545,0.432,0.7651c0.3783,0.2825,1.692,0.6804,3.9425,1.188
	c2.2315,0.5076,3.7975,1.1322,4.6973,1.8738c0.8822,0.7506,1.3144,1.7964,1.3144,3.1391c0,1.4616-0.6117,2.7181-1.818,3.7656
	c-1.2243,1.0531-3.0421,1.5768-5.418,1.5768c-2.1784,0-3.8883-0.4373-5.166-1.3194
	C59.904,329.0837,59.0758,327.8885,58.6801,326.3818L58.6801,326.3818z"/>
<path id="XMLID_56_" d="M84.1499,314.9879v3.3588h-2.8802v6.426c0,1.3049,0.0182,2.0627,0.0721,2.2734
	c0.054,0.2178,0.1801,0.3905,0.3781,0.5309c0.198,0.1405,0.432,0.2107,0.7201,0.2107c0.3781,0,0.954-0.1333,1.6919-0.4068
	l0.3599,3.2724c-0.9899,0.4229-2.0874,0.6335-3.33,0.6335c-0.7736,0-1.4574-0.126-2.07-0.3833
	c-0.5937-0.2575-1.0437-0.585-1.332-0.9919c-0.2879-0.405-0.486-0.9521-0.5942-1.6398c-0.0896-0.4932-0.1437-1.4831-0.1437-2.9753
	v-6.9498h-1.9258v-3.3588h1.9258v-3.1698l4.2478-2.4606v5.6304H84.1499L84.1499,314.9879z"/>
<path id="XMLID_53_" d="M124.614,322.735c0-1.4058,0.3421-2.7558,1.0437-4.0679c0.684-1.3122,1.6563-2.313,2.934-3.0078
	c1.2603-0.6858,2.682-1.0296,4.2302-1.0296c2.4119,0,4.3919,0.7812,5.94,2.3508c1.5298,1.5624,2.3041,3.537,2.3041,5.9346
	c0,2.4048-0.7743,4.4028-2.3403,5.9904c-1.548,1.593-3.5101,2.3813-5.8678,2.3813c-1.4581,0-2.8622-0.3293-4.1761-0.9917
	c-1.332-0.6553-2.3401-1.6255-3.0241-2.9052C124.9561,326.1173,124.614,324.5621,124.614,322.735L124.614,322.735z
	 M128.934,322.9529c0,1.5876,0.378,2.7955,1.134,3.6397c0.7557,0.8369,1.6737,1.2582,2.7721,1.2582
	c1.0978,0,2.0336-0.4213,2.7718-1.2582c0.7379-0.8442,1.1158-2.061,1.1158-3.663c0-1.5606-0.3779-2.7631-1.1158-3.6072
	c-0.7382-0.8352-1.674-1.2582-2.7718-1.2582c-1.0984,0-2.0164,0.423-2.7721,1.2582
	C129.312,320.1664,128.934,321.376,128.934,322.9529L128.934,322.9529z"/>
<path id="XMLID_52_" d="M142.1277,314.9879h2.3401v-1.2024c0-1.3428,0.1439-2.3419,0.414-2.9988
	c0.288-0.6642,0.8279-1.2024,1.5842-1.6164c0.7739-0.4139,1.7279-0.6246,2.8977-0.6246c1.2061,0,2.3764,0.1781,3.5282,0.5472
	l-0.5583,2.9358c-0.6838-0.1566-1.3136-0.2358-1.9435-0.2358c-0.6122,0-1.0442,0.1422-1.3146,0.423
	c-0.2694,0.2897-0.3956,0.8352-0.3956,1.647v1.125h3.15v3.3191h-3.15v12.6199h-4.2121V318.307h-2.3401V314.9879L142.1277,314.9879z"
	/>
<polygon id="XMLID_51_" points="162.7739,330.9269 162.7739,308.9202 179.0999,308.9202 179.0999,312.646 167.22,312.646 
	167.22,317.5258 178.2718,317.5258 178.2718,321.2284 167.22,321.2284 167.22,327.217 179.5137,327.217 179.5137,330.9269 
	162.7739,330.9269 "/>
<path id="XMLID_50_" d="M197.3519,330.9269h-4.2301v-8.1378c0-1.7172-0.0899-2.8351-0.2701-3.3336
	c-0.1797-0.5077-0.4678-0.8982-0.8639-1.179c-0.4142-0.2826-0.8998-0.4231-1.4762-0.4231c-0.72,0-1.3858,0.2035-1.9617,0.6013
	c-0.5763,0.3996-0.972,0.9306-1.188,1.593c-0.216,0.657-0.3239,1.8755-0.3239,3.6648v7.2144h-4.2302v-15.939h3.9239v2.3435
	c1.404-1.8036,3.15-2.7017,5.2561-2.7017c0.9358,0,1.7819,0.1638,2.556,0.5004c0.7739,0.3348,1.35,0.7632,1.7462,1.2797
	c0.3957,0.5221,0.6658,1.116,0.8277,1.7713c0.1439,0.666,0.2342,1.6091,0.2342,2.844V330.9269L197.3519,330.9269z"/>
<path id="XMLID_49_" d="M205.1096,330.9269l-6.4077-15.939h4.428l2.9878,8.1378l0.882,2.709
	c0.2338-0.6876,0.3779-1.1394,0.4319-1.3572c0.1442-0.4536,0.2879-0.9073,0.45-1.3518l3.0239-8.1378h4.3387l-6.3364,15.939H205.1096
	L205.1096,330.9269z"/>
<path id="XMLID_46_" d="M217.4037,312.8242v-3.904h4.2117v3.904H217.4037L217.4037,312.8242z M217.4037,330.9269v-15.939h4.2117
	v15.939H217.4037L217.4037,330.9269z"/>
<path id="XMLID_45_" d="M229.6438,330.9269h-4.2302v-15.939h3.9239v2.2643c0.6662-1.0709,1.2779-1.7711,1.8-2.1167
	c0.5401-0.3348,1.1522-0.5058,1.836-0.5058c0.9541,0,1.8721,0.2646,2.7721,0.7956l-1.2955,3.6792
	c-0.7203-0.4608-1.3865-0.6948-1.9806-0.6948c-0.5937,0-1.0978,0.1637-1.5113,0.4914c-0.4144,0.3185-0.7383,0.9054-0.9725,1.7568
	c-0.2343,0.8514-0.3419,2.6316-0.3419,5.3496V330.9269L229.6438,330.9269z"/>
<path id="XMLID_42_" d="M236.0695,322.735c0-1.4058,0.3423-2.7558,1.0261-4.0679c0.7022-1.3122,1.6739-2.313,2.9346-3.0078
	c1.2775-0.6858,2.6816-1.0296,4.2478-1.0296c2.4117,0,4.3914,0.7812,5.9216,2.3508c1.5482,1.5624,2.3221,3.537,2.3221,5.9346
	c0,2.4048-0.7919,4.4028-2.3401,5.9904c-1.5478,1.593-3.5095,2.3813-5.868,2.3813c-1.4761,0-2.8622-0.3293-4.1942-0.9917
	c-1.3135-0.6553-2.3216-1.6255-3.0238-2.9052C236.4118,326.1173,236.0695,324.5621,236.0695,322.735L236.0695,322.735z
	 M240.3897,322.9529c0,1.5876,0.3779,2.7955,1.1338,3.6397c0.7383,0.8369,1.6743,1.2582,2.7721,1.2582
	c1.0982,0,2.0162-0.4213,2.772-1.2582c0.7379-0.8442,1.1158-2.061,1.1158-3.663c0-1.5606-0.3779-2.7631-1.1158-3.6072
	c-0.7558-0.8352-1.6738-1.2582-2.772-1.2582c-1.0978,0-2.0338,0.423-2.7721,1.2582
	C240.7676,320.1664,240.3897,321.376,240.3897,322.9529L240.3897,322.9529z"/>
<path id="XMLID_41_" d="M269.9996,330.9269h-4.2122v-8.1378c0-1.7172-0.0896-2.8351-0.2698-3.3336
	c-0.1802-0.5077-0.468-0.8982-0.8815-1.179c-0.3964-0.2826-0.8825-0.4231-1.4582-0.4231c-0.7202,0-1.3864,0.2035-1.9625,0.6013
	c-0.5757,0.3996-0.9717,0.9306-1.1879,1.593c-0.2157,0.657-0.3239,1.8755-0.3239,3.6648v7.2144h-4.2301v-15.939h3.9243v2.3435
	c1.386-1.8036,3.132-2.7017,5.2558-2.7017c0.9185,0,1.782,0.1638,2.5559,0.5004c0.7558,0.3348,1.35,0.7632,1.7459,1.2797
	c0.396,0.5221,0.6667,1.116,0.828,1.7713c0.1445,0.666,0.2162,1.6091,0.2162,2.844V330.9269L269.9996,330.9269z"/>
<path id="XMLID_40_" d="M273.6896,314.9879h3.8883v2.1798c1.4037-1.6956,3.0595-2.538,4.9676-2.538
	c1.0261,0,1.9081,0.2106,2.664,0.6227c0.7558,0.4231,1.368,1.0638,1.836,1.9153c0.7022-0.8515,1.4581-1.4922,2.2684-1.9153
	c0.8095-0.4121,1.6735-0.6227,2.6095-0.6227c1.1703,0,2.1604,0.234,2.9707,0.7092c0.8095,0.477,1.4212,1.1736,1.8176,2.0934
	c0.2878,0.6804,0.432,1.782,0.432,3.303v10.1916h-4.2302v-9.1134c0-1.5768-0.1441-2.5992-0.432-3.0618
	c-0.3779-0.6012-0.9901-0.8983-1.8-0.8983c-0.5941,0-1.1338,0.1801-1.6558,0.5401c-0.5221,0.3582-0.9,0.8891-1.1338,1.5857
	c-0.2338,0.6949-0.3423,1.7947-0.3423,3.294v7.6537h-4.2122v-8.739c0-1.5444-0.0721-2.5452-0.2338-2.9988
	c-0.1441-0.4519-0.3779-0.7884-0.7022-1.008c-0.3059-0.2178-0.7379-0.3277-1.278-0.3277c-0.6477,0-1.2238,0.1729-1.7639,0.5239
	c-0.5041,0.3528-0.882,0.8586-1.1158,1.5156c-0.2158,0.6642-0.3243,1.7568-0.3243,3.2868v7.7472h-4.2298V314.9879L273.6896,314.9879
	z"/>
<path id="XMLID_37_" d="M310.3914,325.8509l4.1946,0.711c-0.5405,1.539-1.3865,2.709-2.5563,3.5154
	c-1.1703,0.8099-2.6104,1.2095-4.3739,1.2095c-2.7721,0-4.8243-0.9071-6.1563-2.7179c-1.0441-1.4527-1.5657-3.2796-1.5657-5.49
	c0-2.6389,0.6838-4.7088,2.0698-6.2082c1.386-1.4922,3.1324-2.241,5.2374-2.241c2.3765,0,4.2486,0.7812,5.6166,2.3508
	c1.368,1.5624,2.0158,3.96,1.9617,7.191h-10.5657c0.036,1.2492,0.3779,2.2265,1.0257,2.9214
	c0.6486,0.6948,1.458,1.0476,2.4301,1.0476c0.6482,0,1.2059-0.189,1.6559-0.5472
	C309.8153,327.2333,310.1576,326.6555,310.3914,325.8509L310.3914,325.8509z M310.6256,321.5957
	c-0.0175-1.2258-0.3419-2.1546-0.936-2.7882c-0.6117-0.6337-1.332-0.9541-2.196-0.9541c-0.918,0-1.6738,0.3367-2.2855,1.0081
	c-0.5946,0.6714-0.8825,1.5785-0.8825,2.7342H310.6256L310.6256,321.5957z"/>
<path id="XMLID_36_" d="M332.4053,330.9269h-4.2117v-8.1378c0-1.7172-0.0901-2.8351-0.2703-3.3336
	c-0.1797-0.5077-0.468-0.8982-0.8815-1.179c-0.3964-0.2826-0.8824-0.4231-1.4581-0.4231c-0.7383,0-1.386,0.2035-1.9617,0.6013
	c-0.5766,0.3996-0.9905,0.9306-1.1883,1.593c-0.2162,0.657-0.3243,1.8755-0.3243,3.6648v7.2144h-4.2297v-15.939h3.9239v2.3435
	c1.386-1.8036,3.1319-2.7017,5.2558-2.7017c0.9185,0,1.782,0.1638,2.5559,0.5004c0.7567,0.3348,1.35,0.7632,1.7463,1.2797
	c0.396,0.5221,0.6663,1.116,0.828,1.7713c0.1441,0.666,0.2157,1.6091,0.2157,2.844V330.9269L332.4053,330.9269z"/>
<path id="XMLID_35_" d="M91.1161,330.9269h-4.2302v-15.939h3.9243v2.2643c0.6656-1.0709,1.2777-1.7711,1.7996-2.1167
	c0.5401-0.3348,1.1522-0.5058,1.836-0.5058c0.9543,0,1.8901,0.2646,2.7721,0.7956l-1.3136,3.6792
	c-0.7026-0.4608-1.3684-0.6948-1.9625-0.6948c-0.5937,0-1.0978,0.1637-1.5118,0.4914c-0.4144,0.3185-0.7382,0.9054-0.9725,1.7568
	c-0.2335,0.8514-0.3414,2.6316-0.3414,5.3496V330.9269L91.1161,330.9269z"/>
<path id="XMLID_34_" d="M97.9562,314.9879h4.4997l3.798,11.3165l3.7261-11.3165h4.3739l-5.634,15.3378l-1.0079,2.781
	c-0.3604,0.9288-0.7203,1.6379-1.0441,2.1312c-0.3422,0.4842-0.7203,0.8837-1.1699,1.1879
	c-0.4319,0.3043-0.9725,0.5455-1.6022,0.7165c-0.6297,0.1655-1.35,0.2519-2.1599,0.2519c-0.8101,0-1.602-0.0864-2.3761-0.2519
	l-0.378-3.3012c0.6662,0.1241,1.2599,0.1944,1.782,0.1944c0.9901,0,1.7099-0.2899,2.1779-0.8676
	c0.4681-0.5688,0.8284-1.3032,1.0802-2.1942L97.9562,314.9879L97.9562,314.9879z"/>
<path id="svg_515" class="st0" d="M173.3094,268.3095c-27.7868,0-54.3793-2.1988-69.7713-6.5965
	c-6.7973-1.1971-6.7973-4.5957-6.7973-8.9962c-6.5979-2.1988-3.1979-9.9924-7.795-9.9924c4.5971,1.2025,5.5962-7.795,11.195-6.5939
	c0-7.7991,7.795-8.7968,14.3916-6.602c13.3952,4.4004,36.5877,4.4004,58.7783,5.4009c22.1921,0,45.5839-1.0005,58.7799-5.4009
	c6.5966-2.1948,14.3943-1.1971,14.3943,6.602c5.5975-1.2011,6.5966,7.7964,11.1935,6.5939c-4.5969,0-1.1969,7.7936-7.7949,9.9924
	c0,4.4005,0,7.7991-6.5994,8.9962C227.6915,266.1107,201.1016,268.3095,173.3094,268.3095L173.3094,268.3095z"/>
<path id="svg_514" class="st1" d="M76.7476,229.5271l6.7987-160.9115c1.0018-24.3866,22.192-18.7906,37.584-9.9938
	c15.5955,9.9938,33.3884,9.9938,52.1804,3.3959c18.7963,6.5979,36.5865,6.5979,52.1818-3.3959
	c15.3949-8.7968,36.5865-14.3914,37.5856,9.9938l6.7945,160.9115l-95.4409-88.5994L76.7476,229.5271z"/>
<path id="svg_512" class="st2" d="M194.3031,74.2118c-6.5938-1.1998-12.1942-3.3958-15.3935-8.7941
	c-1.1984,2.1975-4.3977,5.3983-5.5975,7.5943c-1.1984-2.196-4.3991-5.3968-5.5975-7.5943
	c-3.1965,5.3983-8.7968,7.5943-15.3934,8.7941c2.1989-2.1975,3.198-3.3958,5.3968-6.5952
	c-5.3968,3.1994-10.9956,3.1994-14.3943,3.1994c15.5941-14.3944,17.7916-29.9858,15.5941-46.5774
	c-1.1998-7.7965-6.6798-10.6556-8.3485-11.6421c-2.2335-1.2301-3.7321-0.8994-5.073-0.4915l-2.1739,0.9118
	c0-7.7936,5.877-10.4217,7.8766-10.4217c3.1965,0,7.1792,1.6544,10.5778,3.8519c1.2025-2.1975,1.6511-5.0673,5.1576-5.5169
	c4.2234-0.5426,10.7478,1.1441,14.5255,3.6251c7.0657,4.6413,10.2955,13.7191,8.4455,28.678
	c-1.0006,8.7982,2.2016,29.7849,13.3965,37.5828c-3.4014,0-9.0003,0-14.3971-3.1994
	C191.1051,70.816,192.1056,72.0143,194.3031,74.2118z"/>
<path id="svg_511" class="st3" d="M168.5093,0.8068c3.7072-0.1577,9.6517,1.5773,12.9576,3.7499
	c1.7934,1.1776,3.3253,2.6528,4.6039,4.4254c-3.281-2.7331-8.1049-2.6071-10.5792-0.1329
	c-3.3985,3.1952-5.0591,4.3895-8.4536,3.1869c-1.7463-0.7556-2.5296-3.1758-5.9311-5.5767c0.043-0.0775,0.1315-0.2214,0.1772-0.31
	c0.1646,0.1024,0.3197,0.2021,0.4871,0.31c1.2011-2.1975,1.6387-5.0699,5.1439-5.5197
	C167.4437,0.8719,167.9792,0.8291,168.5093,0.8068L168.5093,0.8068z"/>
<path id="svg_508" class="st4" d="M189.5981,68.6156c-3.3972-6.5979-6.2921-13.1917-6.2921-22.1879"/>
<path id="svg_507" class="st4" d="M175.5125,46.4277c0,8.9962,1.1969,15.59,3.3944,18.99"/>
<path id="svg_508_1_" class="st4" d="M157.0234,68.6156c3.3973-6.5979,6.2908-13.1917,6.2908-22.1879"/>
<path id="svg_507_1_" class="st4" d="M171.1091,46.4277c0,8.9962-1.1984,15.59-3.3959,18.99"/>
<path id="svg_506" class="st3" d="M162.3165,17.6446c-2.4024-1.2025-4.7803,2.1975-3.5806,5.5962
	c-1.5589-6.9384-5.9664-9.4417-8.168-10.6429c-3.1468-1.6315-4.9041-0.2808-7.2455,0.4189
	C147.4941,8.8852,158.9178,9.8469,162.3165,17.6446z"/>
<path id="svg_505" class="st5" d="M168.9103,158.5643l-13.3939,60.9745l4.3964,4.3963l4.6025-3.3986l7.5958-54.3723l-3.2008,54.3723
	l4.3991,5.5961l4.3991-5.5961l-3.1994-54.3723l7.5971,54.3723l4.5984,3.3986l4.4005-4.3963l-13.3953-60.9745
	C174.7762,158.5643,171.8439,158.5643,168.9103,158.5643z"/>
<path id="svg_503" class="st6" d="M94.5406,63.0181L94.5406,63.0181c-2.1989,0-7.7978,3.3987-10.9958,5.5975l-6.7985,160.9129
	l11.1962-9.9911L94.5406,63.0181L94.5406,63.0181z"/>
<path id="svg_501" class="st6" d="M107.9343,74.2131c-1.1969-1.1996-7.795-6.5965-9.9951-8.794l-6.7973,151.1791l11.1937-11.4551
	L107.9343,74.2131L107.9343,74.2131z"/>
<path id="svg_499" class="st6" d="M112.3363,77.6118l-5.5989,124.5879l8.996-8.7913l4.3965-109.2014
	C118.9287,83.0087,114.531,79.8106,112.3363,77.6118z"/>
<path id="svg_497" class="st6" d="M133.3258,89.8045c-2.2003,0-6.5966-2.3981-8.7982-3.3973l-4.3977,103.6012l8.7968-7.1348
	L133.3258,89.8045L133.3258,89.8045z"/>
<path id="svg_504_1_" class="st6" d="M136.7258,90.8049l-3.3987,85.3571l8.9934-8.7982l3.2021-77.5593
	C144.5208,90.8049,138.9219,90.8049,136.7258,90.8049z"/>
<path id="svg_503_1_" class="st6" d="M252.0769,63.0181L252.0769,63.0181c2.1975,0,7.7962,3.3987,10.9956,5.5975l6.7972,160.9129
	l-11.1962-9.9911L252.0769,63.0181L252.0769,63.0181z"/>
<path id="svg_501_1_" class="st6" d="M238.6885,74.2131c1.1957-1.1996,7.7936-6.5965,9.9939-8.794l6.7971,151.1791l-11.1935-11.4551
	L238.6885,74.2131L238.6885,74.2131z"/>
<path id="svg_499_1_" class="st6" d="M234.2881,77.6118l5.5987,124.5879l-8.996-8.7913L226.4945,84.207
	C227.6956,83.0087,232.0933,79.8106,234.2881,77.6118z"/>
<path id="svg_497_1_" class="st6" d="M213.2943,89.8045c2.2003,0,6.598-2.3981,8.7982-3.3973l4.3978,103.6012l-8.7969-7.1348
	L213.2943,89.8045L213.2943,89.8045z"/>
<path id="svg_495" class="st7" d="M168.9116,160.7686l-15.5913,70.9628l-36.5863-5.5988l26.5884-94.349L168.9116,160.7686z"/>
<path id="svg_494" class="st7" d="M177.7098,160.7686l15.5941,70.9628l36.5836-5.5988l-26.587-94.349L177.7098,160.7686z"/>
<path id="svg_491" class="st4" d="M191.6032,155.2514l17.2865,16.5102l3.198-7.795"/>
<path id="svg_490" class="st8" d="M193.405,201.1217l-12.1484-18.4516 M193.6029,201.1715l8.2086,12.767l4.3977-13.3952
	l7.9957,13.1475l5.794-21.2524l-11.3929-11.6848l-3.5688,12.7088l-8.1396-11.022l-3.393,18.7063l-3.8885,18.3921"/>
<path id="svg_491_1_" class="st4" d="M155.0114,155.2514l-17.2879,16.5102l-3.198-7.795"/>
<path id="svg_470" class="st4" d="M161.1139,163.9666l-10.9956,14.3915l-3.6174-33.9267"/>
<path id="svg_460" class="st4" d="M162.7233,190.2921l-6.0071-20.7294"/>
<path id="svg_490_1_" class="st8" d="M152.9274,201.1217l12.1483-18.4516 M152.7281,201.1715l-8.2087,12.767l-4.3977-13.3952
	l-7.9942,13.1475l-5.7941-21.2524l11.3915-11.6848l3.5688,12.7088l8.1396-11.022l3.3945,18.7063l3.8884,18.3921"/>
<path id="svg_489" class="st4" d="M147.7214,231.7314l-4.399-13.3966l-6.598,11.1937l-4.8115-15.9664l-7.3853,10.373"/>
<path id="svg_489_1_" class="st4" d="M199.1961,231.7314l4.4006-13.3966l6.5966,11.1937l4.8115-15.9664l7.3853,10.373"/>
<path id="svg_487" class="st9" d="M135.5246,226.1326c-8.7968-1.1984-17.5936-3.3987-24.3922-5.5975
	c-4.395-0.9963-9.9953,5.5975-2.1989,8.992c7.7991,2.203,19.9932,4.4005,25.592,5.4009c6.598,1.2012,18.7948,2.1975,26.5884,1.2012
	c8.7968-1.2012,5.5961-8.7968,1.2026-8.7968C154.5173,228.3301,144.5194,227.3324,135.5246,226.1326L135.5246,226.1326z"/>
<path id="svg_486" class="st9" d="M235.485,220.5351c4.4006-0.9963,9.9966,5.5975,2.1975,8.992
	c-7.795,2.203-19.9891,4.4005-25.5907,5.4009c-6.5938,1.2012-18.7879,2.1975-26.5856,1.2012
	c-8.7982-1.2012-5.5989-8.7968-0.9991-8.7968c7.5985,0.9977,17.591,0,26.5898-1.1998
	C219.8909,224.9342,228.6878,222.7339,235.485,220.5351z"/>
<path id="svg_485" class="st1" d="M106.7374,228.3301c-1.0006,2.1988-5.6003,2.1988-6.5981,4.3977
	c-2.2001-4.3977,0.9978-12.1913,7.7936-10.9916C105.7368,224.9342,107.9329,224.9342,106.7374,228.3301z"/>
<path id="svg_484" class="st9" d="M131.1242,232.7264c0-2.1989,2.2002-4.3963,4.4004-4.3963c2.1989,0,3.3959,3.4,3.3959,5.5975
	c0,4.399-4.3963,3.858-4.3963,8.2516C134.5242,237.787,130.1237,237.1255,131.1242,232.7264z"/>
<path id="svg_483" class="st9" d="M163.3142,236.1305c0,2.1961,5.5961,3.3945,5.5961,6.5939
	c3.2008-4.3978,3.8539-13.1973-2.7385-13.1973C168.3665,232.7278,163.3142,232.7278,163.3142,236.1305z"/>
<path id="svg_482" class="st1" d="M239.8856,228.3301c0.999,2.1988,5.596,2.1988,6.5979,4.3977
	c2.2002-4.3977-1.0004-12.1913-7.7977-10.9916C240.886,224.9342,238.6858,224.9342,239.8856,228.3301z"/>
<path id="svg_481" class="st9" d="M215.4946,232.7264c0-2.1989-2.2016-4.3963-4.3991-4.3963c-2.1989,0-3.3973,3.4-3.3973,5.5975
	c0,4.399,4.3936,3.858,4.3936,8.2516C212.0918,237.787,216.4938,237.1255,215.4946,232.7264z"/>
<path id="svg_480" class="st9" d="M183.3032,236.1305c0,2.1961-5.5961,3.3945-5.5961,6.5939
	c-3.198-4.3978-3.8525-13.1973,2.7427-13.1973C178.251,232.7278,183.3046,232.7278,183.3032,236.1305z"/>
<path id="svg_479" class="st10" d="M116.7326,226.1326c-0.9992-1.1971-4.3963-2.1975-6.5979-2.1975L116.7326,226.1326z"/>
<path id="svg_478" class="st10" d="M128.9267,229.5271c-2.1975-1.197-6.5966-2.1947-7.7978-2.1947L128.9267,229.5271z"/>
<path id="svg_477" class="st10" d="M153.3203,232.7278c1.197-0.9977,5.5961-0.9977,7.7936-0.9977L153.3203,232.7278z"/>
<path id="svg_476" class="st10" d="M141.1235,231.7301c2.1975-1.2012,6.5979-1.2012,7.795,0H141.1235z"/>
<path id="svg_475" class="st10" d="M229.889,226.1326c1.1997-1.1971,4.4004-2.1975,6.5979-2.1975L229.889,226.1326z"/>
<path id="svg_474" class="st10" d="M217.6948,229.5271c2.199-1.197,6.5981-2.1947,7.7965-2.1947L217.6948,229.5271z"/>
<path id="svg_473" class="st10" d="M193.3039,232.7278c-1.1983-0.9977-5.5961-0.9977-7.7977-0.9977L193.3039,232.7278z"/>
<path id="svg_472" class="st10" d="M205.4995,231.7301c-2.1976-1.2012-6.5995-1.2012-7.7979,0H205.4995z"/>
<path id="svg_471" class="st11" d="M167.7132,8.0522c-2.2002,0-2.2002-3.3973,0-3.3973
	C169.9107,4.6549,169.9107,8.0536,167.7132,8.0522z"/>
<path id="svg_470_1_" class="st4" d="M185.7194,163.9666l10.9956,14.3915l3.6173-33.9267"/>
<path id="svg_468" class="st12" d="M131.7538,89.2856c1.1403,0.2408,2.3413,0.3598,3.5411,0.3598
	c9.4818,0,32.738-6.1164,38.4255-12.3921c5.3082,6.9343,28.0662,12.3921,37.6075,12.3921c1.2012,0,2.3415-0.119,3.5413-0.3598
	c0,0,3.9009,51.249-41.5875,86.2358C127.7934,140.5346,131.7538,89.2856,131.7538,89.2856z"/>
<g id="XMLID_28_">
	<defs>
		<path id="XMLID_29_" d="M211.043,98.6899c-0.4553,6.8304-1.6565,13.683-3.4775,20.2768
			c-5.7387,20.7708-17.4679,38.4268-34.2824,51.8193c-16.8007-13.3814-28.5174-31.0207-34.2422-51.7778
			c-1.8183-6.5938-3.0167-13.4478-3.4664-20.2768c-0.1205-1.8281-0.2215-3.8373-0.2021-5.7746
			c0.3917,0.072,0.7846,0.1203,1.1845,0.1203c8.5076,0,28.9244-4.9442,37.0348-11.0884c7.741,6.652,27.8283,11.0884,36.4756,11.0884
			c0.3958,0,0.7888-0.0125,1.1804-0.0373C211.2616,94.9398,211.162,96.9006,211.043,98.6899z"/>
	</defs>
	<clipPath id="XMLID_2_">
		<use xlink:href="#XMLID_29_"  style="overflow:visible;"/>
	</clipPath>
	<rect id="svg_467" x="125.6513" y="69.8777" class="st13" width="32.8513" height="113.2823"/>
	<rect id="svg_466" x="187.2263" y="69.8777" class="st14" width="34.5964" height="113.2823"/>
</g>
<path id="svg_461" class="st15" d="M211.2491,93.0411c0.0125,1.8987-0.0871,3.8595-0.2061,5.6502
	c-0.4539,6.829-1.6565,13.6816-3.4775,20.2754c-5.7374,20.7723-17.4679,38.4283-34.2824,51.8193
	c-16.8007-13.38-28.5174-31.0207-34.2422-51.7764c-1.8183-6.5952-3.0167-13.4492-3.4664-20.2782
	c-0.1205-1.8281-0.2215-3.836-0.2021-5.7746c0.3917,0.072,0.786,0.1203,1.1845,0.1203c8.5076,0,28.9244-4.9428,37.0348-11.0884
	c7.741,6.652,27.8283,11.0884,36.4756,11.0884C210.4631,93.0771,210.8575,93.0646,211.2491,93.0411L211.2491,93.0411z"/>
<path id="svg_460_1_" class="st4" d="M183.4596,190.2921l6.007-20.7294"/>
<path id="svg_458" class="st6" d="M109.2311,241.3295c0.065-0.0761,0.1784-0.1411,0.2518-0.1411
	c0.1701-0.0014,0.5645-0.739,0.5618-1.0503c-0.0041-0.2699-0.7514-1.0241-1.1597-1.1681c-0.642-0.2268-1.3229,0.2575-1.5498,1.1057
	c-0.1881,0.6975,0.2034,1.2856,0.9465,1.4281C108.6539,241.5758,109.0912,241.4942,109.2311,241.3295z M186.3489,246.8287
	c0.5688-0.44,0.667-1.2136,0.2146-1.684c-0.2506-0.2602-0.919-0.6075-1.1624-0.6062c-0.4941,0.0055-1.2912,0.8844-1.2939,1.424
	c-0.0014,0.2865,0.44,0.905,0.7167,1.0087C185.2336,247.1221,186.0681,247.0432,186.3489,246.8287z M185.3305,250.428
	c0.4553,0.1522,0.4844,0.1508,0.9742-0.0691c0.5576-0.2505,0.9174-0.7459,0.8912-1.2303c-0.0235-0.4497-0.3211-0.7708-0.9895-1.0697
	l-0.4829-0.2145l-0.5093,0.2781c-0.7155,0.3889-0.7804,0.4942-0.7306,1.1694c0.047,0.649,0.2616,0.9369,0.8469,1.1347V250.428z
	 M109.7181,246.1535c-0.1563,0.1356-0.3322,0.2407-0.3903,0.238c-0.6504-0.0568-0.8386-0.137-0.8648-0.3765
	c-0.0235-0.2117,0.054-0.2906,0.4899-0.4981c0.4344-0.2061,0.5618-0.2284,0.7818-0.1356
	C110.0834,245.5307,110.0764,245.8448,109.7181,246.1535L109.7181,246.1535z M121.468,252.2893h-0.0015
	c1.0919,0.368,1.6108,0.2117,1.9623-0.5952c0.1191-0.2767,0.2173-0.588,0.2158-0.6932c-0.0012-0.1024,0.0859-0.4567,0.1925-0.7846
	c0.1079-0.328,0.2671-0.9535,0.3556-1.3935c0.0886-0.4373,0.2533-1.1167,0.368-1.507c0.1135-0.3929,0.27-0.9852,0.3473-1.3159
	c0.0776-0.3322,0.2062-0.7183,0.2852-0.8566c0.1895-0.3336,0.0913-0.75-0.2132-0.901c-0.3833-0.1923-0.7762-0.0372-1.4059,0.5578
	c-0.2324,0.2186-1.1139,0.5715-1.4391,0.5757c-0.7528,0.0068-0.9922,0.7182-0.4179,1.2481c0.3266,0.3003,0.4925,0.804,0.3929,1.1859
	c-0.0331,0.1232-0.1176,0.4817-0.1882,0.7958c-0.0788,0.35-0.2421,0.6946-0.4234,0.8953c-0.2892,0.3168-0.3086,0.3223-0.9562,0.2657
	c-0.364-0.0319-0.8649-0.1454-1.1139-0.2506c-0.2491-0.1051-0.6408-0.1896-0.8705-0.1908c-0.2297,0-0.5369-0.0638-0.6808-0.1426
	c-0.1453-0.0775-0.3335-0.173-0.4207-0.2117c-0.375-0.1675-0.4124-0.5176-0.1162-1.0891c0.112-0.2172,0.2047-0.577,0.2047-0.8012
	c0-0.2227,0.0707-0.5868,0.1565-0.8081c0.0844-0.2215,0.202-0.6062,0.2587-0.8552c0.0568-0.2478,0.1675-0.5246,0.2463-0.6131
	c0.0789-0.0872,0.1413-0.3598,0.1384-0.6032c-0.0028-0.2436,0.0734-0.6615,0.1688-0.9286c0.1578-0.4346,0.1591-0.5107,0.0153-0.7515
	c-0.2311-0.3874-0.512-0.3777-0.9687,0.0332c-0.2172,0.1951-0.4968,0.3861-0.6213,0.4248
	c-0.1246,0.0389-0.3377,0.1565-0.4733,0.2602c-0.1356,0.1053-0.3238,0.191-0.4165,0.191c-0.4483,0.0055-0.923,0.2242-1.0406,0.4774
	c-0.1135,0.2463-0.0941,0.2878,0.2518,0.5563c0.3474,0.2698,0.3736,0.3279,0.3792,0.8593c0.0028,0.3127-0.0608,0.6933-0.1412,0.8455
	c-0.0802,0.1522-0.1771,0.4927-0.2158,0.7543c-0.0402,0.2767-0.1814,0.6157-0.3377,0.8067
	c-0.2574,0.3169-0.2961,0.3334-1.0157,0.3377c-0.9257,0.0096-1.8336-0.2851-2.1421-0.6934
	c-0.1924-0.2518-0.1979-0.3031-0.0623-0.5105c0.083-0.1274,0.1826-0.4581,0.2215-0.7335c0.0386-0.2767,0.13-0.5923,0.2033-0.7044
	c0.072-0.1106,0.162-0.4428,0.1994-0.7347c0.0372-0.2934,0.1522-0.6989,0.2573-0.9023c0.1051-0.202,0.1896-0.512,0.1882-0.685
	c-0.0027-0.1743,0.0636-0.3735,0.1466-0.4414c0.0817-0.0665,0.1786-0.3334,0.2132-0.5909c0.0359-0.2573,0.1218-0.559,0.1924-0.6711
	c0.0706-0.1107,0.1757-0.4858,0.2352-0.8317c0.0595-0.3473,0.1798-0.7015,0.2684-0.7888c0.0873-0.0857,0.1591-0.2588,0.1578-0.3846
	c-0.0014-0.1245,0.0899-0.3335,0.2034-0.4608c0.1301-0.1481,0.2047-0.3792,0.2021-0.6242
	c-0.0015-0.2144,0.0816-0.5576,0.1867-0.7652c0.1052-0.2047,0.2477-0.6684,0.317-1.0296c0.1107-0.5798,0.1051-0.6946-0.0513-0.9783
	c-0.137-0.2477-0.2463-0.3182-0.476-0.3182c-0.1632,0.0026-0.3515,0.0664-0.4178,0.1438c-0.0651,0.0789-0.2837,0.173-0.4858,0.2118
	c-0.2021,0.0387-0.3917,0.1328-0.4207,0.2117c-0.0305,0.0761-0.2629,0.1729-0.5161,0.2103
	c-0.2546,0.0401-0.4843,0.108-0.5134,0.1536c-0.0277,0.0456-0.3571,0.1162-0.732,0.1577c-0.5798,0.0665-0.7142,0.0499-0.8954-0.1037
	c-0.2546-0.2172-1.3602-0.3003-1.7934-0.1356c-0.1826,0.0706-0.3681,0.274-0.5093,0.5618
	c-0.2172,0.4414-0.2186,0.4609-0.0317,0.7846c0.2379,0.4138,0.8759,0.7681,1.3727,0.764c0.3597-0.0043,0.8344-0.2534,1.1928-0.6284
	c0.18-0.1881,0.7514-0.393,1.1002-0.3971c0.1425-0.0015,0.3403,0.1286,0.5105,0.3376c0.3128,0.3874,0.3322,0.4635,0.1495,0.6421
	c-0.1245,0.1218-0.3362,0.822-0.6269,2.0813c-0.0775,0.3307-0.2117,0.739-0.3002,0.9049c-0.0872,0.1661-0.1606,0.436-0.1633,0.6021
	c-0.0028,0.1659-0.1329,0.5285-0.2892,0.8067l-0.2851,0.5037l-0.7293,0.0581c-0.5009,0.0401-0.7846,0.1121-0.9092,0.2338
	c-0.1121,0.1107-0.3403,0.1786-0.5991,0.1827c-0.4401,0.0041-1.2192,0.3792-1.5956,0.768
	c-0.2877,0.2962-0.7735,1.0018-0.7721,1.1195c0,0.054-0.0927,0.1758-0.2062,0.2726c-0.1135,0.0955-0.2076,0.2519-0.209,0.3501
	c0,0.0982-0.0899,0.3584-0.1992,0.5799c-0.2573,0.5258-0.2505,0.8233,0.0276,1.2025c0.3281,0.4497,0.9022,0.7209,1.6745,0.7901
	c0.3694,0.0346,0.8288,0.1466,1.0198,0.2491c0.1911,0.101,0.4388,0.1841,0.548,0.1841c0.1107-0.0014,0.4027,0.0802,0.649,0.184
	c0.2477,0.1023,0.9202,0.3017,1.4974,0.4429c0.5755,0.1425,1.2841,0.3376,1.5718,0.4344c0.955,0.3197,1.2538,0.4083,1.8351,0.5369
	c0.3168,0.0706,0.7887,0.1924,1.0489,0.2712c0.6144,0.1882,2.8851,0.7003,4.3506,0.9826
	C120.3733,251.9958,121.1524,252.1827,121.468,252.2893L121.468,252.2893z M107.9828,252.3404
	c0.3667,0.3459,0.4829,0.3972,0.8926,0.393c0.3902-0.0027,0.5369-0.0651,0.8731-0.3625c0.6795-0.6019,0.649-1.0462-0.1217-1.7477
	c-0.4996-0.4568-0.7653-0.4928-1.2026-0.1675C107.403,251.2167,107.2909,251.6914,107.9828,252.3404L107.9828,252.3404z
	 M113.4543,253.3118c0.245-0.2269,0.2837-0.3418,0.2782-0.8358c-0.0097-0.8772-0.2034-1.0433-1.1998-1.0337
	c-0.8883,0.0097-0.9908,0.0692-1.1706,0.674c-0.198,0.6696,0.1923,1.3491,0.8676,1.5166
	C112.6102,253.7256,113.1651,253.5817,113.4543,253.3118z M236.4025,253.7409c0.3529,0.2933,0.4345,0.3113,1.1416,0.3072
	c0.7196-0.007,0.7791-0.0264,1.0932-0.3363c0.5701-0.5647,0.5923-0.9064,0.1162-1.745c-0.3569-0.6296-0.7445-0.6891-1.6952-0.2588
	c-0.714,0.3238-1.0433,0.7431-1.0392,1.316C236.0234,253.3576,236.087,253.4766,236.4025,253.7409L236.4025,253.7409z
	 M119.5486,254.8644c0.4443-0.5189,0.281-1.0515-0.4857-1.5913c-0.3003-0.2103-0.4359-0.2422-0.8082-0.191
	c-0.2614,0.0346-0.595,0.1771-0.8052,0.3405c-0.3253,0.2559-0.3598,0.3293-0.3543,0.7957c0.0068,0.6074,0.2698,0.9893,0.7762,1.1237
	C118.627,255.5426,119.0753,255.4152,119.5486,254.8644z M148.4148,256.7105c0.3307,0.285,0.4691,0.3363,0.8897,0.3321
	c0.3958-0.0028,0.5481-0.0568,0.7404-0.2574c0.2448-0.2561,0.4234-0.9949,0.44-1.8114c0.0042-0.2201,0.0498-0.4663,0.1024-0.5494
	c0.054-0.0802,0.1176-0.8026,0.1412-1.6052c0.0249-0.804,0.0885-1.5291,0.1425-1.6121c0.054-0.083,0.1066-0.3999,0.1176-0.703
	c0.054-1.4446,0.2021-2.7994,0.3473-3.1647c0.0886-0.2201,0.1606-0.649,0.1592-0.9493c-0.0013-0.4512,0.047-0.595,0.2767-0.8304
	c0.1523-0.1563,0.3252-0.2849,0.3834-0.2849c0.0581-0.0014,0.2353-0.1246,0.3958-0.2727c0.4345-0.4096,0.494-0.3002-0.8455-1.5374
	c-0.3031-0.2809-0.7224-0.7515-0.9314-1.0462c-0.2089-0.296-0.4206-0.5369-0.4719-0.5369
	c-0.1577,0.0028-0.5175,0.5784-0.5146,0.8248c0.0012,0.1301-0.0458,0.393-0.1039,0.5881c-0.0581,0.1923-0.1052,0.7777-0.1037,1.2994
	c0.0012,0.6048-0.0665,1.1887-0.1869,1.6066c-0.1023,0.3625-0.184,0.9147-0.1813,1.2288c0.0029,0.3142-0.0374,0.685-0.0912,0.8262
	c-0.054,0.1397-0.1648,0.9451-0.2479,1.7892c-0.0816,0.8441-0.2158,1.7298-0.296,1.9664c-0.0803,0.2367-0.1454,0.757-0.1425,1.1555
	c0.0014,0.3986-0.0665,0.905-0.1509,1.1263c-0.0831,0.2228-0.1772,0.7805-0.2062,1.2428l-0.0526,0.8385L148.4148,256.7105
	L148.4148,256.7105z M188.8993,255.786L188.8993,255.786c-0.2989,0.0886-0.5466,0.1606-0.5521,0.1592
	c-0.0028-0.0013-0.1204-0.0831-0.2587-0.184c-0.306-0.2214-0.2602-0.5245,0.1411-0.9465c0.2269-0.2367,0.3418-0.2796,0.7057-0.2575
	l0.4358,0.0264l0.036,0.5203l0.0374,0.5217L188.8993,255.786L188.8993,255.786z M185.7249,257.9518h0.0014l0.2366,0.3279
	l1.2455-0.0139c0.9326-0.0082,1.2869-0.047,1.4086-0.1563c0.1647-0.1454,3.1787-0.3999,5.3858-0.4553
	c0.5175-0.0124,1.1278-0.0746,1.3575-0.1384c0.2297-0.0622,0.7694-0.1246,1.2011-0.1369c0.9604-0.0235,1.1181-0.0706,1.204-0.353
	c0.0358-0.1217,0.1328-0.3624,0.2144-0.5369c0.1301-0.2781,0.1286-0.3598-0.0194-0.6877c-0.1134-0.256-0.1743-0.6974-0.1784-1.3908
	c-0.0084-0.7389-0.0581-1.0973-0.1827-1.3145c-0.1231-0.2146-0.1951-0.714-0.256-1.7533c-0.079-1.345-0.1052-1.4751-0.3404-1.727
	c-0.3667-0.3944-0.7556-0.3584-1.3479,0.1245c-0.2642,0.2174-0.5743,0.4221-0.6905,0.4581
	c-0.3391,0.1038-0.8773,0.6462-0.876,0.8773c0.0029,0.3266,0.1827,0.5688,0.4692,0.6353c0.1425,0.0331,0.3847,0.2143,0.5383,0.4025
	c0.2504,0.3087,0.285,0.4526,0.3487,1.4808c0.0927,1.4821,0.0733,1.5152-0.9673,1.6827c-0.447,0.0706-0.8939,0.1729-0.9935,0.2254
	c-0.5979,0.3156-1.4379-0.1245-1.6385-0.8565c-0.0581-0.2144-0.1438-1.0863-0.1909-1.9428
	c-0.0458-0.8538-0.1315-1.7118-0.1883-1.9041c-0.0567-0.1911-0.1591-1.1168-0.2255-2.0536
	c-0.0678-0.9382-0.1716-1.9747-0.2296-2.3055c-0.0596-0.332-0.1399-1.0875-0.18-1.6827c-0.0401-0.5964-0.1176-1.1955-0.173-1.3311
	c-0.1134-0.2767-0.5562-0.4747-0.8511-0.382c-0.1438,0.0443-1.4252,1.2552-2.1448,2.0246
	c-0.0693,0.0733,0.4234,0.6476,0.5549,0.6462c0.0706,0,0.2518,0.1217,0.4027,0.2712c0.2435,0.2436,0.2836,0.3888,0.3653,1.327
	c0.0512,0.5784,0.0817,1.1501,0.0706,1.2704c-0.0125,0.1204,0.054,0.4276,0.1453,0.6808c0.1024,0.2782,0.1744,0.8041,0.1785,1.3299
	c0.0082,0.8192-0.0069,0.8856-0.2657,1.1029c-0.1509,0.1272-0.4013,0.2338-0.5563,0.2352
	c-0.1536,0.0014-0.3653,0.0941-0.4678,0.2062c-0.1023,0.1106-0.2421,0.202-0.3085,0.2034c-0.1716,0.0013-0.988,0.6325-0.9866,0.7638
	c0,0.0595-0.1855,0.2865-0.4124,0.5038c-0.3211,0.3072-0.4152,0.4718-0.411,0.7334c0.0028,0.1854-0.0512,0.4359-0.1177,0.5576
	c-0.0664,0.1205-0.1286,0.5148-0.1341,0.8732c-0.007,0.3585-0.0624,0.9216-0.1219,1.2511
	C185.4966,257.5808,185.5062,257.6501,185.7249,257.9518L185.7249,257.9518z M138.6576,249.6696
	c-0.1605,0.1094-0.4553,0.1565-0.966,0.1536c-0.8052-0.0041-1.2938-0.1785-1.7311-0.6185l-0.2615-0.2643l0.3598-0.2726
	c0.1978-0.1522,0.5466-0.4663,0.775-0.6989c0.7942-0.8108,1.2219-0.7582,1.262,0.1536c0.0221,0.5066,0.2837,0.9536,0.6046,1.0338
	C138.9551,249.2199,138.9329,249.48,138.6576,249.6696L138.6576,249.6696z M141.8985,259.6082v-0.0015
	c0.4123,0.1385,1.3865,0.018,1.7214-0.2131c0.1564-0.1065,0.4276-0.2242,0.6019-0.2601c0.1744-0.036,0.364-0.1481,0.4193-0.2518
	c0.0568-0.1038,0.1606-0.1911,0.2297-0.1911c0.1509-0.0041,0.6919-0.9339,0.6892-1.1873c-0.0014-0.0968,0.0831-0.3348,0.1868-0.5285
	c0.1051-0.1937,0.2158-0.6725,0.2491-1.0656c0.0332-0.393,0.1258-0.8689,0.2062-1.0599c0.0802-0.1896,0.1882-0.7501,0.2407-1.2455
	c0.0526-0.4939,0.1647-1.2828,0.2477-1.7532c0.0845-0.4705,0.1509-1.1624,0.1467-1.5375c-0.0027-0.3778,0.0513-0.7846,0.119-0.9063
	c0.0679-0.1205,0.173-0.9867,0.2338-1.9263c0.0624-0.9797,0.1772-1.8944,0.2686-2.1476c0.0871-0.2422,0.1564-0.739,0.1521-1.1043
	c-0.0041-0.3931,0.0554-0.7833,0.1454-0.9548c0.2117-0.3972,0.1909-1.3507-0.0333-1.5845c-0.0968-0.0996-0.2407-0.1826-0.3197-0.18
	c-0.1507,0.0015-0.732,0.371-0.9132,0.5799c-0.0567,0.0664-0.2919,0.1896-0.5203,0.2726c-0.2297,0.0831-0.6269,0.2283-0.8843,0.3224
	c-0.523,0.1938-0.6213,0.2961-0.6185,0.6602c0.0013,0.1659,0.1426,0.3666,0.422,0.5977l0.4207,0.3474l0.0139,1.2454
	c0.0125,1.0461-0.0139,1.2772-0.1661,1.4419c-0.1439,0.1564-0.1896,0.4538-0.227,1.4834c-0.0262,0.721-0.0982,1.3506-0.1632,1.4267
	c-0.0651,0.0775-0.1633,0.6782-0.2201,1.3382c-0.0567,0.6586-0.1675,1.3796-0.2463,1.6011
	c-0.0789,0.2227-0.1869,0.9908-0.2394,1.7089c-0.0526,0.7183-0.1342,1.3963-0.1827,1.507c-0.0483,0.1121-0.1438,0.3487-0.2131,0.53
	c-0.1314,0.3446-0.458,0.4442-0.7057,0.2117c-0.0691-0.0651-0.2796-0.1661-0.4677-0.2214l-0.3404-0.101l-0.0139-1.2869
	c-0.0125-1.1583-0.0346-1.3009-0.2186-1.4281c-0.1121-0.0775-0.3265-0.1399-0.4774-0.1384
	c-0.1495,0.0014-0.3211-0.0416-0.3805-0.0982c-0.0595-0.0555-0.3876-0.1426-0.7279-0.1911
	c-0.8206-0.1176-1.0102-0.3279-0.9756-1.082l0.0235-0.5563l0.4692-0.1399c0.2587-0.0761,0.9063-0.1466,1.4391-0.1563
	c1.1153-0.0208,1.2759-0.1259,1.2675-0.8455c-0.0069-0.4829-0.1951-1.1527-0.3238-1.1527
	c-0.0511,0.0014-0.1231-0.0872-0.1591-0.1923c-0.0734-0.2132-1.597-1.6952-1.7408-1.6952c-0.1565,0.0028-0.3142-0.584-0.2561-0.9507
	c0.0624-0.3943-0.1687-0.9922-0.5798-1.4986c-0.1328-0.1633-0.3252-0.4027-0.4275-0.5314c-0.3709-0.4594-0.4678-0.512-0.9313-0.5079
	c-0.9259,0.0083-2.0841,0.858-2.6348,1.9346l-0.2892,0.5632l-1.0462,0.2919c-0.5743,0.1606-1.1998,0.4042-1.3879,0.5383
	c-0.4913,0.3557-0.9963,1.0199-1.0669,1.4005c-0.0831,0.4497,0.1841,0.912,0.5618,0.9797c1.0835,0.1896,2.4285,0.912,2.4451,1.3133
	c0.0028,0.0636-0.2725,0.3929-0.613,0.7333c-0.6157,0.6199-0.62,0.6199-1.2219,0.6242c-0.3307,0.0027-0.8856-0.0581-1.2315-0.1343
	c-0.3461-0.0774-0.7486-0.1398-0.8967-0.1412c-0.3072-0.0012-0.8774-0.4414-0.984-0.7611c-0.1258-0.3749-0.2947-1.3546-0.397-2.3081
	c-0.0596-0.5563-0.1648-1.0102-0.2686-1.1471c-0.0926-0.1246-0.1701-0.328-0.1716-0.4485
	c-0.0027-0.2933-0.4954-0.8343-0.7569-0.8302c-0.3543,0.0028-0.5881,0.191-0.6615,0.5314
	c-0.0373,0.1812-0.1328,0.3972-0.2117,0.4802c-0.739,0.7915-0.9354,1.2481-0.7527,1.7602c0.0677,0.1923,0.1841,0.386,0.2559,0.4261
	c0.072,0.0415,0.2395,0.3903,0.371,0.775c0.2254,0.66,0.2309,0.7265,0.0829,1.1402c-0.0858,0.2422-0.1549,0.6103-0.1522,0.8151
	c0.0028,0.2242-0.0788,0.4802-0.2021,0.6324c-0.1133,0.1426-0.2062,0.3211-0.2047,0.3985c0.0014,0.0762-0.1357,0.353-0.3044,0.6131
	c-0.2491,0.3874-0.3626,0.476-0.6089,0.4774c-0.1675,0.0013-0.3584,0.0706-0.4277,0.1494
	c-0.0677,0.0803-0.3777,0.1993-0.6891,0.2644c-0.31,0.0663-0.5645,0.1618-0.5645,0.2131c0.0013,0.1121-0.4872,0.1176-0.7833,0.0096
	c-0.2739-0.101-0.9908,0.2602-0.988,0.4968c0.0056,0.3889,0.4345,0.584,1.5983,0.7292c0.6171,0.0749,1.1679,0.1647,1.2233,0.1952
	c0.0553,0.0333,0.303-0.007,0.5506-0.0872c0.2477-0.083,0.6394-0.1785,0.8691-0.2158c0.5743-0.0928,1.8903-1.2206,2.0647-1.7672
	c0.1259-0.393,0.8801-0.5176,2.5089-0.4055c1.136,0.0775,1.5898,0.1468,2.0009,0.3072c0.1923,0.0748,0.6504,0.1329,1.0198,0.1288
	c0.6394-0.0055,0.6809-0.0222,0.9397-0.353c0.148-0.1923,0.3141-0.4649,0.3694-0.6087c0.0679-0.1759,0.2049-0.281,0.4166-0.3252
	c0.1743-0.036,0.3418-0.1039,0.3722-0.1523c0.0955-0.1508,0.422-0.0982,0.613,0.0997c0.108,0.1134,0.2228,0.4635,0.2754,0.8454
	c0.0761,0.5383,0.1466,0.7003,0.393,0.9079c0.3459,0.2892,0.458,0.3182,1.4406,0.3819c0.4635,0.0304,0.7915,0.1065,0.9174,0.2131
	c0.2061,0.1757,0.2629,0.4857,0.1065,0.5811c-0.2144,0.1315-0.2186,0.6173-0.0082,1.2524c0.1203,0.3626,0.2463,0.7819,0.2794,0.9341
	c0.0346,0.1509,0.1135,0.274,0.1759,0.274c0.1522-0.0014,1.1429,0.6046,1.1444,0.6987
	C141.6093,259.4781,141.7393,259.5542,141.8985,259.6082L141.8985,259.6082z M229.2386,251.9156
	c-0.043-0.0041-0.2782-0.1411-0.5245-0.3017c-0.3765-0.2491-0.4471-0.3487-0.4512-0.6338
	c-0.0055-0.4414,0.4885-0.8358,1.0904-0.8759c0.5191-0.0333,0.8373,0.1218,1.056,0.5175c0.2532,0.458,0.0706,0.7999-0.5772,1.0794
	C229.5485,251.8229,229.2815,251.9197,229.2386,251.9156z M221.4906,251.7772c-0.2753,0.1273-0.5895,0.2297-0.6987,0.2284
	c-0.252-0.0028-0.8857-0.5038-0.8857-0.7044c-0.0014-0.0816-0.0775-0.3584-0.1716-0.6116c-0.1648-0.4471-0.1633-0.472,0.0637-0.7708
	c0.2878-0.3833,0.5203-0.3903,1.1693-0.0319c0.6101,0.3376,1.0239,0.8733,1.0226,1.3284c0,0.2962-0.0539,0.3557-0.4996,0.5606
	V251.7772z M217.775,252.1287h-0.0012c-0.0679,0.3169-0.0679,0.3169-0.7791,0.321c-0.8912,0.0083-1.0047-0.0968-0.9881-0.9229
	c0.0111-0.5259,0.0526-0.6408,0.3404-0.9327c0.4483-0.4512,0.6434-0.4816,1.0212-0.1564c0.2506,0.2145,0.3322,0.3861,0.3958,0.8261
	C217.8069,251.5683,217.811,251.9571,217.775,252.1287L217.775,252.1287z M209.4723,253.6828
	c-0.31,0.1563-1.0075,0.2047-1.2039,0.0816c-0.0637-0.0401-0.1703-0.1689-0.2366-0.2865c-0.0941-0.1688-0.0873-0.2408,0.0332-0.3377
	c0.0844-0.0706,0.1536-0.1659,0.1521-0.2172c0-0.0512,0.1011-0.2269,0.2242-0.3916c0.4083-0.5411,1.2468-0.3446,1.3853,0.3253
	C209.9178,253.2981,209.8321,253.5001,209.4723,253.6828L209.4723,253.6828z M222.6834,254.8769
	c-0.1881,0.144-1.2108,0.1689-1.5636,0.0374c-0.1565-0.0581-0.2381-0.173-0.2381-0.3404c-0.0027-0.1965,0.0928-0.2975,0.4332-0.4595
	c0.5688-0.2725,1.125-0.2753,1.4281-0.0096c0.2573,0.227,0.2338,0.5438-0.0596,0.7708V254.8769z M206.4805,259.7119
	c0.0388,0.036,0.6062,0.0582,1.2593,0.054c0.9811-0.0097,1.2578-0.0471,1.5747-0.2131c0.2118-0.1107,0.6186-0.3044,0.905-0.4318
	c0.6089-0.2725,1.4641-1.1029,1.5512-1.5083c0.0347-0.1536,0.1288-0.3348,0.2105-0.4041c0.0955-0.0761,0.148-0.3128,0.1438-0.6601
	c-0.0082-0.6531,0.1869-0.8883,0.8289-1.0004c0.2436-0.0402,0.595-0.1384,0.7777-0.2131c0.1841-0.0775,0.7529-0.1896,1.2634-0.2505
	c0.5093-0.061,1.1376-0.1563,1.3963-0.2131c0.2574-0.0581,0.7625-0.1093,1.1223-0.1148c0.5175-0.0084,0.696,0.029,0.8648,0.1867
	c0.1149,0.1094,0.2117,0.245,0.2117,0.3031c0.0043,0.2975,0.6602,1.37,0.9742,1.5899c0.5121,0.3571,1.3229,0.692,1.6745,0.6879
	c0.1743-0.0029,0.3819,0.0802,0.4857,0.1951c0.2823,0.3099,0.6877,0.2448,1.1582-0.1868c0.2284-0.2104,0.6546-0.5868,0.948-0.8373
	c0.2919-0.2518,0.577-0.5494,0.6324-0.6586c0.0552-0.1107,0.1632-0.3101,0.2393-0.4414c0.0761-0.1315,0.1675-0.6837,0.2007-1.2289
	l0.065-0.9895l0.3792-0.1092c0.851-0.2422,1.2329-0.2505,1.5665-0.0264c0.1729,0.1164,0.3459,0.3432,0.386,0.5052
	c0.0388,0.1632,0.1564,0.3197,0.2587,0.3501c0.1039,0.0304,0.7723,0.0526,1.4835,0.0567c1.2205,0.0014,1.3229-0.0153,1.8128-0.2753
	c0.7085-0.3765,1.6647-1.3769,1.7492-1.8281c0.0664-0.3639,0.1272-0.4027,0.8385-0.5273c0.2297-0.0401,0.4636-0.1051,0.5218-0.1452
	c0.2074-0.1467,1.9081-0.6185,3.1771-0.8801c0.7168-0.1495,1.8087-0.4345,2.4272-0.6339c0.6187-0.1978,1.2108-0.3624,1.3188-0.3638
	c0.1066-0.0015,0.4442-0.1162,0.75-0.2561c0.3058-0.1424,0.638-0.2587,0.7347-0.26c0.0998-0.0014,0.2285-0.0914,0.288-0.2021
	c0.1798-0.3293,0.0082-0.6767-0.4637-0.9382c-0.4373-0.2436-0.7666-0.5467-0.9658-0.8885
	c-0.1634-0.2822-0.6228-0.4995-0.9036-0.4289c-0.1385,0.036-0.4885,0.2837-0.7791,0.5535c-0.5134,0.4733-1.334,0.8427-1.8807,0.8469
	c-0.6295,0.0069-1.7103-0.6518-1.7144-1.042c-0.0014-0.0982-0.0775-0.2561-0.1675-0.3502
	c-0.0913-0.0953-0.2352-0.5036-0.3197-0.9091c-0.083-0.404-0.202-0.9147-0.2614-1.1346c-0.1661-0.6034-0.3765-1.5706-0.4056-1.8516
	c-0.1605-1.5776-0.3168-2.6099-0.4344-2.8562c-0.079-0.1646-0.1772-0.4913-0.2201-0.7251
	c-0.0429-0.2339-0.1204-0.4497-0.1743-0.4816c-0.054-0.0305-0.1619-0.1992-0.2395-0.3749c-0.1853-0.4138-1.0932-1.2497-1.435-1.323
	c-0.1466-0.0304-0.4193-0.1425-0.6074-0.2491c-0.5051-0.2851-2.5823-0.2685-3.7377,0.0305c-0.4594,0.119-1.0102,0.2477-1.226,0.2851
	c-0.2131,0.0373-0.3888,0.1121-0.3888,0.1659c0.0012,0.054-0.1164,0.1523-0.2602,0.216c-0.2062,0.0926-0.2587,0.1896-0.2546,0.4774
	c0.0041,0.2933,0.083,0.4234,0.4248,0.7071c0.2311,0.1896,0.4207,0.3943,0.422,0.4526c0.0014,0.0595,0.1564,0.2947,0.3432,0.523
	c0.2781,0.3403,0.4041,0.4178,0.6835,0.4137c0.1896-0.0028,0.3432-0.047,0.3432-0.0982c-0.0012-0.1744,0.6685-0.7168,0.8899-0.7168
	c0.1203-0.0014,0.303-0.0927,0.4069-0.2048c0.2199-0.2395,0.7181-0.2685,1.0959-0.0638c0.1454,0.0776,0.3819,0.1896,0.5244,0.2506
	c0.6408,0.2643,1.2663,1.2384,1.2773,1.9803c0.0014,0.1536,0.0955,0.6144,0.209,1.0239c0.1134,0.4096,0.2365,1.1721,0.2725,1.6952
	c0.0458,0.6379,0.137,1.0959,0.2824,1.399c0.1176,0.2491,0.2629,0.8012,0.3224,1.2302c0.0609,0.429,0.1577,0.8317,0.2158,0.8994
	c0.1301,0.1481,0.5577,1.3064,0.5577,1.5168c0.0015,0.0857-0.0498,0.1549-0.112,0.1563c-0.0624,0-0.2326,0.0914-0.3778,0.2035
	c-0.5466,0.422-1.6508,0.1341-2.1685-0.5674c-0.2379-0.3225-0.4745-0.4706-1.2661-0.7957c-0.5356-0.22-1.0531-0.3986-1.15-0.3972
	c-0.1772,0.0027-0.638,0.2948-1.0448,0.6642c-0.1231,0.1108-0.4289,0.3847-0.6821,0.6089c-0.6546,0.5798-0.9245,0.948-0.9203,1.262
	c0.0015,0.1509-0.0928,0.3945-0.2104,0.5411c-0.1964,0.2449-0.2767,0.2698-0.9769,0.274c-0.8704,0.0083-0.8371,0.0318-1.3824-0.9493
	c-0.4843-0.8703-1.0116-1.6357-1.1237-1.6357c-0.0483,0.0015-0.0886-0.0581-0.0898-0.13c-0.0015-0.1578-0.4872-0.5079-0.8442-0.6075
	c-0.1425-0.0401-0.3599-0.1315-0.483-0.2048c-0.1232-0.072-0.6531-0.2227-1.179-0.3362c-0.5258-0.1135-0.9881-0.2547-1.0267-0.3142
	c-0.0389-0.0595-0.1094-0.4041-0.1565-0.768c-0.0843-0.6407-0.1632-0.9742-0.505-2.109c-0.2587-0.8592-0.3377-0.9977-0.6158-1.0973
	c-0.2062-0.072-0.339-0.0442-0.6227,0.1329c-0.1993,0.1259-0.364,0.2657-0.3653,0.3113c-0.0014,0.0457-0.2049,0.3197-0.4512,0.6061
	c-0.4815,0.5604-0.7901,1.1016-0.786,1.3853c0.0014,0.0968,0.1329,0.2808,0.2933,0.4095c0.6588,0.5328,0.9771,0.9728,0.9798,1.3548
	c0.0028,0.4455-0.0719,0.5756-0.3833,0.6725c-0.1287,0.0387-0.2919,0.1258-0.3639,0.1923c-0.0706,0.065-0.3252,0.2505-0.5646,0.4097
	c-0.4941,0.3279-1.3174,1.4695-1.4198,1.9622c-0.0374,0.1799-0.1383,0.4691-0.2256,0.6407
	c-0.0913,0.1799-0.1784,0.7056-0.2033,1.2315c-0.0333,0.6768-0.0872,0.948-0.2105,1.0351
	c-0.2186,0.1606-1.4833,0.0734-1.6424-0.1135c-0.0638-0.0746-0.1495-0.3957-0.1896-0.7126
	c-0.0401-0.3168-0.144-0.7555-0.2297-0.9756c-0.0873-0.2213-0.1689-0.5355-0.1745-0.7016c-0.0082-0.166-0.148-0.5037-0.3099-0.75
	c-0.2491-0.3792-0.3405-0.4428-0.5964-0.422c-0.166,0.0124-0.3515,0.0913-0.4123,0.1729c-0.061,0.0803-0.2479,0.1814-0.4166,0.2215
	c-0.4858,0.119-1.2068,0.5134-1.6439,0.9022c-0.2215,0.1965-0.4332,0.3708-0.4706,0.3874
	c-0.0373,0.0167-0.1798,0.2076-0.3154,0.4277c-0.1356,0.2186-0.4512,0.6213-0.6989,0.8952l-0.4512,0.4982l0.0499,1.4766
	l0.0499,1.4765l0.3459,0.3252c0.2837,0.267,0.3984,0.3127,0.6296,0.2546c0.9784-0.245,2.7842-0.3529,2.9019-0.1744
	c0.0386,0.0595,0.0746,0.2865,0.0705,0.5052c-0.0028,0.7873-0.9022,1.6064-1.9332,1.7588c-0.2878,0.0415-0.5922,0.1356-0.678,0.2076
	c-0.0845,0.0718-0.2727,0.1659-0.4152,0.2088c-0.1439,0.0416-0.3183,0.1232-0.3901,0.1786
	C206.3961,259.1086,206.3601,259.5998,206.4805,259.7119L206.4805,259.7119z M198.1874,260.6142
	c0.1979,0.1342,0.4692,0.1549,1.5845,0.1162c1.2606-0.0429,1.3546-0.0595,1.5-0.2726c0.0843-0.1246,0.2297-0.2269,0.3238-0.2283
	c0.2933-0.0028,1.399-0.7805,1.7242-1.2108c0.1688-0.2256,0.3432-0.4124,0.3848-0.4138c0.0415-0.0014,0.1784-0.1951,0.3043-0.4318
	c0.2989-0.5618,0.3806-2.5642,0.1287-3.1633c-0.0871-0.2048-0.1605-0.5882-0.1673-0.8496c-0.007-0.3267-0.0984-0.6187-0.2866-0.919
	c-0.1507-0.2421-0.2753-0.505-0.2767-0.5839c-0.0028-0.2021-0.5175-1.0863-0.7556-1.298c-0.1106-0.0968-0.202-0.2393-0.2034-0.3154
	c-0.0013-0.1925-0.4844-1.0462-0.7832-1.3825c-0.3155-0.3571-0.7832-0.3376-0.9728,0.0415
	c-0.0679,0.1398-0.3391,0.6836-0.6005,1.2109c-0.263,0.5271-0.5522,1.0793-0.6422,1.2287
	c-0.2187,0.3556-0.0678,0.7735,0.3542,0.9784c0.6353,0.3085,1.2593,0.7611,1.4434,1.0462c0.3874,0.5991,0.4414,0.8163,0.4622,1.8529
	c0.0207,1.0143,0.0097,1.071-0.263,1.3892c-0.155,0.1827-0.2822,0.4083-0.2808,0.5024c0,0.0941-0.2657,0.4262-0.5938,0.7362
	c-0.595,0.5646-1.0862,0.8622-1.8142,1.1001c-0.2144,0.0705-0.4842,0.2574-0.5991,0.4152l-0.209,0.2892L198.1874,260.6142
	L198.1874,260.6142z M188.6475,261.2383c0.3804,0.3902,0.4497,0.4207,0.9451,0.4164c0.3667-0.0041,0.5936-0.0607,0.7223-0.1826
	c0.3419-0.3238,0.8234-0.6255,1.1071-0.6975c0.1536-0.0386,0.3044-0.1313,0.3334-0.2088c0.0914-0.2367,0.2131-0.1522,0.2851,0.1951
	c0.0996,0.4801,0.4649,0.7582,1.0752,0.8192c0.4789,0.0484,0.5398,0.0276,0.9272-0.3128c0.4013-0.3556,0.4097-0.3792,0.4041-1.0253
	c-0.0083-0.631-0.0263-0.6739-0.3765-0.9466c-0.2781-0.2172-0.4759-0.2865-0.8247-0.2837
	c-0.5508,0.0029-1.1306,0.3211-1.2178,0.6699c-0.0899,0.361-0.4317,0.3154-1.4391-0.1952c-1.0544-0.5328-1.352-0.5189-1.9635,0.0982
	c-0.3308,0.3335-0.3972,0.4719-0.3931,0.8151C188.2364,260.7415,188.3098,260.8896,188.6475,261.2383L188.6475,261.2383z
	 M179.8548,255.8096L179.8548,255.8096c-0.6877,0.2601-1.3866,0.2131-1.6247-0.1079c-0.1079-0.1454,0.0154-0.5798,0.216-0.7584
	c0.4026-0.3597,0.8454-0.6115,1.0849-0.6115c0.2213-0.0029,0.2726,0.0636,0.3736,0.4718c0.0637,0.2615,0.1453,0.5687,0.1799,0.685
	C180.1356,255.6533,180.0859,255.7224,179.8548,255.8096L179.8548,255.8096z M171.7844,258.8416
	c-0.13,0.0996-0.2851,0.1798-0.3417,0.1798c-0.151,0-0.4885-0.1854-0.7695-0.4249c-0.2338-0.1992-0.2407-0.2489-0.1826-1.1789
	l0.0609-0.9687l-0.2976-0.184c-0.2131-0.1314-0.5355-0.1882-1.1388-0.2034c-0.4623-0.011-1.3825-0.0554-2.0439-0.0969
	c-0.6615-0.0415-1.7132-0.0733-2.3373-0.072c-0.6933,0.0014-1.3256-0.054-1.6217-0.1411c-0.2671-0.0802-0.6048-0.1647-0.7486-0.1882
	c-0.1454-0.0262-0.3432-0.1743-0.4429-0.3307c-0.1703-0.2713-0.1689-0.3017,0.0083-0.5895c0.3777-0.6089,1.417-0.8055,2.9806-0.5604
	c0.4208,0.0677,0.8304,0.0691,1.1749,0.0055c0.3806-0.072,0.6408-0.0624,0.9314,0.0276c0.2213,0.0693,1.3076,0.162,2.4133,0.2035
	c1.9249,0.0775,2.0217,0.09,2.2916,0.3252l0.2823,0.2463l0.0096,1.8862c0.0098,1.8418,0.0043,1.8901-0.2283,2.066V258.8416z
	 M170.9015,262.056L170.9015,262.056h-0.0013c0.0013,0.0471,0.0706,0.0873,0.1549,0.0859c0.1689-0.0014,0.9535-0.3736,1.1984-0.5688
	c0.0858-0.0677,0.2726-0.1577,0.4166-0.202c0.4455-0.1328,1.1374-0.6572,1.1998-0.9092c0.0331-0.1328,0.1493-0.3195,0.2573-0.4165
	c0.1274-0.1106,0.1992-0.3086,0.1937-0.5479c-0.0082-0.7709,0.0859-0.977,0.4788-1.0517c0.198-0.0374,1.8819-0.0831,3.7418-0.0982
	l3.3807-0.0292l0.3266-0.4289l0.3265-0.4276l-0.0622-1.3036c-0.0346-0.7181-0.1149-1.424-0.1786-1.5719
	c-0.0636-0.1468-0.1495-0.7335-0.1896-1.3037c-0.0982-1.3754-0.1438-1.5927-0.3943-1.8749
	c-0.1745-0.1966-0.2989-0.2353-0.6989-0.216c-0.3127,0.0139-0.5631,0.09-0.6987,0.2131c-0.1966,0.1771-1.0241,0.4553-1.7755,0.5964
	c-0.1729,0.0319-0.4069,0.1399-0.5202,0.2381c-0.1135,0.0982-0.3087,0.2103-0.4332,0.2463
	c-0.3391,0.1024-1.0656,0.8386-1.2427,1.2552c-0.0843,0.2006-0.2144,0.4137-0.2892,0.4718
	c-0.0733,0.0567-0.1522,0.3709-0.1743,0.6961c-0.0457,0.685-0.2132,0.8676-0.804,0.8717c-0.674,0.0055-0.764-0.1909-0.7916-1.7324
	l-0.0221-1.3368l-0.3183-0.2975c-0.3058-0.2879-0.3653-0.3016-1.6231-0.3736c-0.7183-0.0416-1.6592-0.0749-2.0896-0.0706
	c-0.4317,0.0027-0.8359-0.0278-0.8995-0.0651c-0.1647-0.101-1.4626-0.1633-3.7833-0.1799c-1.68-0.0137-2.048-0.0429-2.2059-0.1771
	c-0.1037-0.09-0.3029-0.1619-0.4428-0.1633c-0.1383,0-0.3763-0.1038-0.5285-0.2282c-0.2491-0.2076-0.281-0.3142-0.3336-1.1127
	c-0.0526-0.7846-0.0871-0.905-0.314-1.0779c-0.3487-0.2671-1.1652-0.1786-1.7105,0.1853c-0.2172,0.144-0.4344,0.263-0.4815,0.263
	c-0.047,0.0013-0.202,0.1993-0.346,0.44c-0.2629,0.4414-0.3348,0.9535-0.1577,1.1264c0.1329,0.1301,0.6531,1.5637,0.6559,1.8072
	c0.0014,0.108-0.0456,0.2451-0.1037,0.3017c-0.0568,0.0569-0.1301,0.4844-0.1606,0.9493c-0.0803,1.2192-0.0899,1.2331-0.9991,1.1542
	c-0.8649-0.072-0.9576-0.1232-1.125-0.62c-0.0678-0.2035-0.191-0.5093-0.274-0.6823c-0.083-0.1743-0.1522-0.3833-0.1522-0.4676
	c-0.0028-0.1924-0.5412-1.4434-0.9341-2.1643c-0.2546-0.4691-0.346-0.5549-0.624-0.577c-0.2921-0.025-0.3655,0.029-0.6975,0.5217
	c-0.2035,0.3015-0.6034,0.7859-0.8899,1.0765c-0.6531,0.6643-0.667,0.8981-0.083,1.3894c0.4636,0.3916,0.6076,0.649,1.0144,1.8155
	c0.3958,1.1306,0.4234,1.4073,0.1909,1.8626c-0.1107,0.2173-0.2297,0.5535-0.2643,0.7486
	c-0.0346,0.1966-0.1508,0.4291-0.2573,0.5189c-0.1066,0.09-0.2104,0.2035-0.2311,0.2506c-0.0706,0.1646-0.966,0.8191-1.4904,1.0918
	c-0.4373,0.2268-0.6573,0.2712-1.4073,0.2837c-1.3507,0.0221-1.6994,0.1092-1.8211,0.4497
	c-0.0831,0.2367-0.0665,0.3099,0.1024,0.4248c0.1107,0.0761,0.3445,0.1371,0.5204,0.1357c0.1771-0.0015,0.4551,0.0636,0.6212,0.1438
	c0.4207,0.2049,3.0346,0.1799,3.4111-0.0318c0.1425-0.0816,0.3654-0.1951,0.494-0.2519c0.2782-0.1258,0.8151-0.4954,1.0808-0.7458
	c0.1037-0.0983,0.2352-0.1771,0.2933-0.1785c0.0568,0,0.1039-0.0485,0.1024-0.1052c0-0.0581,0.1772-0.3417,0.3944-0.6324
	c0.216-0.2892,0.4442-0.6711,0.5064-0.8496c0.0624-0.18,0.2091-0.4263,0.3267-0.5508c0.3113-0.3279,1.2024-0.3598,3.5384-0.1301
	c1.0752,0.1066,2.6361,0.227,3.4705,0.2698c1.3299,0.0679,3.1343,0.2657,3.8457,0.4207c0.1729,0.0388,0.2393,0.1246,0.2393,0.3266
	c0.007,0.4054,0.2712,1.2481,0.4954,1.5803c0.3224,0.4774,0.8496,0.9036,1.4669,1.1859
	C170.6401,261.8472,170.9002,262.0063,170.9015,262.056L170.9015,262.056z"/>
</svg>
