<?xml version="1.0" encoding="utf-8"?>
<!-- Generator: Adobe Illustrator 22.1.0, SVG Export Plug-In . SVG Version: 6.00 Build 0)  -->
<svg version="1.1" id="Layer_1" xmlns="http://www.w3.org/2000/svg" xmlns:xlink="http://www.w3.org/1999/xlink" x="0px" y="0px"
	 viewBox="0 0 179.1439 318.2395" style="enable-background:new 0 0 179.1439 318.2395;" xml:space="preserve">
<style type="text/css">
	.st0{fill:#FFFFFF;stroke:#CE952B;stroke-width:2.909;stroke-linecap:round;stroke-linejoin:round;}
	.st1{fill:#FFFFFF;stroke:#CE952B;stroke-width:1.5542;stroke-linecap:round;stroke-linejoin:round;}
	.st2{fill:#FFFFFF;stroke:#CE952B;stroke-width:1.4545;stroke-linecap:square;}
	.st3{fill:#CE952B;stroke:#CE952B;stroke-width:0.7272;stroke-linecap:round;stroke-linejoin:round;}
	.st4{fill:none;stroke:#CE952B;stroke-width:1.5544;stroke-linecap:round;stroke-linejoin:round;}
	.st5{fill:#CE952B;stroke:#CE952B;stroke-width:1.3139;stroke-linecap:square;}
	.st6{fill:#CE952B;}
	.st7{fill:#FFFFFF;stroke:#CE952B;stroke-width:1.4545;stroke-linecap:round;stroke-linejoin:round;}
	.st8{fill:none;stroke:#CE952B;stroke-width:1.5546;stroke-linecap:round;stroke-linejoin:round;}
	.st9{fill:#FFFFFF;stroke:#CE952B;stroke-width:1.5544;stroke-linecap:round;stroke-linejoin:round;}
	.st10{fill:#FFFFFF;stroke:#CE952B;stroke-width:1.0908;stroke-linecap:round;stroke-linejoin:round;}
	.st11{fill:#FFFFFF;stroke:#FFFFFF;stroke-width:1.5542;stroke-linecap:round;stroke-linejoin:round;}
	.st12{fill:#FFFFFF;stroke:#CE952B;stroke-width:0.4614;}
	.st13{clip-path:url(#XMLID_2_);fill:#ED1C24;}
	.st14{clip-path:url(#XMLID_2_);}
	.st15{fill:none;stroke:#CE952B;stroke-width:0.7449;}
</style>
<polygon id="XMLID_59_" points="8.6441,275.8337 6.835,279.2798 10.7407,281.3543 12.6293,277.8825 8.6441,275.8337 "/>
<polygon id="XMLID_58_" points="3.1214,278.0266 1.3447,281.5224 5.2504,283.5472 7.0751,280.0513 3.1214,278.0266 "/>
<path id="XMLID_55_" d="M18.7276,306.6908v-4.1953h-3.4412c-0.5443,0-1.0565-0.8355-1.5528-2.5065
	c-0.32-1.0933-0.6881-2.7804-1.0883-5.0629l-0.7202-4.1473c-0.2243-0.9955-0.4166-1.9591-0.5924-2.8923
	c-0.1598-0.9316-0.3361-1.8967-0.4959-2.8923c-0.4963,0.5777-0.8967,1.1412-1.2005,1.6871
	c-0.3681,0.6754-0.5602,1.2852-0.5602,1.8327c0,0.128,0.0639,0.4657,0.1598,1.0115c0.1122,0.5475,0.1761,0.8852,0.2082,1.0132
	c-2.7051,1.2534-4.9462,2.7212-6.7549,4.3986C0.8965,296.618,0,298.1482,0,299.5312c0,0.3858,0.6087,0.7026,1.841,0.9523
	c1.2327,0.2482,2.7691,0.373,4.6099,0.373c0.8321,0,1.6008-0.2481,2.3366-0.7475c0.7527-0.4978,1.3607-1.1973,1.841-2.0969
	c0.4004,2.3306,0.9285,4.2354,1.5846,5.7143c0.8801,1.9752,1.9047,2.9644,3.0733,2.9644H18.7276L18.7276,306.6908z
	 M10.3081,295.9137c-0.864,1.0132-1.7763,1.5206-2.7367,1.5206c-0.8005,0-1.4087-0.0416-1.857-0.1216
	c-0.464-0.0801-0.8482-0.1921-1.1844-0.3378c0.5443-0.8835,1.2167-1.5942,2.0168-2.1336c0.8163-0.5378,1.905-1.0565,3.3134-1.5542
	L10.3081,295.9137L10.3081,295.9137z"/>
<path id="XMLID_54_" d="M30.7805,300.8085c0-2.8604-0.2241-4.9092-0.6563-6.1481c-0.288-0.8195-1.0082-1.9592-2.1607-3.4222
	l-1.8886,3.9296c1.2163,1.3013,1.9684,2.2985,2.2728,2.9884c0.4482,0.9972,0.6721,2.4442,0.6721,4.3393H17.0313v4.1953h13.7492
	V300.8085L30.7805,300.8085z"/>
<path id="XMLID_53_" d="M27.2269,285.0294c-0.1598,0.0256-0.416,0.0368-0.7679,0.0368c-0.5285,0-1.1688-0.208-1.905-0.6275
	c-0.7521-0.4177-1.1204-0.7459-1.1204-0.9876c0-0.1937,0.1602-0.3617,0.5123-0.5058c0.3519-0.1457,0.6882-0.2177,1.0403-0.2177
	c0.5924,0,1.1204,0.2257,1.6167,0.6755c0.1762-0.2897,0.3204-0.5506,0.4163-0.7843c0.0956-0.2321,0.144-0.461,0.144-0.6867
	c0-0.3537-0.1121-0.6387-0.3523-0.8563c-0.2239-0.2161-0.5125-0.3249-0.8323-0.3249c-0.72,0-1.5524,0.4977-2.4967,1.495
	c-0.8646,0.8996-1.2808,1.599-1.2808,2.0968c0,0.3377,0.1602,0.6595,0.4959,0.9652c0.2564,0.24,0.6405,0.4898,1.1368,0.7475
	c-1.6007,0.5618-2.401,1.2132-2.401,1.9528l4.4815-1.5431c0.6727-0.2417,1.1848-0.4658,1.5209-0.6754
	c0.4963-0.3218,0.7364-0.6835,0.7364-1.0853C27.6912,284.8981,27.3711,285.0054,27.2269,285.0294L27.2269,285.0294z"/>
<path id="XMLID_52_" d="M42.8332,300.8085c0-2.8604-0.224-4.9092-0.6562-6.1481c-0.288-0.8195-1.0082-1.9592-2.1608-3.4222
	l-1.8888,3.9296c1.2165,1.3013,1.9687,2.2985,2.2731,2.9884c0.4483,0.9972,0.6722,2.4442,0.6722,4.3393H29.0998v4.1953h13.7334
	V300.8085L42.8332,300.8085z"/>
<polygon id="XMLID_51_" points="38.7358,309.4631 36.9269,312.9109 40.8325,314.9837 42.721,311.512 38.7358,309.4631 "/>
<polygon id="XMLID_50_" points="33.2137,311.6576 31.437,315.1534 35.3423,317.1782 37.167,313.6824 33.2137,311.6576 "/>
<path id="XMLID_49_" d="M54.8864,300.8085c0-2.8604-0.2083-4.9092-0.6565-6.1481c-0.288-0.8195-1.0084-1.9592-2.1608-3.4222
	l-1.8889,3.9296c1.2165,1.3013,1.9688,2.2985,2.273,2.9884c0.448,0.9972,0.6724,2.4442,0.6724,4.3393h-11.973v4.1953h13.7338
	V300.8085L54.8864,300.8085z"/>
<polygon id="XMLID_48_" points="48.4196,310.5004 46.6429,314.0201 50.5486,316.045 52.4214,312.5491 48.4196,310.5004 "/>
<path id="XMLID_47_" d="M65.1147,301.9657l-2.8496-18.9003l1.1529,0.3857c0.1758-0.4498,0.336-1.1332,0.4638-2.0488
	c0.1278-0.9172,0.1919-1.7767,0.1919-2.5803c-0.816-0.3216-1.6327-0.6418-2.433-0.9635c-1.0403-0.4657-1.5686-1.1653-1.5686-2.0985
	l-0.3681-0.264c-0.3838,0.9156-0.6722,1.8599-0.8644,2.8315c-0.1919,0.9732-0.288,2.0136-0.288,3.1228l1.2485,0.6019l2.8812,20.4433
	h-9.476v4.1953h11.9094V301.9657L65.1147,301.9657z"/>
<path id="XMLID_46_" d="M71.8369,293.3351c-0.2243-2.5547-0.5283-5.4246-0.9285-8.6067c-0.4001-3.182-0.7198-5.6886-0.9761-7.5214
	c-0.3682,0.7235-0.7523,1.495-1.1685,2.3146c-0.4162,0.8195-0.7843,1.583-1.1047,2.2905c0.2724,2.0568,0.5283,4.0736,0.7522,6.0504
	c0.3686,3.2637,0.6886,6.3929,0.9606,9.391c0.256,2.9964,0.3845,5.3317,0.3845,7.0027c0,0.2097-0.0164,0.6195-0.0484,1.2294
	c-0.0481,0.6114-0.0962,1.1492-0.1439,1.615l0.4479,0.2417c0.8003-1.399,1.313-2.4186,1.553-3.062
	c0.4798-1.2054,0.7042-2.4506,0.7042-3.7375C72.2692,298.9197,72.1249,296.5171,71.8369,293.3351L71.8369,293.3351L71.8369,293.3351
	z"/>
<polygon id="XMLID_45_" points="96.6469,282.1258 94.8379,285.5719 98.7438,287.6464 100.6164,284.1746 96.6469,282.1258 "/>
<polygon id="XMLID_44_" points="91.1247,284.3187 89.3322,287.8145 93.2373,289.8393 95.0782,286.3435 91.1247,284.3187 "/>
<path id="XMLID_41_" d="M102.7454,299.5792c0-1.431-0.9766-2.8204-2.8973-4.1713c-0.5603-0.4018-2.3048-1.3654-5.2021-2.8923
	l-1.4724,4.0735l0.3521,0.0961c-0.528,1.2709-1.0407,2.5322-1.5682,3.7855c-0.5608,1.4791-0.8328,2.7804-0.8328,3.9056
	c0,0.9812,0.4322,1.7351,1.3283,2.2665c0.7683,0.4658,1.7452,0.6995,2.9132,0.6995c3.0415,0,5.122-0.8836,6.2584-2.6523
	C102.3773,303.5488,102.7454,301.8457,102.7454,299.5792L102.7454,299.5792z M100.6484,301.4599
	c0,0.4178-0.5283,0.8788-1.6006,1.3862c-1.0563,0.5058-2.0328,0.7587-2.9293,0.7587c-0.7839,0-1.3923-0.2289-1.8566-0.6866
	c-0.4482-0.4578-0.6882-1.0965-0.6882-1.9161c0-0.5634,0.224-1.1588,0.6882-1.7847c0.1442-0.1936,0.576-0.6835,1.297-1.4709
	c0.8636,0.4177,1.68,0.8435,2.4326,1.2773C99.752,300.037,100.6484,300.8485,100.6484,301.4599L100.6484,301.4599z"/>
<path id="XMLID_40_" d="M126.4189,300.8325c0-1.7031-0.3525-3.2461-1.0567-4.6291c-0.6401-1.2213-1.6006-2.4425-2.9293-3.6639
	l-1.3763,3.7855c1.0879,1.1894,1.9207,2.3466,2.5131,3.4719c0.7366,1.3973,1.1044,2.7323,1.1044,4.0016
	c0,1.4789-0.7042,3.1372-2.145,4.978c-1.4241,1.8407-3.1533,3.3629-5.1861,4.5682c-2.2247,1.3173-4.3693,1.9768-6.4346,1.9768
	c-0.9281,0-1.9687-0.1088-3.1212-0.325c-1.152-0.2176-2.2567-0.4305-3.3134-0.6386l-0.3998,0.9636
	c1.1364,0.4337,2.2892,0.8676,3.4413,1.3013c1.3607,0.5154,2.5447,0.8932,3.5213,1.1333c1.2806,0.3217,2.4811,0.4834,3.5854,0.4834
	c1.2165,0,2.737-0.5795,4.6097-1.7367c1.9531-1.2054,3.6014-2.6443,4.9144-4.3154c1.5201-1.8967,2.2728-3.7279,2.2728-5.4966
	V300.8325L126.4189,300.8325z"/>
<path id="XMLID_39_" d="M133.1415,293.3351c-0.2243-2.5547-0.5279-5.4246-0.9285-8.6067c-0.4001-3.182-0.7202-5.6886-0.9766-7.5214
	c-0.3681,0.7235-0.7518,1.495-1.1684,2.3146c-0.4158,0.8195-0.7683,1.583-1.1043,2.2905c0.288,2.0568,0.5283,4.0736,0.7526,6.0504
	c0.3677,3.2637,0.6882,6.3929,0.9602,9.391c0.2559,2.9964,0.4005,5.3317,0.4005,7.0027c0,0.2097-0.0324,0.6195-0.0645,1.2294
	c-0.048,0.6114-0.0957,1.1492-0.1442,1.615l0.4483,0.2417c0.8007-1.399,1.3126-2.4186,1.5689-3.062
	c0.4639-1.2054,0.6882-2.4506,0.6882-3.7375C133.5737,298.9197,133.4295,296.5171,133.1415,293.3351L133.1415,293.3351
	L133.1415,293.3351z"/>
<polygon id="XMLID_38_" points="151.2445,282.1978 149.4359,285.7176 153.3253,287.7424 155.1823,284.2466 151.2445,282.1978 "/>
<path id="XMLID_37_" d="M158.7998,300.8325c0-1.7031-0.3525-3.2461-1.0727-4.6291c-0.6241-1.2213-1.6002-2.4425-2.9125-3.6639
	l-1.3771,3.7855c1.0883,1.1894,1.9211,2.3466,2.5131,3.4719c0.7362,1.3973,1.1048,2.7323,1.1048,4.0016
	c0,1.4789-0.7042,3.1372-2.1454,4.978c-1.4244,1.8407-3.1528,3.3629-5.1861,4.5682c-2.2247,1.3173-4.3697,1.9768-6.4346,1.9768
	c-0.9281,0-1.9688-0.1088-3.1211-0.325c-1.1525-0.2176-2.2564-0.4305-3.3131-0.6386l-0.4166,0.9636
	c1.1528,0.4337,2.3053,0.8676,3.4576,1.3013c1.3604,0.5154,2.5292,0.8932,3.5218,1.1333c1.2802,0.3217,2.4806,0.4834,3.585,0.4834
	c1.2005,0,2.737-0.5795,4.61-1.7367c1.9528-1.2054,3.6015-2.6443,4.9137-4.3154c1.5049-1.8967,2.2732-3.7279,2.2732-5.4966V300.8325
	L158.7998,300.8325z"/>
<path id="XMLID_34_" d="M179.1439,305.2439v-2.7484c0-2.2649-0.2404-4.0335-0.7203-5.3029c-0.6084-1.623-1.6166-2.4346-3.025-2.4346
	c-1.3763,0-2.5135,0.8196-3.4095,2.4587c-0.7843,1.4133-1.1685,2.9499-1.1685,4.605c0,1.7991,0.6081,3.094,1.841,3.8799
	c1.0719,0.6915,2.6886,1.0373,4.866,1.0373c-1.2646,1.7047-2.2572,2.9339-2.9457,3.6878c-1.3603,1.4951-2.721,2.6363-4.0978,3.4238
	c-1.7444,0.9972-3.6014,1.495-5.5701,1.495c-0.7843,0-1.6648-0.1169-2.657-0.349c-0.9922-0.2337-1.9363-0.4545-2.8331-0.6643
	l-0.4162,0.8452c1.0567,0.3521,2.0969,0.7139,3.1372,1.0836c1.3126,0.4338,2.3853,0.7395,3.2013,0.9172
	c1.1364,0.2401,2.2251,0.3617,3.2818,0.3617c2.8648,0,5.3943-1.4629,7.5709-4.3873
	C178.1677,310.5324,179.1439,307.8961,179.1439,305.2439L179.1439,305.2439z M177.6237,302.6171
	c-1.601,0-2.7698-0.2048-3.474-0.6145c-0.7042-0.4115-1.0559-1.01-1.0559-1.7976c0-0.4497,0.1594-0.8226,0.4963-1.1204
	c0.3197-0.2977,0.7198-0.4466,1.168-0.4466c0.6241,0,1.1524,0.2577,1.5847,0.7715
	C176.839,300.005,177.2709,301.0741,177.6237,302.6171L177.6237,302.6171z"/>
<path id="svg_515" class="st0" d="M89.6714,235.5627c-24.3955,0-47.7424-1.9305-61.2559-5.7914
	c-5.9676-1.051-5.9676-4.0348-5.9676-7.8982c-5.7927-1.9305-2.8077-8.7728-6.8437-8.7728c4.036,1.0557,4.9132-6.8437,9.8287-5.7892
	c0-6.8472,6.8436-7.7232,12.6351-5.7963c11.7603,3.8634,32.1223,3.8634,51.6045,4.7418c19.4836,0,40.0205-0.8784,51.6059-4.7418
	c5.7915-1.9269,12.6375-1.0509,12.6375,5.7963c4.9143-1.0545,5.7915,6.8449,9.8274,5.7892c-4.0359,0-1.0509,6.8423-6.8436,8.7728
	c0,3.8634,0,6.8472-5.7939,7.8982C137.4162,233.6322,114.0716,235.5627,89.6714,235.5627L89.6714,235.5627z"/>
<path id="svg_514" class="st1" d="M4.8948,201.5136l5.9689-141.2724c0.8796-21.4103,19.4835-16.4972,32.9969-8.7741
	c13.6922,8.7741,29.3134,8.7741,45.8119,2.9815c16.5022,5.7926,32.1211,5.7926,45.8131-2.9815
	c13.516-7.7231,32.1211-12.635,32.9983,8.7741l5.9652,141.2724l-83.7924-77.7859L4.8948,201.5136z"/>
<path id="svg_512" class="st2" d="M108.1028,65.1544c-5.7891-1.0534-10.7059-2.9814-13.5147-7.7208
	c-1.0521,1.9293-3.861,4.7394-4.9143,6.6674c-1.0522-1.928-3.8623-4.7381-4.9144-6.6674
	c-2.8063,4.7394-7.7232,6.6674-13.5147,7.7208c1.9306-1.9293,2.8078-2.9814,4.7382-5.7903
	c-4.7382,2.8089-9.6536,2.8089-12.6375,2.8089c13.6908-12.6375,15.6202-26.326,13.6908-40.8927
	c-1.0533-6.8449-5.8645-9.355-7.3295-10.2211c-1.9609-1.08-3.2766-0.7897-4.4539-0.4316l-1.9085,0.8005
	c0-6.8423,5.1596-9.1497,6.9153-9.1497c2.8063,0,6.3029,1.4524,9.2867,3.3817c1.0557-1.9293,1.4496-4.4488,4.5281-4.8435
	c3.708-0.4763,9.4361,1.0045,12.7528,3.1827c6.2033,4.0748,9.0389,12.0447,7.4146,25.1779
	c-0.8784,7.7244,1.9329,26.1497,11.7616,32.9958c-2.9863,0-7.9019,0-12.64-2.8089
	C105.2952,62.173,106.1735,63.2251,108.1028,65.1544z"/>
<path id="svg_511" class="st3" d="M85.4571,0.7084c3.2547-0.1385,8.4737,1.3847,11.3761,3.2922
	c1.5745,1.0339,2.9195,2.329,4.042,3.8853c-2.8805-2.3996-7.1157-2.289-9.2879-0.1167c-2.9838,2.8053-4.4417,3.8538-7.4219,2.7979
	c-1.5332-0.6633-2.2209-2.7882-5.2072-4.896c0.0377-0.0681,0.1155-0.1945,0.1555-0.2722c0.1446,0.0899,0.2807,0.1774,0.4277,0.2722
	c1.0545-1.9293,1.4387-4.4512,4.5161-4.846C84.5216,0.7655,84.9917,0.7279,85.4571,0.7084L85.4571,0.7084z"/>
<path id="svg_508" class="st4" d="M103.9721,60.2412c-2.9827-5.7926-5.5242-11.5817-5.5242-19.4799"/>
<path id="svg_507" class="st4" d="M91.6055,40.7613c0,7.8982,1.0509,13.6873,2.9802,16.6723"/>
<path id="svg_508_1_" class="st4" d="M75.3731,60.2412c2.9826-5.7926,5.523-11.5817,5.523-19.4799"/>
<path id="svg_507_1_" class="st4" d="M87.7396,40.7613c0,7.8982-1.0521,13.6873-2.9814,16.6723"/>
<path id="svg_506" class="st3" d="M80.0201,15.4911c-2.1091-1.0557-4.1968,1.9294-3.1436,4.9133
	c-1.3686-6.0916-5.2381-8.2894-7.1711-9.344c-2.7627-1.4324-4.3056-0.2466-6.3611,0.3677
	C67.0068,7.8008,77.0362,8.6452,80.0201,15.4911z"/>
<path id="svg_505" class="st5" d="M85.8092,139.2117L74.05,192.7444l3.8598,3.8597l4.0408-2.9837l6.6687-47.7363l-2.8101,47.7363
	l3.8622,4.913l3.8622-4.913l-2.809-47.7363l6.67,47.7363l4.0371,2.9837l3.8635-3.8597l-11.7605-53.5327
	C90.9591,139.2117,88.3848,139.2117,85.8092,139.2117z"/>
<path id="svg_503" class="st6" d="M20.5162,55.3269L20.5162,55.3269c-1.9306,0-6.8461,2.9839-9.6537,4.9143L4.8937,201.5148
	l9.8297-8.7716L20.5162,55.3269L20.5162,55.3269z"/>
<path id="svg_501" class="st6" d="M32.2753,65.1555c-1.0509-1.0532-6.8437-5.7914-8.7753-7.7207l-5.9677,132.7279l9.8275-10.057
	L32.2753,65.1555L32.2753,65.1555z"/>
<path id="svg_499" class="st6" d="M36.14,68.1394l-4.9156,109.3821l7.8981-7.7183l3.8598-95.8735
	C41.9277,72.8776,38.0668,70.0698,36.14,68.1394z"/>
<path id="svg_497" class="st6" d="M54.5677,78.844c-1.9318,0-5.7915-2.1054-7.7244-2.9827l-3.861,90.9568l7.7232-6.264
	L54.5677,78.844L54.5677,78.844z"/>
<path id="svg_504_1_" class="st6" d="M57.5528,79.7223l-2.9839,74.9394l7.8957-7.7244l2.8113-68.0933
	C64.3964,79.7223,59.4808,79.7223,57.5528,79.7223z"/>
<path id="svg_503_1_" class="st6" d="M158.8254,55.3269L158.8254,55.3269c1.9293,0,6.8447,2.9839,9.6536,4.9143l5.9676,141.2736
	l-9.8297-8.7716L158.8254,55.3269L158.8254,55.3269z"/>
<path id="svg_501_1_" class="st6" d="M147.071,65.1555c1.0498-1.0532,6.8424-5.7914,8.7742-7.7207l5.9675,132.7279l-9.8274-10.057
	L147.071,65.1555L147.071,65.1555z"/>
<path id="svg_499_1_" class="st6" d="M143.2077,68.1394l4.9154,109.3821l-7.8981-7.7183l-3.8597-95.8735
	C137.4198,72.8776,141.2807,70.0698,143.2077,68.1394z"/>
<path id="svg_497_1_" class="st6" d="M124.7762,78.844c1.9318,0,5.7927-2.1054,7.7244-2.9827l3.861,90.9568l-7.7232-6.264
	L124.7762,78.844L124.7762,78.844z"/>
<path id="svg_495" class="st7" d="M85.8103,141.147l-13.6884,62.3019l-32.121-4.9155l23.3434-82.8338L85.8103,141.147z"/>
<path id="svg_494" class="st7" d="M93.5347,141.147l13.6909,62.3019l32.1186-4.9155l-23.3421-82.8338L93.5347,141.147z"/>
<path id="svg_491" class="st4" d="M105.7325,136.3032l15.1766,14.4952l2.8077-6.8436"/>
<path id="svg_490" class="st8" d="M107.3143,176.5751l-10.6657-16.1996 M107.4881,176.6188l7.2068,11.2088l3.8609-11.7603
	l7.0198,11.5428l5.0869-18.6585L120.66,158.6929l-3.1331,11.1577l-7.1462-9.6768l-2.979,16.4232l-3.4138,16.1474"/>
<path id="svg_491_1_" class="st4" d="M73.6066,136.3032l-15.1779,14.4952l-2.8077-6.8436"/>
<path id="svg_470" class="st4" d="M78.9643,143.9548l-9.6536,12.635l-3.1759-29.786"/>
<path id="svg_460" class="st4" d="M80.3773,167.0672l-5.274-18.1994"/>
<path id="svg_490_1_" class="st8" d="M71.7769,176.5751l10.6657-16.1996 M71.602,176.6188l-7.2069,11.2088l-3.8609-11.7603
	l-7.0186,11.5428l-5.0869-18.6585l10.0012-10.2587l3.1332,11.1577l7.1462-9.6768l2.9802,16.4232l3.4138,16.1474"/>
<path id="svg_489" class="st4" d="M67.2064,203.4489l-3.8621-11.7616l-5.7928,9.8275l-4.2242-14.0176l-6.484,9.1069"/>
<path id="svg_489_1_" class="st4" d="M112.3987,203.4489l3.8634-11.7616l5.7915,9.8275l4.2243-14.0176l6.4839,9.1069"/>
<path id="svg_487" class="st9" d="M56.4982,198.5334c-7.7232-1.0521-15.4464-2.9839-21.4152-4.9143
	c-3.8586-0.8747-8.7754,4.9143-1.9306,7.8945c6.8473,1.9342,17.5531,3.8635,22.4686,4.7418
	c5.7927,1.0546,16.5009,1.9293,23.3433,1.0546c7.7232-1.0546,4.9131-7.7232,1.0558-7.7232
	C73.1728,200.4627,64.3951,199.5868,56.4982,198.5334L56.4982,198.5334z"/>
<path id="svg_486" class="st9" d="M144.2585,193.6191c3.8635-0.8747,8.7766,4.9143,1.9293,7.8945
	c-6.8436,1.9342-17.5494,3.8635-22.4673,4.7418c-5.7891,1.0546-16.4949,1.9293-23.3409,1.0546
	c-7.7244-1.0546-4.9156-7.7232-0.8772-7.7232c6.6711,0.8759,15.444,0,23.3446-1.0534
	C130.5677,197.4813,138.2909,195.5495,144.2585,193.6191z"/>
<path id="svg_485" class="st1" d="M31.2244,200.4627c-0.8785,1.9305-4.9168,1.9305-5.7928,3.861
	c-1.9316-3.861,0.876-10.7033,6.8424-9.6501C30.3459,197.4813,32.274,197.4813,31.2244,200.4627z"/>
<path id="svg_484" class="st9" d="M52.6348,204.3225c0-1.9306,1.9317-3.8598,3.8634-3.8598c1.9305,0,2.9814,2.9851,2.9814,4.9144
	c0,3.8621-3.8598,3.3871-3.8598,7.2444C55.6198,208.7654,51.7564,208.1847,52.6348,204.3225z"/>
<path id="svg_483" class="st9" d="M80.8961,207.3111c0,1.9281,4.9131,2.9802,4.9131,5.7892
	c2.8101-3.8611,3.3835-11.5867-2.4043-11.5867C85.3317,204.3237,80.8961,204.3237,80.8961,207.3111z"/>
<path id="svg_482" class="st1" d="M148.122,200.4627c0.8771,1.9305,4.9131,1.9305,5.7926,3.861
	c1.9317-3.861-0.8783-10.7033-6.846-9.6501C149.0003,197.4813,147.0686,197.4813,148.122,200.4627z"/>
<path id="svg_481" class="st9" d="M126.708,204.3225c0-1.9306-1.933-3.8598-3.8623-3.8598c-1.9305,0-2.9826,2.9851-2.9826,4.9144
	c0,3.8621,3.8574,3.3871,3.8574,7.2444C123.7205,208.7654,127.5852,208.1847,126.708,204.3225z"/>
<path id="svg_480" class="st9" d="M98.4454,207.3111c0,1.9281-4.913,2.9802-4.913,5.7892
	c-2.8078-3.8611-3.3824-11.5867,2.4079-11.5867C94.0098,204.3237,98.4467,204.3237,98.4454,207.3111z"/>
<path id="svg_479" class="st10" d="M39.9997,198.5334c-0.8772-1.0509-3.8597-1.9293-5.7927-1.9293L39.9997,198.5334z"/>
<path id="svg_478" class="st10" d="M50.7055,201.5136c-1.9293-1.0509-5.7915-1.9268-6.8461-1.9268L50.7055,201.5136z"/>
<path id="svg_477" class="st10" d="M72.1219,204.3237c1.0509-0.8759,4.9131-0.8759,6.8424-0.8759L72.1219,204.3237z"/>
<path id="svg_476" class="st10" d="M61.4137,203.4478c1.9293-1.0546,5.7927-1.0546,6.8436,0H61.4137z"/>
<path id="svg_475" class="st10" d="M139.3455,198.5334c1.0533-1.0509,3.8633-1.9293,5.7926-1.9293L139.3455,198.5334z"/>
<path id="svg_474" class="st10" d="M128.6396,201.5136c1.9306-1.0509,5.7928-1.9268,6.8449-1.9268L128.6396,201.5136z"/>
<path id="svg_473" class="st10" d="M107.2256,204.3237c-1.0521-0.8759-4.9131-0.8759-6.846-0.8759L107.2256,204.3237z"/>
<path id="svg_472" class="st10" d="M117.9327,203.4478c-1.9293-1.0546-5.794-1.0546-6.8461,0H117.9327z"/>
<path id="svg_471" class="st11" d="M84.7582,7.0694c-1.9317,0-1.9317-2.9826,0-2.9826C86.6875,4.0868,86.6875,7.0707,84.7582,7.0694
	z"/>
<path id="svg_470_1_" class="st4" d="M100.5667,143.9548l9.6536,12.635l3.1759-29.786"/>
<path id="svg_468" class="st12" d="M53.1876,78.3884c1.0011,0.2114,2.0555,0.3159,3.1089,0.3159
	c8.3246,0,28.7423-5.3699,33.7357-10.8796c4.6604,6.0879,24.6408,10.8796,33.0176,10.8796c1.0546,0,2.0557-0.1045,3.109-0.3159
	c0,0,3.4248,44.9942-36.5118,75.7109C49.7105,123.3826,53.1876,78.3884,53.1876,78.3884z"/>
<g id="XMLID_28_">
	<defs>
		<path id="XMLID_29_" d="M122.7996,86.6449c-0.3997,5.9968-1.4543,12.013-3.0531,17.8021
			c-5.0382,18.2358-15.3359,33.7369-30.0982,45.4948c-14.7502-11.7482-25.0369-27.2346-30.063-45.4584
			c-1.5964-5.789-2.6485-11.8065-3.0434-17.802c-0.1057-1.605-0.1944-3.3689-0.1774-5.0698c0.3439,0.0632,0.6889,0.1056,1.04,0.1056
			c7.4692,0,25.3942-4.3408,32.5147-9.7351c6.7962,5.8402,24.4319,9.7351,32.0238,9.7351c0.3475,0,0.6925-0.011,1.0364-0.0327
			C122.9916,83.3525,122.9041,85.0741,122.7996,86.6449z"/>
	</defs>
	<clipPath id="XMLID_2_">
		<use xlink:href="#XMLID_29_"  style="overflow:visible;"/>
	</clipPath>
	<rect id="svg_467" x="47.8299" y="61.3493" class="st13" width="28.8418" height="99.4562"/>
	<rect id="svg_466" x="101.8898" y="61.3493" class="st14" width="30.3739" height="99.4562"/>
</g>
<path id="svg_461" class="st15" d="M122.9806,81.6856c0.011,1.6669-0.0765,3.3885-0.181,4.9606
	c-0.3985,5.9955-1.4543,12.0117-3.0531,17.8008c-5.0371,18.237-15.3359,33.7381-30.0982,45.4948
	c-14.7502-11.747-25.0369-27.2346-30.063-45.4571c-1.5964-5.7903-2.6485-11.8078-3.0434-17.8033
	c-0.1057-1.605-0.1944-3.3678-0.1774-5.0698c0.3439,0.0632,0.6901,0.1056,1.04,0.1056c7.4692,0,25.3942-4.3396,32.5147-9.7351
	c6.7962,5.8402,24.4319,9.7351,32.0238,9.7351C122.2905,81.7172,122.6367,81.7062,122.9806,81.6856L122.9806,81.6856z"/>
<path id="svg_460_1_" class="st4" d="M98.5828,167.0672l5.2738-18.1994"/>
<path id="svg_458" class="st6" d="M33.4137,211.8756c0.0571-0.0668,0.1566-0.1239,0.2211-0.1239
	c0.1494-0.0013,0.4956-0.6488,0.4932-0.9221c-0.0036-0.237-0.6597-0.8991-1.0181-1.0255c-0.5637-0.1992-1.1615,0.226-1.3606,0.9707
	c-0.1653,0.6124,0.1785,1.1287,0.8309,1.2538C32.907,212.0918,33.2909,212.0201,33.4137,211.8756z M101.1194,216.7036
	c0.4994-0.3863,0.5856-1.0654,0.1884-1.4785c-0.22-0.2284-0.8068-0.5333-1.0205-0.5322c-0.4338,0.0049-1.1336,0.7764-1.136,1.2502
	c-0.0012,0.2515,0.3863,0.7946,0.6293,0.8856C100.1402,216.9612,100.8729,216.8919,101.1194,216.7036z M100.2253,219.8636
	c0.3997,0.1336,0.4253,0.1324,0.8553-0.0607c0.4896-0.2199,0.8054-0.6549,0.7824-1.0801c-0.0206-0.3948-0.2819-0.6768-0.8687-0.9391
	l-0.424-0.1884l-0.4471,0.2442c-0.6281,0.3414-0.6851,0.4338-0.6415,1.0266c0.0414,0.5698,0.2297,0.8226,0.7436,0.9963V219.8636z
	 M33.8413,216.1108c-0.1372,0.119-0.2916,0.2113-0.3426,0.209c-0.5711-0.0499-0.7363-0.1203-0.7593-0.3306
	c-0.0206-0.1858,0.0474-0.2551,0.4301-0.4373c0.3814-0.181,0.4933-0.2005,0.6863-0.119
	C34.162,215.564,34.1559,215.8398,33.8413,216.1108L33.8413,216.1108z M44.1571,221.4977h-0.0012
	c0.9585,0.3231,1.4141,0.1859,1.7228-0.5225c0.1045-0.243,0.1907-0.5163,0.1894-0.6086c-0.0011-0.0899,0.0754-0.401,0.169-0.6888
	c0.0948-0.288,0.2345-0.8372,0.3122-1.2234c0.0778-0.384,0.2223-0.9805,0.3231-1.3231c0.0997-0.345,0.237-0.865,0.3049-1.1554
	c0.0681-0.2916,0.1811-0.6306,0.2503-0.752c0.1665-0.2929,0.0803-0.6585-0.1871-0.791c-0.3365-0.1688-0.6815-0.0327-1.2343,0.4897
	c-0.2041,0.1919-0.978,0.5017-1.2635,0.5054c-0.6609,0.006-0.8711,0.6305-0.3669,1.0958c0.2868,0.2636,0.4325,0.7059,0.345,1.0412
	c-0.0291,0.1081-0.1033,0.4228-0.1652,0.6986c-0.0692,0.3073-0.2126,0.6099-0.3717,0.786c-0.254,0.2782-0.271,0.2831-0.8395,0.2333
	c-0.3196-0.028-0.7594-0.1276-0.978-0.2199c-0.2187-0.0924-0.5626-0.1665-0.7642-0.1676c-0.2017,0-0.4714-0.056-0.5978-0.1252
	c-0.1275-0.068-0.2927-0.1519-0.3694-0.1858c-0.3292-0.1471-0.362-0.4545-0.102-0.9562c0.0984-0.1907,0.1798-0.5066,0.1798-0.7034
	c0-0.1956,0.0621-0.5152,0.1373-0.7095c0.0742-0.1945,0.1774-0.5322,0.2272-0.7508c0.0499-0.2176,0.147-0.4606,0.2162-0.5383
	c0.0693-0.0765,0.124-0.3159,0.1216-0.5296c-0.0025-0.2139,0.0644-0.5808,0.1481-0.8153c0.1386-0.3815,0.1397-0.4483,0.0135-0.6597
	c-0.2029-0.3401-0.4495-0.3317-0.8505,0.0291c-0.1907,0.1713-0.4362,0.339-0.5455,0.373c-0.1094,0.0341-0.2965,0.1373-0.4155,0.2284
	c-0.1191,0.0924-0.2843,0.1677-0.3657,0.1677c-0.3936,0.0048-0.8103,0.1968-0.9136,0.4191
	c-0.0997,0.2162-0.0826,0.2527,0.2211,0.4884c0.305,0.2369,0.328,0.2879,0.3329,0.7544c0.0025,0.2746-0.0534,0.6088-0.1239,0.7424
	c-0.0704,0.1336-0.1555,0.4325-0.1895,0.6622c-0.0353,0.243-0.1592,0.5406-0.2965,0.7083c-0.226,0.2781-0.26,0.2927-0.8917,0.2964
	c-0.8128,0.0085-1.6098-0.2503-1.8807-0.6087c-0.1689-0.2211-0.1738-0.2661-0.0547-0.4482c0.0729-0.1119,0.1604-0.4023,0.1944-0.644
	c0.034-0.2429,0.1142-0.52,0.1786-0.6184c0.0632-0.0972,0.1422-0.3888,0.175-0.6451c0.0327-0.2576,0.1336-0.6135,0.2259-0.7922
	c0.0923-0.1773,0.1665-0.4495,0.1652-0.6014c-0.0023-0.153,0.0559-0.3279,0.1288-0.3875c0.0717-0.0583,0.1568-0.2927,0.1871-0.5188
	c0.0316-0.2259,0.107-0.4908,0.169-0.5892c0.0619-0.0971,0.1542-0.4264,0.2065-0.7301c0.0522-0.3049,0.1578-0.6159,0.2356-0.6926
	c0.0766-0.0752,0.1397-0.2271,0.1386-0.3376c-0.0013-0.1094,0.0789-0.2929,0.1785-0.4046c0.1142-0.13,0.1798-0.3329,0.1774-0.548
	c-0.0012-0.1882,0.0717-0.4895,0.164-0.6718c0.0923-0.1798,0.2174-0.5868,0.2783-0.9039c0.0971-0.5091,0.0923-0.6099-0.0451-0.8589
	c-0.1203-0.2175-0.2162-0.2795-0.4178-0.2795c-0.1434,0.0024-0.3087,0.0584-0.3669,0.1263
	c-0.0571,0.0693-0.2491,0.1519-0.4265,0.186c-0.1774,0.034-0.3438,0.1166-0.3693,0.1859c-0.0268,0.0668-0.2308,0.1517-0.4531,0.1846
	c-0.2236,0.0352-0.4253,0.0948-0.4508,0.1348c-0.0243,0.0401-0.3135,0.1021-0.6427,0.1385c-0.509,0.0583-0.627,0.0438-0.7861-0.0911
	c-0.2235-0.1907-1.1942-0.2636-1.5745-0.119c-0.1603,0.0619-0.3232,0.2406-0.4471,0.4933c-0.1907,0.3875-0.192,0.4045-0.0279,0.6888
	c0.2089,0.3633,0.769,0.6743,1.2052,0.6707c0.3158-0.0038,0.7326-0.2225,1.0472-0.5516c0.158-0.1653,0.6598-0.3451,0.9659-0.3488
	c0.1252-0.0012,0.2989,0.113,0.4483,0.2965c0.2745,0.3401,0.2916,0.4069,0.1312,0.5637c-0.1093,0.107-0.2952,0.7217-0.5504,1.8273
	c-0.068,0.2903-0.1858,0.6488-0.2636,0.7944c-0.0765,0.1458-0.1409,0.3828-0.1433,0.5286
	c-0.0025,0.1457-0.1167,0.4641-0.2539,0.7083l-0.2503,0.4423l-0.6403,0.051c-0.4398,0.0352-0.6889,0.0984-0.7982,0.2052
	c-0.0984,0.0972-0.2989,0.1568-0.526,0.1604c-0.3864,0.0036-1.0704,0.3329-1.4009,0.6743c-0.2526,0.26-0.6791,0.8795-0.6778,0.9828
	c0,0.0474-0.0814,0.1544-0.1811,0.2394c-0.0996,0.0838-0.1822,0.2212-0.1835,0.3074c0,0.0862-0.079,0.3146-0.1749,0.509
	c-0.2259,0.4617-0.2199,0.7229,0.0243,1.0558c0.288,0.3948,0.7921,0.6329,1.4701,0.6937c0.3243,0.0303,0.7277,0.1287,0.8954,0.2187
	c0.1677,0.0887,0.3851,0.1616,0.481,0.1616c0.0972-0.0013,0.3536,0.0704,0.5698,0.1616c0.2175,0.0898,0.8079,0.2648,1.3146,0.3887
	c0.5054,0.1252,1.1274,0.2965,1.3801,0.3815c0.8384,0.2806,1.1007,0.3584,1.611,0.4714c0.2782,0.0619,0.6925,0.1689,0.9209,0.2381
	c0.5394,0.1652,2.5331,0.6148,3.8197,0.8626C43.1961,221.2401,43.8801,221.4042,44.1571,221.4977L44.1571,221.4977z
	 M32.3178,221.5426c0.322,0.3037,0.424,0.3487,0.7836,0.345c0.3427-0.0024,0.4714-0.0571,0.7666-0.3182
	c0.5966-0.5285,0.5698-0.9185-0.1068-1.5345c-0.4387-0.4009-0.672-0.4325-1.0559-0.147
	C31.8087,220.5561,31.7103,220.9728,32.3178,221.5426L32.3178,221.5426z M37.1215,222.3954c0.2151-0.1991,0.2491-0.3,0.2442-0.7337
	c-0.0084-0.7702-0.1785-0.916-1.0533-0.9076c-0.7799,0.0085-0.8699,0.0607-1.0277,0.5917c-0.1738,0.588,0.1688,1.1845,0.7617,1.3315
	C36.3804,222.7587,36.8676,222.6324,37.1215,222.3954z M145.0641,222.7721c0.3098,0.2576,0.3814,0.2734,1.0022,0.2698
	c0.6317-0.0061,0.684-0.0232,0.9598-0.2953c0.5005-0.4957,0.52-0.7958,0.102-1.532c-0.3134-0.5528-0.6536-0.605-1.4883-0.2272
	c-0.6269,0.2843-0.916,0.6524-0.9124,1.1554C144.7312,222.4356,144.787,222.5401,145.0641,222.7721L145.0641,222.7721z
	 M42.472,223.7586c0.39-0.4556,0.2467-0.9233-0.4264-1.3971c-0.2637-0.1846-0.3827-0.2126-0.7095-0.1677
	c-0.2296,0.0303-0.5224,0.1555-0.707,0.2989c-0.2856,0.2247-0.3159,0.2891-0.3111,0.6986c0.006,0.5333,0.2369,0.8686,0.6815,0.9865
	C41.6629,224.354,42.0565,224.2421,42.472,223.7586z M67.8151,225.3793c0.2903,0.2502,0.4119,0.2953,0.7811,0.2916
	c0.3475-0.0024,0.4812-0.0498,0.6501-0.226c0.2149-0.2248,0.3717-0.8735,0.3862-1.5903c0.0038-0.1932,0.0438-0.4094,0.09-0.4823
	c0.0474-0.0704,0.1032-0.7047,0.1239-1.4093c0.0219-0.7059,0.0778-1.3425,0.1252-1.4154c0.0474-0.0729,0.0935-0.3511,0.1032-0.6172
	c0.0474-1.2683,0.1774-2.4577,0.3049-2.7785c0.0778-0.1932,0.141-0.5697,0.1397-0.8334c-0.0011-0.3961,0.0413-0.5224,0.243-0.729
	c0.1337-0.1372,0.2855-0.2502,0.3367-0.2502c0.051-0.0012,0.2065-0.1093,0.3474-0.2393c0.3815-0.3597,0.4337-0.2637-0.7423-1.3498
	c-0.2661-0.2466-0.6342-0.6598-0.8177-0.9185c-0.1834-0.2599-0.3693-0.4714-0.4143-0.4714
	c-0.1385,0.0025-0.4544,0.5078-0.4519,0.7242c0.0012,0.1142-0.0401,0.3449-0.0912,0.5162c-0.051,0.1689-0.0923,0.6828-0.091,1.1409
	c0.0011,0.5309-0.0584,1.0436-0.1641,1.4105c-0.0898,0.3182-0.1615,0.803-0.1591,1.0788c0.0025,0.2758-0.0329,0.6014-0.0801,0.7253
	c-0.0474,0.1227-0.1447,0.8298-0.2176,1.5709c-0.0717,0.7411-0.1895,1.5186-0.2599,1.7264
	c-0.0706,0.2078-0.1277,0.6646-0.1252,1.0144c0.0013,0.35-0.0583,0.7946-0.1325,0.9889c-0.0729,0.1956-0.1555,0.6853-0.181,1.0911
	l-0.0461,0.7362L67.8151,225.3793L67.8151,225.3793z M103.3585,224.5677L103.3585,224.5677
	c-0.2624,0.0778-0.4798,0.141-0.4847,0.1397c-0.0025-0.0011-0.1057-0.0729-0.2271-0.1615c-0.2686-0.1944-0.2284-0.4605,0.1239-0.831
	c0.1991-0.2078,0.3-0.2455,0.6195-0.2261l0.3827,0.0232l0.0316,0.4568l0.0328,0.4581L103.3585,224.5677L103.3585,224.5677z
	 M100.5716,226.4691h0.0012l0.2078,0.2879l1.0934-0.0122c0.8188-0.0072,1.1298-0.0413,1.2367-0.1372
	c0.1446-0.1276,2.7907-0.3511,4.7285-0.3997c0.4543-0.011,0.9901-0.0656,1.1918-0.1216c0.2016-0.0546,0.6755-0.1093,1.0545-0.1201
	c0.8432-0.0207,0.9816-0.062,1.057-0.3099c0.0315-0.1069,0.1166-0.3183,0.1883-0.4714c0.1142-0.2442,0.1129-0.3159-0.0171-0.6038
	c-0.0995-0.2248-0.153-0.6123-0.1566-1.221c-0.0073-0.6488-0.051-0.9634-0.1604-1.1541c-0.1081-0.1884-0.1713-0.6269-0.2248-1.5393
	c-0.0693-1.1809-0.0923-1.2951-0.2988-1.5163c-0.322-0.3462-0.6633-0.3146-1.1834,0.1094c-0.232,0.1908-0.5042,0.3706-0.6062,0.4022
	c-0.2977,0.091-0.7702,0.5673-0.7691,0.7702c0.0025,0.2867,0.1604,0.4993,0.4119,0.5577c0.1252,0.0291,0.3378,0.1882,0.4727,0.3534
	c0.2198,0.271,0.2501,0.3974,0.3061,1.3001c0.0814,1.3012,0.0643,1.3303-0.8493,1.4773c-0.3924,0.062-0.7848,0.1518-0.8722,0.1979
	c-0.5249,0.2771-1.2624-0.1093-1.4385-0.752c-0.051-0.1882-0.1263-0.9537-0.1676-1.7056c-0.0402-0.7497-0.1155-1.503-0.1654-1.6718
	c-0.0497-0.1677-0.1397-0.9804-0.1979-1.8029c-0.0596-0.8237-0.1506-1.7337-0.2016-2.0241
	c-0.0523-0.2915-0.1228-0.9548-0.158-1.4773c-0.0352-0.5237-0.1033-1.0497-0.1519-1.1687c-0.0996-0.243-0.4883-0.4168-0.7472-0.3354
	c-0.1263,0.0389-1.2513,1.102-1.8831,1.7775c-0.0608,0.0643,0.3718,0.5686,0.4872,0.5673c0.062,0,0.2211,0.1069,0.3536,0.2381
	c0.2137,0.2139,0.2489,0.3414,0.3207,1.1651c0.0449,0.5078,0.0717,1.0097,0.062,1.1153c-0.011,0.1058,0.0474,0.3755,0.1275,0.5978
	c0.0899,0.2442,0.1531,0.7059,0.1567,1.1675c0.0072,0.7192-0.0061,0.7776-0.2332,0.9683c-0.1325,0.1117-0.3524,0.2053-0.4885,0.2065
	c-0.1348,0.0013-0.3207,0.0826-0.4106,0.181c-0.0898,0.0972-0.2126,0.1774-0.2709,0.1787
	c-0.1506,0.0011-0.8674,0.5552-0.8662,0.6705c0,0.0523-0.1628,0.2516-0.362,0.4423c-0.2819,0.2697-0.3645,0.4143-0.3609,0.6439
	c0.0025,0.1627-0.0449,0.3827-0.1033,0.4896c-0.0583,0.1057-0.1129,0.4519-0.1178,0.7666c-0.0061,0.3147-0.0547,0.8091-0.107,1.0984
	C100.3711,226.1434,100.3796,226.2043,100.5716,226.4691L100.5716,226.4691z M59.2488,219.1978
	c-0.141,0.096-0.3997,0.1374-0.8481,0.1349c-0.707-0.0036-1.1359-0.1568-1.5199-0.5431l-0.2295-0.232l0.3159-0.2393
	c0.1736-0.1337,0.4798-0.4095,0.6804-0.6136c0.6973-0.7119,1.0727-0.6657,1.1079,0.1348c0.0194,0.4448,0.2491,0.8372,0.5309,0.9076
	C59.5099,218.8029,59.4905,219.0313,59.2488,219.1978L59.2488,219.1978z M62.0941,227.9233v-0.0012
	c0.362,0.1215,1.2173,0.0158,1.5113-0.1871c0.1373-0.0936,0.3755-0.1968,0.5285-0.2284c0.1531-0.0316,0.3196-0.13,0.3681-0.2211
	c0.0499-0.0911,0.141-0.1677,0.2017-0.1677c0.1325-0.0036,0.6074-0.82,0.6051-1.0424c-0.0013-0.085,0.0729-0.294,0.1639-0.464
	c0.0924-0.1701,0.1895-0.5905,0.2188-0.9356c0.0291-0.345,0.1104-0.7628,0.181-0.9305c0.0704-0.1665,0.1652-0.6585,0.2113-1.0935
	c0.0462-0.4336,0.1446-1.1262,0.2175-1.5392c0.0741-0.4131,0.1325-1.0206,0.1288-1.3499c-0.0024-0.3316,0.045-0.6888,0.1045-0.7957
	c0.0596-0.1057,0.1519-0.8662,0.2052-1.6912c0.0548-0.8601,0.1555-1.6632,0.2358-1.8855c0.0765-0.2126,0.1373-0.6487,0.1336-0.9695
	c-0.0036-0.3451,0.0486-0.6877,0.1276-0.8382c0.1859-0.3487,0.1676-1.1859-0.0292-1.3911c-0.085-0.0875-0.2114-0.1604-0.2807-0.158
	c-0.1323,0.0012-0.6426,0.3257-0.8018,0.509c-0.0497,0.0584-0.2562,0.1665-0.4568,0.2394c-0.2016,0.0729-0.5504,0.2004-0.7763,0.283
	c-0.4592,0.1702-0.5455,0.26-0.543,0.5796c0.0011,0.1457,0.1251,0.3219,0.3705,0.5248l0.3693,0.305l0.0122,1.0934
	c0.011,0.9184-0.0122,1.1213-0.1458,1.2659c-0.1264,0.1373-0.1664,0.3985-0.1993,1.3024c-0.023,0.633-0.0862,1.1857-0.1433,1.2525
	c-0.0571,0.0681-0.1433,0.5954-0.1932,1.1749c-0.0498,0.5783-0.1471,1.2112-0.2162,1.4057
	c-0.0693,0.1956-0.1641,0.8699-0.2103,1.5003c-0.0461,0.6307-0.1178,1.226-0.1603,1.3231
	c-0.0425,0.0984-0.1263,0.3062-0.1871,0.4653c-0.1154,0.3026-0.4021,0.39-0.6196,0.1859c-0.0607-0.0571-0.2454-0.1458-0.4107-0.1944
	l-0.2988-0.0887l-0.0122-1.1298c-0.0109-1.0169-0.0303-1.1421-0.1919-1.2538c-0.0984-0.0681-0.2867-0.1228-0.4192-0.1215
	c-0.1312,0.0012-0.2819-0.0365-0.334-0.0863c-0.0522-0.0486-0.3402-0.1251-0.6391-0.1677
	c-0.7204-0.1032-0.8869-0.2878-0.8565-0.9499l0.0206-0.4885l0.412-0.1227c0.2271-0.0669,0.7957-0.1288,1.2634-0.1373
	c0.9792-0.0183,1.1202-0.1106,1.1128-0.7423c-0.006-0.424-0.1713-1.0121-0.2842-1.0121c-0.0449,0.0013-0.1081-0.0765-0.1397-0.1688
	c-0.0645-0.1871-1.4021-1.4883-1.5284-1.4883c-0.1373,0.0025-0.2758-0.5126-0.2248-0.8346c0.0548-0.3462-0.1481-0.8711-0.509-1.3157
	c-0.1166-0.1433-0.2856-0.3536-0.3754-0.4666c-0.3256-0.4033-0.4107-0.4494-0.8176-0.4458
	c-0.8129,0.0072-1.8298,0.7533-2.3132,1.6984l-0.2539,0.4945l-0.9185,0.2563c-0.5042,0.1409-1.0534,0.3548-1.2186,0.4726
	c-0.4313,0.3123-0.8747,0.8953-0.9366,1.2295c-0.0729,0.3949,0.1616,0.8007,0.4932,0.8601
	c0.9512,0.1665,2.1321,0.8007,2.1467,1.1531c0.0025,0.0558-0.2393,0.3449-0.5382,0.6438c-0.5406,0.5442-0.5443,0.5442-1.0728,0.548
	c-0.2903,0.0023-0.7775-0.051-1.0812-0.118c-0.3038-0.0679-0.6572-0.1226-0.7872-0.1239c-0.2698-0.0011-0.7704-0.3875-0.8639-0.6682
	c-0.1105-0.3291-0.2588-1.1893-0.3486-2.0264c-0.0523-0.4884-0.1447-0.8869-0.2358-1.0071
	c-0.0813-0.1094-0.1494-0.288-0.1506-0.3937c-0.0024-0.2576-0.4349-0.7326-0.6646-0.7289c-0.311,0.0024-0.5163,0.1677-0.5807,0.4665
	c-0.0328,0.1591-0.1166,0.3487-0.1859,0.4216c-0.6488,0.6949-0.8212,1.0958-0.6608,1.5454
	c0.0594,0.1688,0.1616,0.3389,0.2246,0.3741c0.0632,0.0364,0.2103,0.3426,0.3257,0.6804c0.198,0.5794,0.2028,0.6378,0.0728,1.0011
	c-0.0753,0.2126-0.136,0.5358-0.1336,0.7155c0.0025,0.1969-0.0692,0.4216-0.1774,0.5553c-0.0995,0.1251-0.181,0.2819-0.1798,0.3498
	c0.0013,0.0669-0.119,0.3099-0.2672,0.5383c-0.2187,0.3401-0.3184,0.4179-0.5346,0.4191c-0.147,0.0012-0.3146,0.062-0.3754,0.1312
	c-0.0595,0.0705-0.3317,0.175-0.605,0.2321c-0.2722,0.0582-0.4957,0.1421-0.4957,0.1871c0.0011,0.0984-0.4277,0.1033-0.6877,0.0085
	c-0.2405-0.0887-0.8698,0.2284-0.8674,0.4361c0.0049,0.3414,0.3815,0.5127,1.4032,0.6402c0.5418,0.0657,1.0254,0.1446,1.074,0.1714
	c0.0486,0.0292,0.266-0.0061,0.4835-0.0766c0.2174-0.0729,0.5613-0.1567,0.763-0.1894c0.5042-0.0815,1.6596-1.0717,1.8127-1.5515
	c0.1105-0.3451,0.7727-0.4545,2.2026-0.3561c0.9974,0.0681,1.3959,0.1289,1.7568,0.2697c0.1688,0.0657,0.571,0.1167,0.8953,0.1131
	c0.5614-0.0048,0.5978-0.0195,0.825-0.3099c0.13-0.1688,0.2758-0.4081,0.3243-0.5344c0.0596-0.1544,0.1799-0.2467,0.3658-0.2855
	c0.153-0.0316,0.3-0.0912,0.3268-0.1338c0.0838-0.1323,0.3705-0.0862,0.5382,0.0876c0.0948,0.0995,0.1955,0.407,0.2417,0.7422
	c0.0668,0.4727,0.1287,0.6149,0.3451,0.7971c0.3037,0.2539,0.4021,0.2794,1.2647,0.3353c0.4069,0.0267,0.6949,0.0935,0.8054,0.1871
	c0.181,0.1543,0.2309,0.4265,0.0936,0.5102c-0.1883,0.1154-0.192,0.5419-0.0072,1.0995c0.1056,0.3184,0.2162,0.6865,0.2453,0.8201
	c0.0303,0.1325,0.0996,0.2406,0.1544,0.2406c0.1336-0.0013,1.0034,0.5308,1.0047,0.6134
	C61.8402,227.8091,61.9544,227.8759,62.0941,227.9233L62.0941,227.9233z M138.7744,221.1697
	c-0.0377-0.0036-0.2442-0.124-0.4604-0.2649c-0.3305-0.2187-0.3925-0.3062-0.3961-0.5565
	c-0.0049-0.3875,0.4288-0.7337,0.9573-0.7689c0.4557-0.0293,0.7351,0.1068,0.9271,0.4543c0.2223,0.4021,0.0619,0.7023-0.5067,0.9476
	C139.0465,221.0883,138.8121,221.1733,138.7744,221.1697z M131.9721,221.0481c-0.2417,0.1118-0.5175,0.2017-0.6134,0.2006
	c-0.2212-0.0025-0.7776-0.4423-0.7776-0.6185c-0.0012-0.0716-0.068-0.3146-0.1506-0.5369
	c-0.1447-0.3925-0.1435-0.4144,0.0558-0.6768c0.2527-0.3365,0.4568-0.3426,1.0266-0.028c0.5357,0.2965,0.899,0.7667,0.8979,1.1663
	c0,0.26-0.0474,0.3123-0.4387,0.4922V221.0481z M128.71,221.3568h-0.0011c-0.0596,0.2781-0.0596,0.2781-0.684,0.2817
	c-0.7824,0.0074-0.882-0.0849-0.8675-0.8102c0.0097-0.4617,0.0462-0.5626,0.2989-0.8189c0.3936-0.3961,0.5649-0.4228,0.8966-0.1373
	c0.2199,0.1883,0.2916,0.339,0.3474,0.7253C128.738,220.8647,128.7416,221.2061,128.71,221.3568L128.71,221.3568z
	 M121.4207,222.7211c-0.2722,0.1373-0.8846,0.1798-1.057,0.0717c-0.056-0.0352-0.1495-0.1483-0.2078-0.2516
	c-0.0826-0.1481-0.0766-0.2113,0.0292-0.2964c0.0741-0.062,0.1348-0.1457,0.1336-0.1907c0-0.0449,0.0887-0.1992,0.1968-0.3438
	c0.3584-0.4751,1.0946-0.3025,1.2162,0.2855C121.8118,222.3834,121.7365,222.5608,121.4207,222.7211L121.4207,222.7211z
	 M133.0194,223.7695c-0.1652,0.1264-1.0631,0.1483-1.3729,0.0329c-0.1373-0.0511-0.209-0.1519-0.209-0.2989
	c-0.0023-0.1725,0.0815-0.2612,0.3803-0.4034c0.4994-0.2393,0.9877-0.2417,1.2538-0.0085c0.2259,0.1993,0.2053,0.4775-0.0522,0.6768
	V223.7695z M118.7939,228.0144c0.0341,0.0316,0.5322,0.0511,1.1056,0.0474c0.8614-0.0085,1.1044-0.0413,1.3826-0.1871
	c0.186-0.0972,0.5431-0.2672,0.7946-0.3791c0.5345-0.2392,1.2853-0.9682,1.3618-1.3242c0.0305-0.1348,0.1131-0.2939,0.1848-0.3548
	c0.0838-0.0668,0.13-0.2745,0.1263-0.5795c-0.0073-0.5733,0.1641-0.7799,0.7277-0.8783c0.2139-0.0353,0.5224-0.1215,0.6828-0.1871
	c0.1616-0.068,0.661-0.1664,1.1092-0.2199c0.4471-0.0535,0.9987-0.1373,1.2259-0.1871c0.2259-0.051,0.6694-0.096,0.9853-0.1008
	c0.4543-0.0073,0.6111,0.0255,0.7593,0.164c0.1009,0.096,0.1858,0.2151,0.1858,0.2661c0.0038,0.2611,0.5796,1.2027,0.8553,1.3958
	c0.4496,0.3135,1.1615,0.6075,1.4701,0.6039c0.1531-0.0025,0.3353,0.0704,0.4265,0.1713c0.2478,0.2721,0.6038,0.215,1.0168-0.164
	c0.2005-0.1847,0.5747-0.5151,0.8323-0.7351c0.2562-0.2211,0.5066-0.4823,0.5552-0.5782c0.0485-0.0972,0.1433-0.2722,0.2101-0.3876
	c0.0668-0.1154,0.1471-0.6002,0.1762-1.0788l0.0571-0.8688l0.3329-0.0959c0.7472-0.2126,1.0825-0.2199,1.3753-0.0231
	c0.1518,0.1021,0.3037,0.3013,0.3389,0.4435c0.0341,0.1433,0.1373,0.2807,0.2272,0.3074c0.0912,0.0266,0.678,0.0462,1.3024,0.0498
	c1.0715,0.0012,1.1614-0.0135,1.5915-0.2418c0.6221-0.3305,1.4616-1.2088,1.5357-1.6049c0.0583-0.3195,0.1117-0.3536,0.7362-0.4629
	c0.2017-0.0353,0.407-0.0924,0.4581-0.1276c0.1821-0.1287,1.6753-0.543,2.7893-0.7727c0.6294-0.1312,1.588-0.3814,2.131-0.5564
	c0.5432-0.1737,1.0631-0.3183,1.1579-0.3195c0.0935-0.0012,0.39-0.102,0.6584-0.2248c0.2685-0.125,0.5601-0.2272,0.6451-0.2283
	c0.0876-0.0012,0.2005-0.0802,0.2528-0.1774c0.1579-0.2891,0.0072-0.5942-0.4071-0.8237c-0.3839-0.2139-0.673-0.48-0.8479-0.78
	c-0.1435-0.2478-0.5468-0.4386-0.7934-0.3766c-0.1215,0.0316-0.4288,0.2491-0.684,0.4859
	c-0.4507,0.4155-1.1711,0.7399-1.6511,0.7436c-0.5527,0.006-1.5016-0.5723-1.5052-0.9149c-0.0012-0.0862-0.068-0.2248-0.147-0.3074
	c-0.0802-0.0837-0.2066-0.4421-0.2807-0.7982c-0.0729-0.3547-0.1774-0.803-0.2295-0.9961
	c-0.1458-0.5297-0.3306-1.3789-0.3561-1.6256c-0.1409-1.3851-0.2782-2.2914-0.3814-2.5076
	c-0.0693-0.1445-0.1555-0.4313-0.1932-0.6366c-0.0377-0.2054-0.1058-0.3948-0.153-0.4228c-0.0474-0.0268-0.1422-0.175-0.2103-0.3292
	c-0.1627-0.3633-0.9598-1.0972-1.2599-1.1615c-0.1287-0.0267-0.3681-0.1251-0.5333-0.2187
	c-0.4434-0.2503-2.2671-0.2357-3.2815,0.0268c-0.4033,0.1045-0.8869,0.2174-1.0763,0.2503
	c-0.1871,0.0327-0.3414,0.0984-0.3414,0.1456c0.0011,0.0474-0.1022,0.1338-0.2284,0.1896c-0.181,0.0814-0.2272,0.1665-0.2236,0.4192
	c0.0036,0.2575,0.0729,0.3717,0.373,0.6208c0.2029,0.1664,0.3694,0.3462,0.3705,0.3973c0.0012,0.0523,0.1373,0.2588,0.3013,0.4592
	c0.2442,0.2988,0.3548,0.3669,0.6001,0.3633c0.1665-0.0025,0.3013-0.0413,0.3013-0.0863c-0.0011-0.1531,0.5869-0.6293,0.7813-0.6293
	c0.1056-0.0013,0.266-0.0814,0.3572-0.1798c0.1931-0.2102,0.6305-0.2357,0.9622-0.056c0.1276,0.0681,0.3352,0.1665,0.4604,0.22
	c0.5625,0.232,1.1117,1.0873,1.1214,1.7386c0.0012,0.1348,0.0838,0.5394,0.1835,0.8989c0.0995,0.3597,0.2076,1.0291,0.2392,1.4883
	c0.0402,0.5601,0.1203,0.9622,0.248,1.2283c0.1032,0.2187,0.2307,0.7034,0.283,1.0801c0.0535,0.3766,0.1385,0.7301,0.1895,0.7896
	c0.1142,0.13,0.4896,1.1469,0.4896,1.3316c0.0013,0.0753-0.0438,0.136-0.0984,0.1373c-0.0547,0-0.2041,0.0802-0.3316,0.1786
	c-0.4799,0.3705-1.4494,0.1178-1.9038-0.4981c-0.2089-0.2832-0.4167-0.4132-1.1116-0.6986
	c-0.4703-0.1932-0.9246-0.3499-1.0097-0.3487c-0.1555,0.0024-0.5601,0.2588-0.9173,0.5831
	c-0.1081,0.0973-0.3765,0.3378-0.5989,0.5346c-0.5746,0.5091-0.8116,0.8323-0.8079,1.108c0.0013,0.1325-0.0814,0.3463-0.1847,0.4751
	c-0.1724,0.215-0.243,0.2369-0.8577,0.2405c-0.7642,0.0073-0.735,0.028-1.2137-0.8334c-0.4252-0.7641-0.8881-1.4361-0.9865-1.4361
	c-0.0424,0.0013-0.0778-0.051-0.0789-0.1142c-0.0012-0.1384-0.4277-0.4458-0.7411-0.5333c-0.1251-0.0352-0.316-0.1155-0.4241-0.1798
	c-0.1081-0.0632-0.5734-0.1955-1.0351-0.2952c-0.4616-0.0996-0.8674-0.2236-0.9014-0.2758
	c-0.0341-0.0523-0.0961-0.3548-0.1374-0.6743c-0.074-0.5624-0.1433-0.8553-0.4433-1.8515c-0.2272-0.7544-0.2965-0.876-0.5407-0.9634
	c-0.181-0.0632-0.2976-0.0389-0.5467,0.1167c-0.175,0.1104-0.3196,0.2332-0.3207,0.2733c-0.0012,0.04-0.1799,0.2806-0.3961,0.5321
	c-0.4227,0.492-0.6937,0.9671-0.6901,1.2162c0.0013,0.0849,0.1167,0.2465,0.2575,0.3595c0.5784,0.4678,0.8578,0.8541,0.8602,1.1895
	c0.0025,0.3911-0.0631,0.5053-0.3365,0.5904c-0.113,0.034-0.2563,0.1105-0.3195,0.1688c-0.062,0.0571-0.2855,0.22-0.4956,0.3597
	c-0.4338,0.2878-1.1567,1.2902-1.2466,1.7228c-0.0328,0.1578-0.1214,0.4117-0.1981,0.5624
	c-0.0801,0.158-0.1566,0.6195-0.1785,1.0812c-0.0292,0.5942-0.0765,0.8323-0.1847,0.9088c-0.192,0.141-1.3023,0.0644-1.442-0.0996
	c-0.056-0.0656-0.1313-0.3475-0.1665-0.6257c-0.0352-0.2782-0.1264-0.6633-0.2016-0.8565c-0.0767-0.1943-0.1483-0.4702-0.1532-0.616
	c-0.0072-0.1458-0.13-0.4422-0.2721-0.6584c-0.2187-0.333-0.2989-0.3888-0.5236-0.3705c-0.1458,0.0108-0.3086,0.0801-0.362,0.1517
	c-0.0535,0.0706-0.2176,0.1593-0.3658,0.1945c-0.4264,0.1045-1.0594,0.4507-1.4432,0.7921
	c-0.1945,0.1725-0.3803,0.3256-0.4132,0.3401c-0.0327,0.0147-0.1578,0.1823-0.2769,0.3755
	c-0.1191,0.1919-0.3961,0.5455-0.6136,0.786l-0.3961,0.4374l0.0438,1.2963l0.0438,1.2963l0.3037,0.2856
	c0.249,0.2343,0.3498,0.2745,0.5527,0.2235c0.859-0.2151,2.4445-0.3099,2.5477-0.1531c0.034,0.0522,0.0656,0.2515,0.062,0.4435
	c-0.0025,0.6912-0.7921,1.4104-1.6973,1.5441c-0.2527,0.0365-0.5199,0.1191-0.5953,0.1823
	c-0.0741,0.0631-0.2393,0.1457-0.3645,0.1834c-0.1263,0.0364-0.2794,0.1081-0.3425,0.1567
	C118.7199,227.4848,118.6883,227.916,118.7939,228.0144L118.7939,228.0144z M111.513,228.8066
	c0.1738,0.1178,0.4119,0.136,1.3911,0.102c1.1068-0.0377,1.1894-0.0522,1.317-0.2393c0.074-0.1094,0.2017-0.1992,0.2843-0.2004
	c0.2575-0.0025,1.2282-0.6853,1.5138-1.0631c0.1481-0.1981,0.3013-0.362,0.3377-0.3633c0.0365-0.0012,0.1567-0.1713,0.2673-0.379
	c0.2623-0.4933,0.3341-2.2513,0.1129-2.7773c-0.0765-0.1798-0.1409-0.5164-0.1469-0.7459
	c-0.0061-0.2868-0.0863-0.5432-0.2516-0.8068c-0.1323-0.2126-0.2417-0.4434-0.2429-0.5127
	c-0.0025-0.1774-0.4544-0.9537-0.6634-1.1396c-0.0971-0.0849-0.1774-0.2101-0.1786-0.2769
	c-0.0011-0.1689-0.4252-0.9185-0.6876-1.2137c-0.2769-0.3135-0.6876-0.2965-0.8541,0.0364
	c-0.0596,0.1227-0.2977,0.6002-0.5272,1.0631c-0.2309,0.4628-0.4848,0.9476-0.5638,1.0787c-0.192,0.3123-0.0595,0.6792,0.311,0.8591
	c0.5577,0.2708,1.1056,0.6682,1.2672,0.9185c0.3401,0.526,0.3875,0.7167,0.4058,1.6267c0.0182,0.8905,0.0085,0.9403-0.2309,1.2197
	c-0.1361,0.1604-0.2478,0.3584-0.2465,0.441c0,0.0826-0.2333,0.3742-0.5213,0.6464c-0.5224,0.4957-0.9537,0.7569-1.5928,0.9658
	c-0.1882,0.062-0.4251,0.2261-0.526,0.3645l-0.1835,0.2539L111.513,228.8066L111.513,228.8066z M103.1374,229.3545
	c0.3341,0.3426,0.3949,0.3694,0.8298,0.3656c0.322-0.0036,0.5212-0.0533,0.6341-0.1603c0.3002-0.2843,0.723-0.5491,0.972-0.6123
	c0.1349-0.034,0.2673-0.1154,0.2928-0.1834c0.0802-0.2078,0.1871-0.1336,0.2503,0.1713c0.0874,0.4215,0.4082,0.6657,0.944,0.7192
	c0.4203,0.0425,0.4738,0.0242,0.814-0.2746c0.3523-0.3122,0.3596-0.3329,0.3548-0.9002c-0.0074-0.554-0.0232-0.5917-0.3306-0.831
	c-0.2442-0.1907-0.4179-0.2516-0.724-0.2491c-0.4836,0.0025-0.9927,0.2819-1.0692,0.5881c-0.079,0.317-0.379,0.2769-1.2635-0.1713
	c-0.9257-0.4678-1.1869-0.4556-1.7239,0.0862c-0.2903,0.2927-0.3487,0.4143-0.3451,0.7156
	C102.7765,228.9183,102.841,229.0483,103.1374,229.3545L103.1374,229.3545z M95.4179,224.5884L95.4179,224.5884
	c-0.6038,0.2284-1.2174,0.1871-1.4264-0.0947c-0.0948-0.1277,0.0135-0.5091,0.1896-0.6658c0.3535-0.3159,0.7423-0.537,0.9525-0.537
	c0.1943-0.0025,0.2394,0.0559,0.3281,0.4143c0.0558,0.2295,0.1275,0.4992,0.1578,0.6014
	C95.6644,224.4511,95.6208,224.5119,95.4179,224.5884L95.4179,224.5884z M88.3325,227.2503c-0.1142,0.0875-0.2503,0.1579-0.3,0.1579
	c-0.1325,0-0.4289-0.1628-0.6756-0.373c-0.2052-0.1749-0.2113-0.2186-0.1603-1.0351l0.0535-0.8504l-0.2613-0.1616
	c-0.1871-0.1153-0.4701-0.1652-0.9999-0.1785c-0.4058-0.0097-1.2137-0.0487-1.7944-0.0851
	c-0.5807-0.0365-1.5041-0.0644-2.052-0.0632c-0.6087,0.0012-1.1638-0.0474-1.4238-0.1239c-0.2345-0.0705-0.531-0.1446-0.6572-0.1653
	c-0.1277-0.023-0.3014-0.153-0.3888-0.2903c-0.1496-0.2381-0.1483-0.2649,0.0072-0.5176c0.3317-0.5345,1.2441-0.7071,2.6169-0.492
	c0.3694,0.0595,0.729,0.0607,1.0315,0.0049c0.3341-0.0632,0.5625-0.0548,0.8177,0.0242c0.1943,0.0609,1.148,0.1422,2.1188,0.1787
	c1.6899,0.068,1.7749,0.079,2.0119,0.2855l0.2478,0.2162l0.0084,1.656c0.0086,1.617,0.0038,1.6595-0.2004,1.8138V227.2503z
	 M87.5573,230.0725L87.5573,230.0725h-0.0011c0.0011,0.0413,0.062,0.0766,0.136,0.0754c0.1483-0.0013,0.8371-0.3281,1.0521-0.4994
	c0.0754-0.0595,0.2394-0.1385,0.3658-0.1774c0.3911-0.1166,0.9986-0.577,1.0533-0.7982c0.0291-0.1166,0.1311-0.2805,0.2259-0.3656
	c0.1119-0.0972,0.175-0.271,0.1701-0.4811c-0.0072-0.6768,0.0754-0.8578,0.4204-0.9234c0.1738-0.0328,1.6522-0.0729,3.2851-0.0862
	l2.9681-0.0256l0.2867-0.3766l0.2867-0.3753l-0.0547-1.1446c-0.0303-0.6305-0.1008-1.2501-0.1567-1.38
	c-0.0559-0.1289-0.1313-0.644-0.1665-1.1446c-0.0862-1.2076-0.1262-1.3983-0.3462-1.6461
	c-0.1531-0.1726-0.2624-0.2065-0.6136-0.1896c-0.2745,0.0122-0.4944,0.079-0.6134,0.1871
	c-0.1726,0.1555-0.8991,0.3997-1.5588,0.5236c-0.1518,0.028-0.3572,0.1228-0.4567,0.209c-0.0997,0.0862-0.271,0.1846-0.3803,0.2162
	c-0.2977,0.09-0.9356,0.7363-1.0911,1.102c-0.074,0.1762-0.1882,0.3633-0.2539,0.4143c-0.0643,0.0498-0.1336,0.3256-0.153,0.6111
	c-0.0401,0.6014-0.1871,0.7617-0.7059,0.7654c-0.5917,0.0048-0.6707-0.1676-0.6949-1.521l-0.0195-1.1737l-0.2794-0.2611
	c-0.2684-0.2528-0.3207-0.2649-1.4251-0.3281c-0.6306-0.0364-1.4566-0.0657-1.8345-0.0619
	c-0.379,0.0023-0.7338-0.0244-0.7897-0.0572c-0.1446-0.0886-1.2841-0.1434-3.3215-0.158c-1.475-0.012-1.7981-0.0376-1.9367-0.1555
	c-0.091-0.0789-0.266-0.142-0.3888-0.1433c-0.1214,0-0.3304-0.0912-0.464-0.2004c-0.2187-0.1822-0.2467-0.2758-0.2928-0.9768
	c-0.0462-0.6889-0.0766-0.7946-0.2757-0.9464c-0.3062-0.2345-1.023-0.1567-1.5017,0.1627
	c-0.1908,0.1264-0.3815,0.2309-0.4228,0.2309c-0.0413,0.0011-0.1774,0.1749-0.3038,0.3863
	c-0.2308,0.3875-0.294,0.8371-0.1384,0.9889c0.1166,0.1142,0.5733,1.3729,0.5758,1.5867c0.0013,0.0948-0.04,0.2151-0.091,0.2649
	c-0.0499,0.0499-0.1142,0.4252-0.141,0.8334c-0.0705,1.0704-0.079,1.0826-0.8772,1.0133c-0.7594-0.0632-0.8407-0.1081-0.9876-0.5443
	c-0.0596-0.1787-0.1677-0.4471-0.2406-0.599c-0.073-0.1531-0.1337-0.3366-0.1337-0.4106c-0.0024-0.1689-0.4751-1.2672-0.8201-1.9002
	c-0.2235-0.4118-0.3038-0.4871-0.5478-0.5066c-0.2564-0.0218-0.3209,0.0256-0.6124,0.4581c-0.1786,0.2648-0.5297,0.69-0.7812,0.9451
	c-0.5734,0.5833-0.5856,0.7885-0.0729,1.2198c0.407,0.3439,0.5334,0.5698,0.8906,1.5939c0.3474,0.9927,0.3717,1.2357,0.1676,1.6354
	c-0.0972,0.1907-0.2017,0.4859-0.2321,0.6572c-0.0303,0.1726-0.1323,0.3767-0.2259,0.4556
	c-0.0935,0.079-0.1847,0.1786-0.2029,0.2199c-0.0619,0.1446-0.8481,0.7192-1.3085,0.9586c-0.3839,0.1992-0.577,0.2381-1.2355,0.2491
	c-1.1858,0.0194-1.492,0.0959-1.5989,0.3948c-0.0729,0.2078-0.0583,0.2721,0.09,0.373c0.0971,0.0668,0.3024,0.1203,0.4568,0.1191
	c0.1555-0.0013,0.3996,0.0558,0.5454,0.1262c0.3694,0.1799,2.6643,0.158,2.9948-0.0278c0.1251-0.0717,0.3208-0.1713,0.4337-0.2212
	c0.2442-0.1105,0.7156-0.435,0.9489-0.6548c0.091-0.0863,0.2065-0.1555,0.2575-0.1567c0.0499,0,0.0912-0.0426,0.09-0.0923
	c0-0.051,0.1555-0.3001,0.3462-0.5553c0.1896-0.2539,0.39-0.5892,0.4446-0.7459c0.0547-0.158,0.1835-0.3742,0.2868-0.4836
	c0.2733-0.2879,1.0557-0.3159,3.1065-0.1142c0.944,0.0936,2.3144,0.1993,3.047,0.2369c1.1676,0.0596,2.7518,0.2332,3.3763,0.3693
	c0.1518,0.0341,0.2101,0.1094,0.2101,0.2868c0.0061,0.3559,0.2381,1.0958,0.4349,1.3874c0.2831,0.4191,0.746,0.7933,1.2879,1.0411
	C87.3278,229.8891,87.5562,230.0288,87.5573,230.0725L87.5573,230.0725z"/>
</svg>
