<svg xmlns="http://www.w3.org/2000/svg" viewBox="0 0 30 30">
  <defs>
    <style>
      .cls-1 {
        fill: #fff;
      }
    </style>
  </defs>
  <g id="notification-icon-light" transform="translate(-0.001)">
    <g id="Group_2" data-name="Group 2" transform="translate(0.001)">
      <path id="Path_4" data-name="Path 4" class="cls-1" d="M15,0A15,15,0,1,0,30,15,15,15,0,0,0,15,0Zm0,23.3a1.95,1.95,0,0,1-1.95-1.95h3.9A1.949,1.949,0,0,1,15,23.3ZM21.59,19.39h0c0,.721-.584.768-1.3.768H9.717c-.721,0-1.3-.048-1.3-.768v-.124a1.3,1.3,0,0,1,.742-1.173l.414-3.575A5.435,5.435,0,0,1,13.884,9.2V7.812a1.117,1.117,0,0,1,2.235,0V9.2a5.434,5.434,0,0,1,4.315,5.317l.414,3.576a1.3,1.3,0,0,1,.742,1.173Z" transform="translate(-0.001)"/>
    </g>
  </g>
</svg>
