<?xml version="1.0" encoding="utf-8"?>
<!-- Generator: Adobe Illustrator 22.1.0, SVG Export Plug-In . SVG Version: 6.00 Build 0)  -->
<svg version="1.1" id="Layer_1" xmlns="http://www.w3.org/2000/svg" xmlns:xlink="http://www.w3.org/1999/xlink" x="0px" y="0px"
	 viewBox="0 0 492.7929 277.9441" style="enable-background:new 0 0 492.7929 277.9441;" xml:space="preserve">
<style type="text/css">
	.st0{fill:#FFFFFF;}
</style>
<path id="XMLID_155_" class="st0" d="M116.9679,124.4145C239.966,108.0283,301.5647,74.3341,330.0197,0
	c-47.9779,42.9026-89.2373,64.6613-164.1084,84.3036c-0.2955,0.1162-0.5891,0.3286-0.9453,0.5298
	C145.1762,96.1346,129.5346,109.366,116.9679,124.4145z"/>
<g id="Livello_3_2_">
	<path id="XMLID_62_" class="st0" d="M150.9177,84.3155C37.4799,106.4506,21.4716,195.152,52.4515,260.1196
		C64.4316,181.7781,84.4669,122.274,150.9177,84.3155"/>
</g>
<path id="XMLID_61_" class="st0" d="M101.2649,141.0144c-7.1002,10.0522-13.0515,20.8272-18.1044,32.3192
	c97.7276-1.9586,157.531-20.5082,201.8236-95.4252C246.3209,109.7804,190.6004,133.62,101.2649,141.0144z"/>
<g id="Livello_2_2_">
	<path id="XMLID_60_" class="st0" d="M47.1896,149.6625c-52.2065,25.3964-72.1942,77.4777-1.5274,126.2567
		C23.5528,229.4609,12.3425,178.8858,47.1896,149.6625"/>
</g>
<g id="XMLID_48_">
	<path id="XMLID_58_" class="st0" d="M87.8434,193.133h13.0023l33.042,57.4941c-0.5962-5.6058-0.8351-11.4516-0.8351-15.7459
		V193.133h13.9562v83.2609h-13.0019l-32.9227-57.3764c0.4772,5.7252,0.835,11.4503,0.835,15.6268v41.7496H87.8434V193.133z"/>
	<path id="XMLID_56_" class="st0" d="M164.4182,261.6019c7.5152,2.3864,13.9569,4.2943,21.3518,4.2943
		c9.5431,0,13.5992-4.8904,13.5992-11.8088c0-17.6546-36.0242-11.8087-36.0242-39.6025c0-14.4343,11.6895-22.9035,27.6743-22.9035
		c7.5149,0,13.1207,1.6701,20.6359,4.4135l-3.5787,11.2139c-6.4413-2.2678-10.8551-3.5795-17.0572-3.5795
		c-8.4699,0-12.7638,4.175-12.7638,10.8556c0,15.5067,36.0242,11.8094,36.0242,39.6025c0,14.4328-11.3325,23.8567-28.5097,23.8567
		c-8.8269,0-15.2682-1.9078-23.857-4.6512L164.4182,261.6019z"/>
	<path id="XMLID_54_" class="st0" d="M224.2942,193.133h14.4339l7.873,42.4652c1.0739,5.8451,2.0271,14.075,2.9822,21.5903
		c0.8347-7.5153,1.9086-15.7452,3.2203-21.5903l5.3677-23.1419c1.7898-7.753,6.0836-13.9574,15.1497-13.9574
		c9.0655,0,13.4789,6.2044,15.149,13.9574l5.2486,23.1419c1.3124,5.8451,2.3855,14.3135,3.3402,21.9495
		c0.8348-7.636,1.9087-15.9859,2.9819-21.9495l7.873-42.4652h14.5535l-16.9392,83.2609h-16.1037l-14.0757-62.2668
		c-0.3574-1.7901-0.8352-2.6248-2.0276-2.6248c-1.1927,0-1.7897,0.8347-2.147,2.6248l-13.9566,62.2668h-15.984L224.2942,193.133z"/>
	<path id="XMLID_52_" class="st0" d="M341.9052,193.133h15.6259l18.1323,62.2669c0.597,1.9079,1.1931,3.1003,2.3856,3.1003
		c1.1931,0,1.7893-1.1924,2.3856-3.1003l18.0115-62.2669h15.6267l10.4963,83.2609h-14.1943l-5.2482-44.2545
		c-0.4776-3.9364-0.8362-9.4246-1.0746-14.5542c-1.0717,5.3688-2.2656,10.8555-3.4588,14.9112l-6.9183,24.5729
		c-2.267,7.873-6.442,13.9558-15.6259,13.9558c-9.0662,0-13.4796-6.0828-15.6268-13.9558l-7.0382-25.1691
		c-1.1932-4.0565-2.6241-9.7824-3.578-15.029c-0.3585,5.4866-0.5962,11.3318-1.0747,15.506l-5.1281,44.0167h-14.1951
		L341.9052,193.133z"/>
	<path id="XMLID_49_" class="st0" d="M439.9491,193.133h23.6189c18.847,0,29.2249,12.4042,29.2249,26.8385
		c0,14.6728-10.3779,26.7207-29.2249,26.7207h-9.4238v29.7017h-14.1951V193.133z M463.0904,234.762
		c10.2585,0,14.7927-7.2753,14.7927-14.7905c0-7.873-4.5342-14.792-14.7927-14.792h-8.9462v29.5825H463.0904z"/>
</g>
</svg>
