<?xml version="1.0" encoding="utf-8"?>
<!-- Generator: Adobe Illustrator 22.1.0, SVG Export Plug-In . SVG Version: 6.00 Build 0)  -->
<svg version="1.1" xmlns="http://www.w3.org/2000/svg" xmlns:xlink="http://www.w3.org/1999/xlink" x="0px" y="0px"
	 viewBox="0 0 995.0724 228.9554" style="enable-background:new 0 0 995.0724 228.9554;" xml:space="preserve">
<style type="text/css">
	.st0{fill-rule:evenodd;clip-rule:evenodd;fill:#999999;}
</style>
<g id="New_Layer">
	<g>
		<path class="st0" d="M1,114.3351v113.3351h29.6525h29.6525v-30.0802V167.51l18.4473,0.057l18.4758,0.0855l0.6273,1.1405
			c0.3707,0.6273,8.2114,14.0849,17.4208,29.9376l16.7935,28.7971l34.2714,0.0855c18.8464,0.0285,34.2144-0.0285,34.1574-0.1425
			c-0.0855-0.1426-10.8631-18.6183-23.9786-41.1143l-23.8645-40.8577l3.5355-3.6495c12.4883-12.8589,20.4716-29.681,22.7811-47.9001
			c0.4847-3.8491,0.4847-15.1969,0-19.103c-1.9103-15.3395-7.8978-29.7665-17.5064-42.1407
			c-3.0508-3.9347-9.8081-10.6635-13.6857-13.6858c-10.4069-8.0689-21.9257-13.5147-34.1574-16.1378
			c-8.354-1.7963-4.9041-1.7107-61.2152-1.7963L1,0.9715L1,114.3351z M102.5882,51.6088c6.6433,1.169,12.1461,3.9347,16.9646,8.5251
			c6.7003,6.4152,10.0647,14.3415,10.0647,23.6935c0,7.3276-1.9958,13.5147-6.1301,19.103
			c-4.79,6.5007-11.2052,10.6065-19.5592,12.5738c-1.9103,0.4562-4.2768,0.5132-22.8666,0.5987l-20.7567,0.1141V83.6848V51.1811
			h19.9299C96.6007,51.1811,100.5924,51.2666,102.5882,51.6088z"/>
		<path class="st0" d="M230.2363,114.4777v113.4777h29.795h29.795l0.057-58.0219l0.0855-58.0504l29.5954,26.8298
			c16.2803,14.7407,29.6525,26.8013,29.7095,26.8013c0.0855,0,13.4006-12.1461,29.5669-26.9723l29.4529-26.9438l0.0855,58.1644
			l0.057,58.193h29.795h29.795V114.4777V1h-13.3436h-13.3436l-46.0183,42.0552c-38.8048,35.4689-46.0754,41.9982-46.4175,41.6845
			c-0.2566-0.1711-21.0418-19.103-46.2179-42.0552L256.9236,1H243.58h-13.3436V114.4777z"/>
		<path class="st0" d="M513.6454,114.4777v113.4777h29.795h29.795l0.0571-58.0219l0.0855-58.0504l29.5955,26.8298
			c16.2803,14.7407,29.6525,26.8013,29.7095,26.8013c0.0855,0,13.3721-12.1461,29.567-26.9723l29.4529-26.9438l0.0855,58.1644
			l0.057,58.193h29.795h29.795V114.4777V1h-13.3436h-13.3436l-46.0183,42.0552c-38.8333,35.4974-46.0754,41.9982-46.4175,41.6845
			c-0.2566-0.1711-21.0418-19.103-46.2179-42.0552L540.3327,1h-13.3436h-13.3436V114.4777z"/>
		<path class="st0" d="M797.3397,114.3351v113.3636l46.1324-0.114c50.4092-0.0855,48.2993-0.0285,57.9363-1.7962
			c40.4015-7.4131,73.8175-36.3813,86.8475-75.2716c3.9632-11.918,5.8165-23.3228,5.8165-36.1817
			c0-18.7609-4.0772-35.5544-12.6594-52.2054c-15.9952-30.9925-45.6191-52.9468-80.0046-59.2479
			c-9.6371-1.7677-7.5272-1.7107-57.9363-1.7963l-46.1324-0.114V114.3351z M888.3785,62.1582
			c9.7511,1.283,19.3311,5.4458,27.1149,11.8325c5.3032,4.3053,10.692,11.0912,13.8283,17.3638
			c10.5779,21.0704,6.2156,46.1324-10.8345,62.6123c-8.183,7.9263-18.7609,13.087-29.7665,14.5126
			c-2.1669,0.2851-7.6127,0.4847-17.7344,0.6273l-14.6266,0.1711v-53.7736V61.7305h14.3701
			C881.8777,61.7305,885.8694,61.8161,888.3785,62.1582z"/>
	</g>
</g>
<g id="MasterLayer_1">
</g>
</svg>
