<?xml version="1.0" encoding="utf-8"?>
<!-- Generator: Adobe Illustrator 22.1.0, SVG Export Plug-In . SVG Version: 6.00 Build 0)  -->
<svg version="1.1" id="Layer_1" xmlns="http://www.w3.org/2000/svg" xmlns:xlink="http://www.w3.org/1999/xlink" x="0px" y="0px"
	 viewBox="0 0 354.545 190.9539" style="enable-background:new 0 0 354.545 190.9539;" xml:space="preserve">
<style type="text/css">
	.st0{fill:#ED1C24;}
	.st1{fill:#FFFFFF;}
</style>
<path id="XMLID_394_" d="M56.8698,12.4274c0.5848,0.3706,1.2698,0.5836,2.1981,0.5836c1.2272,0,2.2408-0.6274,2.2408-2.0399
	c0-1.9562-4.567-2.1976-4.567-4.8097c0-1.5988,1.3979-2.5968,3.1542-2.5968c0.4846,0,1.2699,0.0703,1.955,0.3269l-0.1571,0.8992
	C61.2511,4.5493,60.5521,4.42,59.8811,4.42c-1.0275,0-2.1545,0.4296-2.1545,1.7129c0,1.998,4.5669,2.0113,4.5669,4.9238
	c0,2.0132-1.7275,2.8117-3.2683,2.8117c-0.9709,0-1.7275-0.1997-2.2556-0.4278L56.8698,12.4274L56.8698,12.4274z"/>
<path id="XMLID_393_" d="M70.025,7.3876c-0.4853-0.2129-1.0702-0.3707-1.5556-0.3707c-1.7556,0-2.7403,1.2718-2.7403,3.0398
	c0,1.6558,0.9988,3.0399,2.6409,3.0399c0.5709,0,1.0983-0.1275,1.6411-0.3271l0.0854,0.8422
	c-0.6135,0.2129-1.1843,0.2567-1.8696,0.2567c-2.3409,0-3.4827-1.7832-3.4827-3.8117c0-2.2394,1.4416-3.8097,3.597-3.8097
	c0.8707,0,1.4982,0.1995,1.7553,0.2851L70.025,7.3876L70.025,7.3876z"/>
<path id="XMLID_392_" d="M72.7327,2.9923h0.8986v4.6539h0.0288c0.3854-0.8004,1.1994-1.3992,2.2697-1.3992
	c1.9548,0,2.483,1.2984,2.483,3.0968v4.3534h-0.8994V9.359c0-1.2566-0.2422-2.3421-1.7266-2.3421
	c-1.5984,0-2.1555,1.5132-2.1555,2.7851v3.8952h-0.8986V2.9923L72.7327,2.9923z"/>
<polygon id="XMLID_391_" points="89.2551,13.6972 88.1708,13.6972 86.1861,7.4028 86.1583,7.4028 84.1746,13.6972 83.0894,13.6972 
	80.7491,6.418 81.7341,6.418 83.6465,12.7125 83.6742,12.7125 85.7015,6.418 86.7857,6.418 88.7129,12.7125 88.7416,12.7125 
	90.7533,6.418 91.6526,6.418 89.2551,13.6972 "/>
<path id="XMLID_388_" d="M98.4262,9.5434c0-1.2699-0.5133-2.5265-1.8547-2.5265c-1.3273,0-2.1415,1.3269-2.1415,2.5265H98.4262
	L98.4262,9.5434z M98.869,13.4691c-0.6285,0.2567-1.4416,0.3993-2.1128,0.3993c-2.4116,0-3.311-1.6274-3.311-3.8117
	c0-2.2261,1.228-3.8097,3.0687-3.8097c2.0552,0,2.8973,1.6558,2.8973,3.6101v0.4581H94.43c0,1.5418,0.8281,2.7814,2.3978,2.7814
	c0.6572,0,1.6133-0.2701,2.0412-0.5418V13.4691L98.869,13.4691z"/>
<path id="XMLID_385_" d="M102.2339,6.418h0.8986v7.2792h-0.8986V6.418L102.2339,6.418z M103.1325,4.477h-0.8986V3.2775h0.8986V4.477
	L103.1325,4.477z"/>
<polygon id="XMLID_384_" points="105.8421,12.9406 110.2236,7.188 106.0138,7.188 106.0138,6.418 111.2659,6.418 111.2659,7.188 
	106.8835,12.9274 111.2659,12.9274 111.2659,13.6972 105.8421,13.6972 105.8421,12.9406 "/>
<path id="XMLID_381_" d="M118.3969,9.5434c0-1.2699-0.5135-2.5265-1.8548-2.5265c-1.3274,0-2.1416,1.3269-2.1416,2.5265H118.3969
	L118.3969,9.5434z M118.8396,13.4691c-0.6285,0.2567-1.4415,0.3993-2.1128,0.3993c-2.4115,0-3.3112-1.6274-3.3112-3.8117
	c0-2.2261,1.2282-3.8097,3.0689-3.8097c2.0553,0,2.8972,1.6558,2.8972,3.6101v0.4581h-4.9812c0,1.5418,0.8282,2.7814,2.3978,2.7814
	c0.6571,0,1.6134-0.2701,2.0413-0.5418V13.4691L118.8396,13.4691z"/>
<path id="XMLID_380_" d="M122.2046,8.0454c0-0.8004,0-1.0989-0.0577-1.6274h0.8996v1.3993h0.0287
	c0.3278-0.8137,0.9412-1.5703,1.8695-1.5703c0.2135,0,0.4707,0.0418,0.6276,0.0855v0.941c-0.1857-0.0551-0.428-0.0855-0.6563-0.0855
	c-1.4277,0-1.8128,1.5988-1.8128,2.9124v3.5968h-0.8986V8.0454L122.2046,8.0454z"/>
<path id="XMLID_377_" d="M128.0674,6.418h0.8984v7.2792h-0.8984V6.418L128.0674,6.418z M128.9658,4.477h-0.8984V3.2775h0.8984V4.477
	L128.9658,4.477z"/>
<path id="XMLID_376_" d="M131.7898,12.6403c0.542,0.2718,1.1991,0.4563,1.8982,0.4563c0.8559,0,1.6125-0.4697,1.6125-1.2985
	c0-1.7262-3.4969-1.4543-3.4969-3.5684c0-1.4409,1.1706-1.9827,2.3699-1.9827c0.3852,0,1.1556,0.0855,1.7981,0.3288l-0.0854,0.7852
	c-0.4717-0.2148-1.114-0.3441-1.6134-0.3441c-0.9275,0-1.5696,0.287-1.5696,1.2128c0,1.3574,3.5821,1.1863,3.5821,3.5684
	c0,1.5417-1.4417,2.0703-2.5407,2.0703c-0.699,0-1.3978-0.0856-2.0403-0.3422L131.7898,12.6403L131.7898,12.6403z"/>
<path id="XMLID_375_" d="M143.7459,7.3876c-0.4856-0.2129-1.0704-0.3707-1.5559-0.3707c-1.7552,0-2.7402,1.2718-2.7402,3.0398
	c0,1.6558,0.9988,3.0399,2.6408,3.0399c0.5708,0,1.0982-0.1275,1.6412-0.3271l0.0853,0.8422
	c-0.6134,0.2129-1.1844,0.2567-1.8693,0.2567c-2.3412,0-3.4829-1.7832-3.4829-3.8117c0-2.2394,1.4415-3.8097,3.597-3.8097
	c0.8707,0,1.4983,0.1995,1.7552,0.2851L143.7459,7.3876L143.7459,7.3876z"/>
<path id="XMLID_374_" d="M146.4545,2.9923h0.8984v4.6539h0.0288c0.3853-0.8004,1.1984-1.3992,2.2697-1.3992
	c1.9548,0,2.483,1.2984,2.483,3.0968v4.3534h-0.8994V9.359c0-1.2566-0.2422-2.3421-1.7266-2.3421
	c-1.5984,0-2.1555,1.5132-2.1555,2.7851v3.8952h-0.8984V2.9923L146.4545,2.9923z"/>
<path id="XMLID_371_" d="M159.9365,9.5434c0-1.2699-0.5135-2.5265-1.8546-2.5265c-1.3275,0-2.1416,1.3269-2.1416,2.5265H159.9365
	L159.9365,9.5434z M160.3794,13.4691c-0.6285,0.2567-1.4417,0.3993-2.1129,0.3993c-2.4116,0-3.3112-1.6274-3.3112-3.8117
	c0-2.2261,1.2282-3.8097,3.069-3.8097c2.055,0,2.897,1.6558,2.897,3.6101v0.4581h-4.981c0,1.5418,0.828,2.7814,2.3976,2.7814
	c0.6572,0,1.6135-0.2701,2.0415-0.5418V13.4691L160.3794,13.4691z"/>
<polygon id="XMLID_370_" points="168.4941,3.7356 173.376,3.7356 173.376,4.5911 169.4791,4.5911 169.4791,8.1442 173.1753,8.1442 
	173.1753,9.0016 169.4791,9.0016 169.4791,12.8418 173.5467,12.8418 173.5467,13.6972 168.4941,13.6972 168.4941,3.7356 "/>
<path id="XMLID_367_" d="M176.64,6.418h0.8974v7.2792H176.64V6.418L176.64,6.418z M177.5374,4.477H176.64V3.2775h0.8974V4.477
	L177.5374,4.477z"/>
<path id="XMLID_364_" d="M183.6303,13.0966c1.5988,0,2.1539-1.711,2.1539-3.0399c0-1.325-0.5551-3.0398-2.1539-3.0398
	c-1.711,0-2.1558,1.6273-2.1558,3.0398C181.4745,11.4711,181.9193,13.0966,183.6303,13.0966L183.6303,13.0966z M186.6834,13.6972
	h-0.8992v-1.1558h-0.0266c-0.4866,0.9277-1.228,1.327-2.2699,1.327c-1.998,0-2.9979-1.6559-2.9979-3.8117
	c0-2.2109,0.8573-3.8097,2.9979-3.8097c1.4278,0,2.1406,1.0418,2.2699,1.3992h0.0266V2.9923h0.8992V13.6972L186.6834,13.6972z"/>
<path id="XMLID_361_" d="M192.6167,12.9274c1.6273,0,2.2129-1.5418,2.2129-2.8707c0-1.7547-0.5133-3.0398-2.154-3.0398
	c-1.7147,0-2.1576,1.6273-2.1576,3.0398C190.518,11.4844,191.0901,12.9274,192.6167,12.9274L192.6167,12.9274z M195.7269,13.0966
	c0,2.0284-0.9126,3.6823-3.4087,3.6823c-0.9582,0-1.8269-0.2699-2.1977-0.3841l0.0704-0.8991
	c0.5571,0.2851,1.3555,0.5133,2.1406,0.5133c2.3118,0,2.5113-1.6844,2.5113-3.7395h-0.0285
	c-0.4847,1.0571-1.2851,1.4277-2.2109,1.4277c-2.3269,0-3.0683-2.0265-3.0683-3.6405c0-2.2109,0.8573-3.8097,2.9961-3.8097
	c0.9715,0,1.5988,0.1292,2.2698,0.998h0.0286V6.418h0.8973V13.0966L195.7269,13.0966z"/>
<path id="XMLID_358_" d="M203.4452,9.5434c0-1.2699-0.5151-2.5265-1.8554-2.5265c-1.327,0-2.1425,1.3269-2.1425,2.5265H203.4452
	L203.4452,9.5434z M203.8882,13.4691c-0.6292,0.2567-1.4429,0.3993-2.1121,0.3993c-2.4144,0-3.3117-1.6274-3.3117-3.8117
	c0-2.2261,1.2282-3.8097,3.0684-3.8097c2.055,0,2.8972,1.6558,2.8972,3.6101v0.4581h-4.9827c0,1.5418,0.8289,2.7814,2.3991,2.7814
	c0.6578,0,1.6142-0.2701,2.0418-0.5418V13.4691L203.8882,13.4691z"/>
<path id="XMLID_357_" d="M207.2531,8.1309c0-0.557,0-1.1273-0.0571-1.7129h0.8708v1.2985h0.0285
	c0.2985-0.6559,0.8422-1.4695,2.3535-1.4695c1.7985,0,2.4847,1.1995,2.4847,2.7983v4.6519h-0.901V9.2734
	c0-1.3706-0.4829-2.2565-1.7262-2.2565c-1.6407,0-2.1559,1.441-2.1559,2.6558v4.0245h-0.8973V8.1309L207.2531,8.1309z"/>
<path id="XMLID_354_" d="M219.1368,13.0966c1.5684,0,2.4106-1.3536,2.4106-3.0399c0-1.6824-0.8422-3.0398-2.4106-3.0398
	c-1.5684,0-2.4125,1.3574-2.4125,3.0398C216.7243,11.743,217.5684,13.0966,219.1368,13.0966L219.1368,13.0966z M219.1368,6.247
	c2.3554,0,3.3953,1.8269,3.3953,3.8097c0,1.9847-1.0399,3.8117-3.3953,3.8117c-2.3555,0-3.3954-1.827-3.3954-3.8117
	C215.7414,8.0739,216.7813,6.247,219.1368,6.247L219.1368,6.247z"/>
<path id="XMLID_353_" d="M224.783,12.6403c0.5437,0.2718,1.1977,0.4563,1.9011,0.4563c0.8536,0,1.6102-0.4697,1.6102-1.2985
	c0-1.7262-3.498-1.4543-3.498-3.5684c0-1.4409,1.173-1.9827,2.3707-1.9827c0.3858,0,1.1577,0.0855,1.8002,0.3288l-0.0855,0.7852
	c-0.4714-0.2148-1.114-0.3441-1.6158-0.3441c-0.9259,0-1.5684,0.287-1.5684,1.2128c0,1.3574,3.5815,1.1863,3.5815,3.5684
	c0,1.5417-1.4409,2.0703-2.5398,2.0703c-0.6976,0-1.3992-0.0856-2.0399-0.3422L224.783,12.6403L224.783,12.6403z"/>
<path id="XMLID_352_" d="M231.4462,12.6403c0.5438,0.2718,1.1996,0.4563,1.8974,0.4563c0.8574,0,1.6121-0.4697,1.6121-1.2985
	c0-1.7262-3.4962-1.4543-3.4962-3.5684c0-1.4409,1.1712-1.9827,2.3707-1.9827c0.384,0,1.1558,0.0855,1.7985,0.3288l-0.0856,0.7852
	c-0.4715-0.2148-1.114-0.3441-1.614-0.3441c-0.9259,0-1.5684,0.287-1.5684,1.2128c0,1.3574,3.5816,1.1863,3.5816,3.5684
	c0,1.5417-1.4429,2.0703-2.5417,2.0703c-0.6977,0-1.3974-0.0856-2.0399-0.3422L231.4462,12.6403L231.4462,12.6403z"/>
<path id="XMLID_349_" d="M243.1018,9.5434c0-1.2699-0.5115-2.5265-1.8554-2.5265c-1.3271,0-2.1388,1.3269-2.1388,2.5265H243.1018
	L243.1018,9.5434z M243.5447,13.4691c-0.6274,0.2567-1.4411,0.3993-2.114,0.3993c-2.4086,0-3.3097-1.6274-3.3097-3.8117
	c0-2.2261,1.228-3.8097,3.0683-3.8097c2.0551,0,2.8973,1.6558,2.8973,3.6101v0.4581h-4.979c0,1.5418,0.8271,2.7814,2.3954,2.7814
	c0.6558,0,1.614-0.2701,2.0417-0.5418V13.4691L243.5447,13.4691z"/>
<path id="XMLID_348_" d="M246.9096,8.1309c0-0.557,0-1.1273-0.057-1.7129h0.8708v1.2985h0.0285
	c0.3002-0.6559,0.8421-1.4695,2.3553-1.4695c1.7985,0,2.481,1.1995,2.481,2.7983v4.6519h-0.8973V9.2734
	c0-1.3706-0.4868-2.2565-1.7262-2.2565c-1.6426,0-2.1559,1.441-2.1559,2.6558v4.0245h-0.8992V8.1309L246.9096,8.1309z"/>
<path id="XMLID_347_" d="M255.396,12.6403c0.5419,0.2718,1.1997,0.4563,1.8993,0.4563c0.8554,0,1.614-0.4697,1.614-1.2985
	c0-1.7262-3.498-1.4543-3.498-3.5684c0-1.4409,1.1691-1.9827,2.3687-1.9827c0.3859,0,1.1559,0.0855,1.7985,0.3288l-0.0856,0.7852
	c-0.4715-0.2148-1.114-0.3441-1.6121-0.3441c-0.9296,0-1.5703,0.287-1.5703,1.2128c0,1.3574,3.5817,1.1863,3.5817,3.5684
	c0,1.5417-1.4411,2.0703-2.5399,2.0703c-0.6997,0-1.3992-0.0856-2.0417-0.3422L255.396,12.6403L255.396,12.6403z"/>
<path id="XMLID_346_" d="M267.3519,7.3876c-0.4847-0.2129-1.0683-0.3707-1.5551-0.3707c-1.7546,0-2.7412,1.2718-2.7412,3.0398
	c0,1.6558,0.9999,3.0399,2.6425,3.0399c0.5702,0,1.0968-0.1275,1.6405-0.3271l0.0855,0.8422
	c-0.614,0.2129-1.1844,0.2567-1.8687,0.2567c-2.3422,0-3.4828-1.7832-3.4828-3.8117c0-2.2394,1.4411-3.8097,3.5969-3.8097
	c0.8688,0,1.4962,0.1995,1.7546,0.2851L267.3519,7.3876L267.3519,7.3876z"/>
<path id="XMLID_345_" d="M270.063,2.9923h0.899v4.6539h0.0267c0.3841-0.8004,1.1977-1.3992,2.2718-1.3992
	c1.9523,0,2.479,1.2984,2.479,3.0968v4.3534h-0.8973V9.359c0-1.2566-0.2414-2.3421-1.728-2.3421
	c-1.5951,0-2.1522,1.5132-2.1522,2.7851v3.8952h-0.899V2.9923L270.063,2.9923z"/>
<path id="XMLID_342_" d="M283.2032,10.0301h-0.2604c-1.5552,0-3.4087,0.1559-3.4087,1.7547c0,0.9562,0.6844,1.3118,1.5113,1.3118
	c2.114,0,2.1578-1.8403,2.1578-2.6254V10.0301L283.2032,10.0301z M283.2886,12.5262h-0.0304
	c-0.4011,0.8707-1.4144,1.3422-2.3136,1.3422c-2.0664,0-2.3934-1.3992-2.3934-2.0551c0-2.441,2.595-2.5551,4.4771-2.5551h0.1749
	V8.8876c0-1.2414-0.445-1.8707-1.6559-1.8707c-0.7586,0-1.4715,0.1711-2.1424,0.6007V6.747c0.5569-0.272,1.4999-0.5,2.1424-0.5
	c1.7965,0,2.555,0.8136,2.555,2.7128v3.2109c0,0.5836,0,1.0266,0.0704,1.5265h-0.8841V12.5262L283.2886,12.5262z"/>
<path id="XMLID_341_" d="M287.9634,7.188h-1.4713v-0.77h1.4713V5.8895c0-1.5265,0.059-3.0683,1.9277-3.0683
	c0.2852,0,0.6712,0.0437,0.8422,0.1426l-0.0551,0.7851c-0.1863-0.0988-0.4582-0.1578-0.7168-0.1578
	c-1.2261,0-1.0988,1.3289-1.0988,2.1996V6.418h1.6406v0.77h-1.6406v6.5092h-0.8992V7.188L287.9634,7.188z"/>
<path id="XMLID_340_" d="M296.3549,7.188h-1.6559v4.7109c0,0.6559,0.2415,1.1977,0.9695,1.1977
	c0.3403,0,0.5703-0.0704,0.8271-0.1692l0.055,0.7413c-0.211,0.0856-0.652,0.1997-1.0988,0.1997c-1.595,0-1.652-1.0989-1.652-2.4258
	V7.188h-1.4296v-0.77h1.4296V4.6634l0.8992-0.3156V6.418h1.6559V7.188L296.3549,7.188z"/>
<path id="XMLID_339_" d="M63.8632,24.5239c-0.6283-0.3269-1.527-0.4277-2.2269-0.4277c-2.5834,0-4.0388,1.8269-4.0388,4.2965
	c0,2.5113,1.4129,4.2963,4.0388,4.2963c0.6572,0,1.656-0.0855,2.2269-0.4296l0.0567,0.8574
	c-0.5423,0.3289-1.6551,0.4278-2.2836,0.4278c-3.1392,0-5.0236-2.0703-5.0236-5.1519c0-3.0247,1.941-5.152,5.0236-5.152
	c0.5857,0,1.7703,0.0988,2.2836,0.3707L63.8632,24.5239L63.8632,24.5239z"/>
<path id="XMLID_336_" d="M70.0382,32.7746c1.5705,0,2.4124-1.3555,2.4124-3.0417c0-1.6824-0.8419-3.0379-2.4124-3.0379
	c-1.5698,0-2.4118,1.3555-2.4118,3.0379C67.6264,31.4191,68.4684,32.7746,70.0382,32.7746L70.0382,32.7746z M70.0382,25.9231
	c2.3548,0,3.3973,1.827,3.3973,3.8098c0,1.9847-1.0425,3.8117-3.3973,3.8117c-2.3551,0-3.3968-1.827-3.3968-3.8117
	C66.6414,27.7501,67.6831,25.9231,70.0382,25.9231L70.0382,25.9231z"/>
<path id="XMLID_335_" d="M76.2425,27.8071c0-0.5571,0-1.1274-0.0574-1.7129h0.8708v1.2985h0.0286
	c0.2998-0.656,0.8419-1.4696,2.355-1.4696c1.7981,0,2.483,1.1996,2.483,2.7984v4.6519h-0.8994v-4.4237
	c0-1.3707-0.4846-2.2547-1.7265-2.2547c-1.6412,0-2.1555,1.441-2.1555,2.6539v4.0245h-0.8986V27.8071L76.2425,27.8071z"/>
<path id="XMLID_334_" d="M85.9002,26.866h-1.4703v-0.7718h1.4703v-0.5285c0-1.5266,0.0566-3.0684,1.9262-3.0684
	c0.2858,0,0.671,0.0438,0.8419,0.1426l-0.0567,0.7871c-0.1857-0.1008-0.4566-0.1578-0.7137-0.1578
	c-1.2272,0-1.0991,1.327-1.0991,2.1976v0.6274H88.44v0.7718h-1.6412v6.5074h-0.8986V26.866L85.9002,26.866z"/>
<path id="XMLID_330_" d="M94.0893,23.2825h1.1269l-1.798,2.0551h-0.6563L94.0893,23.2825L94.0893,23.2825z M95.5875,29.2195
	c0-1.2698-0.5132-2.5245-1.8547-2.5245c-1.3274,0-2.1413,1.3269-2.1413,2.5245H95.5875L95.5875,29.2195z M96.0302,33.1453
	c-0.6282,0.2567-1.4416,0.3993-2.1126,0.3993c-2.4117,0-3.3111-1.6274-3.3111-3.8117c0-2.2262,1.2281-3.8098,3.0689-3.8098
	c2.0551,0,2.897,1.6559,2.897,3.6102v0.4581h-4.9809c0,1.5418,0.8278,2.7832,2.3976,2.7832c0.6572,0,1.6132-0.2718,2.0411-0.5437
	V33.1453L96.0302,33.1453z"/>
<path id="XMLID_327_" d="M102.1057,32.7746c1.5987,0,2.1556-1.7129,2.1556-3.0417c0-1.327-0.5569-3.0379-2.1556-3.0379
	c-1.7125,0-2.1554,1.6254-2.1554,3.0379C99.9503,31.1473,100.3932,32.7746,102.1057,32.7746L102.1057,32.7746z M105.1598,33.3734
	h-0.8985v-1.1558h-0.0288c-0.4855,0.9277-1.2281,1.327-2.2697,1.327c-1.9975,0-2.9973-1.6559-2.9973-3.8117
	c0-2.211,0.8569-3.8098,2.9973-3.8098c1.4277,0,2.1406,1.0418,2.2697,1.3992h0.0288v-4.6519h0.8985V33.3734L105.1598,33.3734z"/>
<path id="XMLID_323_" d="M111.3783,23.2825h1.1277l-1.799,2.0551h-0.6563L111.3783,23.2825L111.3783,23.2825z M112.8765,29.2195
	c0-1.2698-0.5135-2.5245-1.8556-2.5245c-1.3266,0-2.1406,1.3269-2.1406,2.5245H112.8765L112.8765,29.2195z M113.3192,33.1453
	c-0.6284,0.2567-1.4415,0.3993-2.1128,0.3993c-2.4115,0-3.3111-1.6274-3.3111-3.8117c0-2.2262,1.2281-3.8098,3.0689-3.8098
	c2.0552,0,2.897,1.6559,2.897,3.6102v0.4581h-4.9809c0,1.5418,0.8281,2.7832,2.3975,2.7832c0.6565,0,1.6136-0.2718,2.0414-0.5437
	V33.1453L113.3192,33.1453z"/>
<path id="XMLID_322_" d="M116.6842,27.7215c0-0.7984,0-1.0988-0.0577-1.6273h0.8996v1.3992h0.0278
	c0.3287-0.8137,0.9422-1.5703,1.8705-1.5703c0.2135,0,0.4707,0.0418,0.6275,0.0855v0.943c-0.1857-0.057-0.4279-0.0856-0.6562-0.0856
	c-1.4277,0-1.8131,1.597-1.8131,2.9106v3.5968h-0.8984V27.7215L116.6842,27.7215z"/>
<path id="XMLID_319_" d="M126.6426,29.7062h-0.2572c-1.5549,0-3.4104,0.1559-3.4104,1.7548c0,0.9562,0.6849,1.3136,1.5131,1.3136
	c2.1117,0,2.1545-1.8421,2.1545-2.6273V29.7062L126.6426,29.7062z M126.7288,32.2024H126.7c-0.4,0.8707-1.4127,1.3422-2.3122,1.3422
	c-2.0691,0-2.3978-1.3992-2.3978-2.0551c0-2.441,2.5973-2.555,4.4817-2.555h0.1709v-0.3708c0-1.2414-0.4419-1.8687-1.6551-1.8687
	c-0.7566,0-1.4705,0.171-2.1406,0.5988v-0.8707c0.5561-0.2718,1.4983-0.5,2.1406-0.5c1.7981,0,2.5545,0.8136,2.5545,2.7109v3.2129
	c0,0.5835,0,1.0265,0.0714,1.5265h-0.8846V32.2024L126.7288,32.2024z"/>
<path id="XMLID_318_" d="M133.9313,26.866h-1.6553v4.709c0,0.6559,0.2424,1.1996,0.9702,1.1996
	c0.3426,0,0.5709-0.0722,0.8279-0.1711l0.0566,0.7414c-0.2134,0.0855-0.6562,0.1997-1.099,0.1997
	c-1.5984,0-1.655-1.0989-1.655-2.4259V26.866h-1.4268v-0.7718h1.4268v-1.7547l0.8993-0.3156v2.0703h1.6553V26.866L133.9313,26.866z"
	/>
<path id="XMLID_315_" d="M136.6548,26.0942h0.8985v7.2792h-0.8985V26.0942L136.6548,26.0942z M137.5533,24.1533h-0.8985v-1.1997
	h0.8985V24.1533L137.5533,24.1533z"/>
<path id="XMLID_312_" d="M143.7736,32.7746c1.5707,0,2.4125-1.3555,2.4125-3.0417c0-1.6824-0.8418-3.0379-2.4125-3.0379
	c-1.5697,0-2.4118,1.3555-2.4118,3.0379C141.3618,31.4191,142.2039,32.7746,143.7736,32.7746L143.7736,32.7746z M143.7736,25.9231
	c2.3551,0,3.3975,1.827,3.3975,3.8098c0,1.9847-1.0424,3.8117-3.3975,3.8117c-2.3551,0-3.3964-1.827-3.3964-3.8117
	C140.3772,27.7501,141.4185,25.9231,143.7736,25.9231L143.7736,25.9231z"/>
<path id="XMLID_311_" d="M149.9791,27.8071c0-0.5571,0-1.1274-0.0575-1.7129h0.8705v1.2985h0.0288
	c0.2998-0.656,0.842-1.4696,2.3551-1.4696c1.798,0,2.4831,1.1996,2.4831,2.7984v4.6519h-0.8996v-4.4237
	c0-1.3707-0.4855-2.2547-1.7265-2.2547c-1.6412,0-2.1555,1.441-2.1555,2.6539v4.0245h-0.8984V27.8071L149.9791,27.8071z"/>
<path id="XMLID_310_" d="M163.4017,32.3164c0.5422,0.2719,1.1984,0.4582,1.8982,0.4582c0.8559,0,1.6125-0.4714,1.6125-1.3003
	c0-1.7262-3.4969-1.4544-3.4969-3.5683c0-1.4392,1.1707-1.9829,2.3699-1.9829c0.3852,0,1.1557,0.0855,1.798,0.3289l-0.0854,0.7833
	c-0.4715-0.213-1.1138-0.3403-1.6132-0.3403c-0.9272,0-1.5697,0.2851-1.5697,1.211c0,1.3573,3.5822,1.1843,3.5822,3.5683
	c0,1.5418-1.4416,2.0703-2.5407,2.0703c-0.6989,0-1.3979-0.0856-2.0403-0.3423L163.4017,32.3164L163.4017,32.3164z"/>
<path id="XMLID_309_" d="M176.2998,31.6606c0,0.557,0,1.1273,0.057,1.7128h-0.8707V32.075h-0.0285
	c-0.3003,0.6559-0.8422,1.4696-2.3547,1.4696c-1.7981,0-2.483-1.1997-2.483-2.7965v-4.6539h0.8985v4.4239
	c0,1.3706,0.4855,2.2565,1.7274,2.2565c1.6414,0,2.1547-1.4429,2.1547-2.6539v-4.0265h0.8993V31.6606L176.2998,31.6606z"/>
<path id="XMLID_306_" d="M179.6646,26.0942h0.8993v7.2792h-0.8993V26.0942L179.6646,26.0942z M180.5639,24.1533h-0.8993v-1.1997
	h0.8993V24.1533L180.5639,24.1533z"/>
<path id="XMLID_305_" d="M183.387,32.3164c0.5418,0.2719,1.1976,0.4582,1.8992,0.4582c0.8536,0,1.6121-0.4714,1.6121-1.3003
	c0-1.7262-3.498-1.4544-3.498-3.5683c0-1.4392,1.1711-1.9829,2.3706-1.9829c0.384,0,1.1559,0.0855,1.7984,0.3289l-0.0855,0.7833
	c-0.4714-0.213-1.114-0.3403-1.6141-0.3403c-0.9276,0-1.5683,0.2851-1.5683,1.211c0,1.3573,3.5797,1.1843,3.5797,3.5683
	c0,1.5418-1.4391,2.0703-2.5398,2.0703c-0.6977,0-1.3973-0.0856-2.0399-0.3423L183.387,32.3164L183.387,32.3164z"/>
<path id="XMLID_304_" d="M190.0484,32.3164c0.5418,0.2719,1.1976,0.4582,1.8991,0.4582c0.8536,0,1.6121-0.4714,1.6121-1.3003
	c0-1.7262-3.4979-1.4544-3.4979-3.5683c0-1.4392,1.171-1.9829,2.3706-1.9829c0.384,0,1.1559,0.0855,1.7984,0.3289l-0.0855,0.7833
	c-0.4715-0.213-1.114-0.3403-1.614-0.3403c-0.9277,0-1.5703,0.2851-1.5703,1.211c0,1.3573,3.5815,1.1843,3.5815,3.5683
	c0,1.5418-1.4409,2.0703-2.5397,2.0703c-0.6977,0-1.3974-0.0856-2.0399-0.3423L190.0484,32.3164L190.0484,32.3164z"/>
<path id="XMLID_301_" d="M201.7057,29.2195c0-1.2698-0.5132-2.5245-1.8573-2.5245c-1.3251,0-2.1388,1.3269-2.1388,2.5245H201.7057
	L201.7057,29.2195z M202.1469,33.1453c-0.6275,0.2567-1.4412,0.3993-2.1121,0.3993c-2.4107,0-3.3098-1.6274-3.3098-3.8117
	c0-2.2262,1.2261-3.8098,3.0683-3.8098c2.055,0,2.8954,1.6559,2.8954,3.6102v0.4581h-4.9791c0,1.5418,0.829,2.7832,2.3974,2.7832
	c0.6558,0,1.614-0.2718,2.0399-0.5437V33.1453L202.1469,33.1453z"/>
<path id="XMLID_300_" d="M63.8632,44.202c-0.6283-0.3289-1.527-0.4296-2.2269-0.4296c-2.5834,0-4.0388,1.8269-4.0388,4.2964
	c0,2.5113,1.4129,4.2964,4.0388,4.2964c0.6572,0,1.656-0.0855,2.2269-0.4277l0.0567,0.8555
	c-0.5423,0.3289-1.6551,0.4277-2.2836,0.4277c-3.1392,0-5.0236-2.0703-5.0236-5.1519c0-3.0246,1.941-5.1519,5.0236-5.1519
	c0.5857,0,1.7703,0.0988,2.2836,0.3707L63.8632,44.202L63.8632,44.202z"/>
<path id="XMLID_297_" d="M70.0382,52.4508c1.5705,0,2.4124-1.3555,2.4124-3.0417c0-1.6825-0.8419-3.0399-2.4124-3.0399
	c-1.5698,0-2.4118,1.3574-2.4118,3.0399C67.6264,51.0953,68.4684,52.4508,70.0382,52.4508L70.0382,52.4508z M70.0382,45.5993
	c2.3548,0,3.3973,1.8269,3.3973,3.8098c0,1.9847-1.0425,3.8116-3.3973,3.8116c-2.3551,0-3.3968-1.8269-3.3968-3.8116
	C66.6414,47.4262,67.6831,45.5993,70.0382,45.5993L70.0382,45.5993z"/>
<path id="XMLID_296_" d="M76.2425,47.4833c0-0.557,0-1.1274-0.0574-1.7129h0.8708v1.3003h0.0286
	c0.2998-0.6577,0.8419-1.4714,2.355-1.4714c1.7981,0,2.483,1.1996,2.483,2.7984v4.6519h-0.8994v-4.4238
	c0-1.3707-0.4846-2.2566-1.7265-2.2566c-1.6412,0-2.1555,1.443-2.1555,2.6558v4.0246h-0.8986V47.4833L76.2425,47.4833z"/>
<path id="XMLID_295_" d="M85.9002,46.5422h-1.4703v-0.7718h1.4703v-0.5266c0-1.5284,0.0566-3.0703,1.9262-3.0703
	c0.2858,0,0.671,0.0438,0.8419,0.1445l-0.0567,0.7852c-0.1857-0.1008-0.4566-0.1579-0.7137-0.1579
	c-1.2272,0-1.0991,1.327-1.0991,2.1977v0.6274H88.44v0.7718h-1.6412v6.5074h-0.8986V46.5422L85.9002,46.5422z"/>
<path id="XMLID_292_" d="M95.5875,48.8958c0-1.27-0.5132-2.5266-1.8547-2.5266c-1.3274,0-2.1413,1.3289-2.1413,2.5266H95.5875
	L95.5875,48.8958z M96.0302,52.8215c-0.6282,0.2567-1.4416,0.3992-2.1126,0.3992c-2.4117,0-3.3111-1.6273-3.3111-3.8116
	c0-2.2243,1.2281-3.8098,3.0689-3.8098c2.0551,0,2.897,1.6558,2.897,3.6121v0.4561h-4.9809c0,1.5418,0.8278,2.7833,2.3976,2.7833
	c0.6572,0,1.6132-0.2719,2.0411-0.5437V52.8215L96.0302,52.8215z"/>
<path id="XMLID_289_" d="M102.1057,52.4508c1.5987,0,2.1556-1.7129,2.1556-3.0417c0-1.3251-0.5569-3.0399-2.1556-3.0399
	c-1.7125,0-2.1554,1.6274-2.1554,3.0399C99.9503,50.8234,100.3932,52.4508,102.1057,52.4508L102.1057,52.4508z M105.1598,53.0496
	h-0.8985v-1.1559h-0.0288c-0.4855,0.9278-1.2281,1.327-2.2697,1.327c-1.9975,0-2.9973-1.6558-2.9973-3.8116
	c0-2.211,0.8569-3.8098,2.9973-3.8098c1.4277,0,2.1406,1.0418,2.2697,1.3992h0.0288v-4.652h0.8985V53.0496L105.1598,53.0496z"/>
<path id="XMLID_286_" d="M112.8765,48.8958c0-1.27-0.5135-2.5266-1.8556-2.5266c-1.3266,0-2.1406,1.3289-2.1406,2.5266H112.8765
	L112.8765,48.8958z M113.3192,52.8215c-0.6284,0.2567-1.4415,0.3992-2.1128,0.3992c-2.4115,0-3.3111-1.6273-3.3111-3.8116
	c0-2.2243,1.2281-3.8098,3.0689-3.8098c2.0552,0,2.897,1.6558,2.897,3.6121v0.4561h-4.9809c0,1.5418,0.8281,2.7833,2.3975,2.7833
	c0.6565,0,1.6136-0.2719,2.0414-0.5437V52.8215L113.3192,52.8215z"/>
<path id="XMLID_285_" d="M116.6842,47.3977c0-0.8004,0-1.0988-0.0577-1.6273h0.8996v1.3992h0.0278
	c0.3287-0.8137,0.9422-1.5703,1.8705-1.5703c0.2135,0,0.4707,0.0437,0.6275,0.0855v0.9429
	c-0.1857-0.057-0.4279-0.0855-0.6562-0.0855c-1.4277,0-1.8131,1.5988-1.8131,2.9106v3.5968h-0.8984V47.3977L116.6842,47.3977z"/>
<path id="XMLID_282_" d="M126.6426,49.3825h-0.2572c-1.5549,0-3.4104,0.1558-3.4104,1.7546c0,0.9563,0.6849,1.3137,1.5131,1.3137
	c2.1117,0,2.1545-1.8422,2.1545-2.6274V49.3825L126.6426,49.3825z M126.7288,51.8785H126.7c-0.4,0.8707-1.4127,1.3422-2.3122,1.3422
	c-2.0691,0-2.3978-1.3973-2.3978-2.055c0-2.441,2.5973-2.5551,4.4817-2.5551h0.1709v-0.3707c0-1.2414-0.4419-1.8707-1.6551-1.8707
	c-0.7566,0-1.4705,0.173-2.1406,0.6007v-0.8707c0.5561-0.2717,1.4983-0.4999,2.1406-0.4999c1.7981,0,2.5545,0.8137,2.5545,2.7129
	v3.2109c0,0.5836,0,1.0265,0.0714,1.5265h-0.8846V51.8785L126.7288,51.8785z"/>
<polygon id="XMLID_281_" points="130.1208,52.293 134.502,46.5422 130.2916,46.5422 130.2916,45.7704 135.5437,45.7704 
	135.5437,46.5422 131.1622,52.2797 135.5437,52.2797 135.5437,53.0496 130.1208,53.0496 130.1208,52.293 "/>
<path id="XMLID_278_" d="M138.2385,45.7704h0.8983v7.2792h-0.8983V45.7704L138.2385,45.7704z M139.1368,43.8294h-0.8983v-1.1977
	h0.8983V43.8294L139.1368,43.8294z"/>
<path id="XMLID_275_" d="M145.3572,52.4508c1.5707,0,2.4126-1.3555,2.4126-3.0417c0-1.6825-0.8419-3.0399-2.4126-3.0399
	c-1.5697,0-2.4115,1.3574-2.4115,3.0399C142.9457,51.0953,143.7875,52.4508,145.3572,52.4508L145.3572,52.4508z M145.3572,45.5993
	c2.3551,0,3.3974,1.8269,3.3974,3.8098c0,1.9847-1.0423,3.8116-3.3974,3.8116s-3.3965-1.8269-3.3965-3.8116
	C141.9607,47.4262,143.0021,45.5993,145.3572,45.5993L145.3572,45.5993z"/>
<path id="XMLID_274_" d="M151.5617,47.4833c0-0.557,0-1.1274-0.0575-1.7129h0.8706v1.3003h0.0289
	c0.2999-0.6577,0.8419-1.4714,2.3549-1.4714c1.7981,0,2.4832,1.1996,2.4832,2.7984v4.6519h-0.8996v-4.4238
	c0-1.3707-0.4846-2.2566-1.7266-2.2566c-1.6411,0-2.1554,1.443-2.1554,2.6558v4.0246h-0.8985V47.4833L151.5617,47.4833z"/>
<path id="XMLID_271_" d="M165.0438,48.8958c0-1.27-0.5133-2.5266-1.8547-2.5266c-1.3275,0-2.1415,1.3289-2.1415,2.5266H165.0438
	L165.0438,48.8958z M165.4866,52.8215c-0.6286,0.2567-1.4416,0.3992-2.1127,0.3992c-2.4117,0-3.311-1.6273-3.311-3.8116
	c0-2.2243,1.2281-3.8098,3.0687-3.8098c2.0552,0,2.897,1.6558,2.897,3.6121v0.4561h-4.981c0,1.5418,0.8281,2.7833,2.3978,2.7833
	c0.6573,0,1.6133-0.2719,2.0412-0.5437V52.8215L165.4866,52.8215z"/>
<path id="XMLID_270_" d="M173.6154,51.7797c0.5856,0.3707,1.27,0.5855,2.1977,0.5855c1.228,0,2.2413-0.6274,2.2413-2.0417
	c0-1.9543-4.5671-2.1977-4.5671-4.8098c0-1.5988,1.3981-2.5968,3.1547-2.5968c0.4847,0,1.2699,0.0722,1.9542,0.327l-0.1558,0.8992
	c-0.443-0.2415-1.1425-0.3707-1.8137-0.3707c-1.0285,0-2.1539,0.4296-2.1539,1.7128c0,1.9981,4.5664,2.0133,4.5664,4.9238
	c0,2.0133-1.7281,2.8117-3.2679,2.8117c-0.9715,0-1.7282-0.1996-2.2563-0.4277L173.6154,51.7797L173.6154,51.7797z"/>
<polygon id="XMLID_269_" points="184.558,53.0496 183.5029,53.0496 181.0335,45.7704 182.0182,45.7704 184.0314,52.0648 
	184.0599,52.0648 186.1701,45.7704 187.1131,45.7704 184.558,53.0496 "/>
<path id="XMLID_266_" d="M189.478,45.7704h0.8993v7.2792h-0.8993V45.7704L189.478,45.7704z M190.3773,43.8294h-0.8993v-1.1977
	h0.8993V43.8294L190.3773,43.8294z"/>
<polygon id="XMLID_265_" points="193.0881,52.293 197.4682,46.5422 193.2573,46.5422 193.2573,45.7704 198.5082,45.7704 
	198.5082,46.5422 194.1281,52.2797 198.5082,52.2797 198.5082,53.0496 193.0881,53.0496 193.0881,52.293 "/>
<polygon id="XMLID_264_" points="200.5328,52.293 204.9129,46.5422 200.7039,46.5422 200.7039,45.7704 205.9566,45.7704 
	205.9566,46.5422 201.5746,52.2797 205.9566,52.2797 205.9566,53.0496 200.5328,53.0496 200.5328,52.293 "/>
<path id="XMLID_261_" d="M213.0895,48.8958c0-1.27-0.5134-2.5266-1.8555-2.5266c-1.327,0-2.1406,1.3289-2.1406,2.5266H213.0895
	L213.0895,48.8958z M213.5323,52.8215c-0.6292,0.2567-1.4409,0.3992-2.1139,0.3992c-2.4105,0-3.3117-1.6273-3.3117-3.8116
	c0-2.2243,1.2299-3.8098,3.0703-3.8098c2.0532,0,2.8973,1.6558,2.8973,3.6121v0.4561h-4.9809c0,1.5418,0.827,2.7833,2.3954,2.7833
	c0.6577,0,1.6158-0.2719,2.0435-0.5437V52.8215L213.5323,52.8215z"/>
<path id="XMLID_260_" d="M216.8954,47.3977c0-0.8004,0-1.0988-0.057-1.6273h0.8992v1.3992h0.0266
	c0.3307-0.8137,0.943-1.5703,1.8707-1.5703c0.2148,0,0.4732,0.0437,0.6293,0.0855v0.9429c-0.1865-0.057-0.4279-0.0855-0.6579-0.0855
	c-1.4257,0-1.8117,1.5988-1.8117,2.9106v3.5968h-0.8992V47.3977L216.8954,47.3977z"/>
<path id="XMLID_257_" d="M226.8533,49.3825h-0.2548c-1.557,0-3.4124,0.1558-3.4124,1.7546c0,0.9563,0.6862,1.3137,1.5152,1.3137
	c2.1102,0,2.152-1.8422,2.152-2.6274V49.3825L226.8533,49.3825z M226.9388,51.8785h-0.0266
	c-0.3993,0.8707-1.4144,1.3422-2.3118,1.3422c-2.0702,0-2.3991-1.3973-2.3991-2.055c0-2.441,2.5969-2.5551,4.4828-2.5551h0.1692
	v-0.3707c0-1.2414-0.4411-1.8707-1.6559-1.8707c-0.7547,0-1.4695,0.173-2.1387,0.6007v-0.8707
	c0.555-0.2717,1.4961-0.4999,2.1387-0.4999c1.8003,0,2.555,0.8137,2.555,2.7129v3.2109c0,0.5836,0,1.0265,0.0723,1.5265h-0.8859
	V51.8785L226.9388,51.8785z"/>
<path id="XMLID_256_" d="M63.8632,63.8763c-0.6283-0.3289-1.527-0.4278-2.2269-0.4278c-2.5834,0-4.0388,1.827-4.0388,4.2964
	c0,2.5113,1.4129,4.2946,4.0388,4.2946c0.6572,0,1.656-0.0856,2.2269-0.4258l0.0567,0.8535
	c-0.5423,0.3308-1.6551,0.4278-2.2836,0.4278c-3.1392,0-5.0236-2.0684-5.0236-5.1501c0-3.0265,1.941-5.1518,5.0236-5.1518
	c0.5857,0,1.7703,0.0968,2.2836,0.3706L63.8632,63.8763L63.8632,63.8763z"/>
<path id="XMLID_253_" d="M70.0382,72.1251c1.5705,0,2.4124-1.3555,2.4124-3.0399c0-1.6824-0.8419-3.0398-2.4124-3.0398
	c-1.5698,0-2.4118,1.3574-2.4118,3.0398C67.6264,70.7696,68.4684,72.1251,70.0382,72.1251L70.0382,72.1251z M70.0382,65.2755
	c2.3548,0,3.3973,1.8269,3.3973,3.8097c0,1.9847-1.0425,3.8098-3.3973,3.8098c-2.3551,0-3.3968-1.8251-3.3968-3.8098
	C66.6414,67.1024,67.6831,65.2755,70.0382,65.2755L70.0382,65.2755z"/>
<path id="XMLID_252_" d="M76.2425,67.1594c0-0.557,0-1.1273-0.0574-1.7128h0.8708v1.2983h0.0286
	c0.2998-0.6577,0.8419-1.4694,2.355-1.4694c1.7981,0,2.483,1.1995,2.483,2.7965v4.6538h-0.8994v-4.4257
	c0-1.3688-0.4846-2.2547-1.7265-2.2547c-1.6412,0-2.1555,1.4429-2.1555,2.6539v4.0265h-0.8986V67.1594L76.2425,67.1594z"/>
<path id="XMLID_251_" d="M85.9002,66.2185h-1.4703v-0.7719h1.4703v-0.5285c0-1.5266,0.0566-3.0684,1.9262-3.0684
	c0.2858,0,0.671,0.0418,0.8419,0.1425l-0.0567,0.7853c-0.1857-0.1008-0.4566-0.1579-0.7137-0.1579
	c-1.2272,0-1.0991,1.327-1.0991,2.1978v0.6292H88.44v0.7719h-1.6412v6.5073h-0.8986V66.2185L85.9002,66.2185z"/>
<path id="XMLID_248_" d="M95.5875,68.5719c0-1.2699-0.5132-2.5265-1.8547-2.5265c-1.3274,0-2.1413,1.3269-2.1413,2.5265H95.5875
	L95.5875,68.5719z M96.0302,72.4977c-0.6282,0.2547-1.4416,0.3973-2.1126,0.3973c-2.4117,0-3.3111-1.6255-3.3111-3.8098
	c0-2.2242,1.2281-3.8097,3.0689-3.8097c2.0551,0,2.897,1.6558,2.897,3.6101v0.4562h-4.9809c0,1.5438,0.8278,2.7833,2.3976,2.7833
	c0.6572,0,1.6132-0.27,2.0411-0.5419V72.4977L96.0302,72.4977z"/>
<path id="XMLID_245_" d="M102.1057,72.1251c1.5987,0,2.1556-1.711,2.1556-3.0399c0-1.3269-0.5569-3.0398-2.1556-3.0398
	c-1.7125,0-2.1554,1.6273-2.1554,3.0398C99.9503,70.4997,100.3932,72.1251,102.1057,72.1251L102.1057,72.1251z M105.1598,72.7258
	h-0.8985V71.568h-0.0288c-0.4855,0.9297-1.2281,1.327-2.2697,1.327c-1.9975,0-2.9973-1.654-2.9973-3.8098
	c0-2.2109,0.8569-3.8097,2.9973-3.8097c1.4277,0,2.1406,1.0437,2.2697,1.3991h0.0288v-4.6519h0.8985V72.7258L105.1598,72.7258z"/>
<path id="XMLID_242_" d="M112.8765,68.5719c0-1.2699-0.5135-2.5265-1.8556-2.5265c-1.3266,0-2.1406,1.3269-2.1406,2.5265H112.8765
	L112.8765,68.5719z M113.3192,72.4977c-0.6284,0.2547-1.4415,0.3973-2.1128,0.3973c-2.4115,0-3.3111-1.6255-3.3111-3.8098
	c0-2.2242,1.2281-3.8097,3.0689-3.8097c2.0552,0,2.897,1.6558,2.897,3.6101v0.4562h-4.9809c0,1.5438,0.8281,2.7833,2.3975,2.7833
	c0.6565,0,1.6136-0.27,2.0414-0.5419V72.4977L113.3192,72.4977z"/>
<path id="XMLID_241_" d="M116.6842,67.0739c0-0.8004,0-1.0989-0.0577-1.6273h0.8996v1.3992h0.0278
	c0.3287-0.8137,0.9422-1.5703,1.8705-1.5703c0.2135,0,0.4707,0.0418,0.6275,0.0855v0.943c-0.1857-0.059-0.4279-0.0855-0.6562-0.0855
	c-1.4277,0-1.8131,1.5968-1.8131,2.9104v3.5969h-0.8984V67.0739L116.6842,67.0739z"/>
<path id="XMLID_238_" d="M126.6426,69.0586h-0.2572c-1.5549,0-3.4104,0.1559-3.4104,1.7547c0,0.9562,0.6849,1.3118,1.5131,1.3118
	c2.1117,0,2.1545-1.8422,2.1545-2.6254V69.0586L126.6426,69.0586z M126.7288,71.5528H126.7c-0.4,0.8726-1.4127,1.3422-2.3122,1.3422
	c-2.0691,0-2.3978-1.3974-2.3978-2.0551c0-2.439,2.5973-2.5532,4.4817-2.5532h0.1709v-0.3726c0-1.2395-0.4419-1.8687-1.6551-1.8687
	c-0.7566,0-1.4705,0.1731-2.1406,0.5988v-0.8707c0.5561-0.2699,1.4983-0.498,2.1406-0.498c1.7981,0,2.5545,0.8117,2.5545,2.7109
	v3.2109c0,0.5874,0,1.0285,0.0714,1.5285h-0.8846V71.5528L126.7288,71.5528z"/>
<polygon id="XMLID_237_" points="130.1208,71.9691 134.502,66.2185 130.2916,66.2185 130.2916,65.4466 135.5437,65.4466 
	135.5437,66.2185 131.1622,71.9539 135.5437,71.9539 135.5437,72.7258 130.1208,72.7258 130.1208,71.9691 "/>
<path id="XMLID_234_" d="M138.2385,65.4466h0.8983v7.2792h-0.8983V65.4466L138.2385,65.4466z M139.1368,63.5056h-0.8983V62.306
	h0.8983V63.5056L139.1368,63.5056z"/>
<path id="XMLID_233_" d="M148.1976,71.011c0,0.557,0,1.1292,0.0567,1.7148h-0.8698v-1.2985h-0.0287
	c-0.2998,0.6559-0.842,1.4677-2.3551,1.4677c-1.798,0-2.483-1.1958-2.483-2.7965v-4.6519h0.8985v4.4257
	c0,1.3687,0.4855,2.2528,1.7275,2.2528c1.6412,0,2.1546-1.4411,2.1546-2.6539v-4.0246h0.8993V71.011L148.1976,71.011z"/>
<path id="XMLID_232_" d="M151.5617,67.1594c0-0.557,0-1.1273-0.0575-1.7128h0.8706v1.2983h0.0289
	c0.2999-0.6577,0.8419-1.4694,2.3549-1.4694c1.7981,0,2.4832,1.1995,2.4832,2.7965v4.6538h-0.8996v-4.4257
	c0-1.3688-0.4846-2.2547-1.7266-2.2547c-1.6411,0-2.1554,1.4429-2.1554,2.6539v4.0265h-0.8985V67.1594L151.5617,67.1594z"/>
<path id="XMLID_231_" d="M164.9853,71.6688c0.5421,0.2719,1.1985,0.4563,1.8982,0.4563c0.8558,0,1.6125-0.4715,1.6125-1.2985
	c0-1.7281-3.4968-1.4562-3.4968-3.5683c0-1.441,1.1707-1.9828,2.3698-1.9828c0.3854,0,1.1557,0.0855,1.7982,0.3288l-0.0855,0.7852
	c-0.4715-0.2167-1.1138-0.3441-1.6133-0.3441c-0.9273,0-1.5696,0.2852-1.5696,1.2129c0,1.3573,3.5822,1.1863,3.5822,3.5683
	c0,1.5418-1.4416,2.0684-2.5409,2.0684c-0.6988,0-1.3977-0.0836-2.0402-0.3403L164.9853,71.6688L164.9853,71.6688z"/>
<polygon id="XMLID_230_" points="174.7294,72.7258 173.6729,72.7258 171.2037,65.4466 172.1887,65.4466 174.201,71.7391 
	174.2294,71.7391 176.3416,65.4466 177.2846,65.4466 174.7294,72.7258 "/>
<path id="XMLID_227_" d="M179.6495,65.4466h0.8991v7.2792h-0.8991V65.4466L179.6495,65.4466z M180.5486,63.5056h-0.8991V62.306
	h0.8991V63.5056L180.5486,63.5056z"/>
<polygon id="XMLID_226_" points="183.2596,71.9691 187.6397,66.2185 183.4307,66.2185 183.4307,65.4466 188.6796,65.4466 
	188.6796,66.2185 184.2995,71.9539 188.6796,71.9539 188.6796,72.7258 183.2596,72.7258 183.2596,71.9691 "/>
<path id="XMLID_225_" d="M191.3753,67.0739c0-0.8004,0-1.0989-0.0571-1.6273h0.9011v1.3992h0.0248
	c0.3307-0.8137,0.9429-1.5703,1.8726-1.5703c0.2129,0,0.4714,0.0418,0.6273,0.0855v0.943c-0.1862-0.059-0.4277-0.0855-0.6577-0.0855
	c-1.4259,0-1.8118,1.5968-1.8118,2.9104v3.5969h-0.8992V67.0739L191.3753,67.0739z"/>
<path id="XMLID_222_" d="M201.3351,69.0586h-0.2567c-1.5569,0-3.4124,0.1559-3.4124,1.7547c0,0.9562,0.6863,1.3118,1.5152,1.3118
	c2.1102,0,2.1539-1.8422,2.1539-2.6254V69.0586L201.3351,69.0586z M201.4187,71.5528h-0.0266
	c-0.3992,0.8726-1.4125,1.3422-2.3117,1.3422c-2.0703,0-2.3992-1.3974-2.3992-2.0551c0-2.439,2.5969-2.5532,4.4827-2.5532h0.1712
	v-0.3726c0-1.2395-0.443-1.8687-1.6578-1.8687c-0.7547,0-1.4695,0.1731-2.1387,0.5988v-0.8707
	c0.5552-0.2699,1.498-0.498,2.1387-0.498c1.8003,0,2.555,0.8117,2.555,2.7109v3.2109c0,0.5874,0,1.0285,0.0723,1.5285h-0.8859
	V71.5528L201.4187,71.5528z"/>
<path id="XMLID_221_" d="M56.7558,110.8082c0.5856,0.3707,1.2706,0.5836,2.1979,0.5836c1.2272,0,2.2407-0.6273,2.2407-2.0398
	c0-1.9562-4.5668-2.1976-4.5668-4.8097c0-1.5989,1.3988-2.5969,3.1541-2.5969c0.4844,0,1.2698,0.0703,1.955,0.327l-0.1571,0.8992
	c-0.4427-0.2434-1.1415-0.3707-1.8129-0.3707c-1.0274,0-2.1544,0.4297-2.1544,1.7128c0,1.9981,4.5671,2.0133,4.5671,4.9238
	c0,2.0133-1.7274,2.8118-3.2685,2.8118c-0.9709,0-1.7275-0.2016-2.2546-0.4278L56.7558,110.8082L56.7558,110.8082z"/>
<polygon id="XMLID_220_" points="72.6512,112.0782 71.567,112.0782 69.5832,105.7837 69.5545,105.7837 67.5707,112.0782 
	66.4856,112.0782 64.1456,104.8008 65.1293,104.8008 67.0426,111.0934 67.0713,111.0934 69.0977,104.8008 70.182,104.8008 
	72.1089,111.0934 72.1379,111.0934 74.1504,104.8008 75.0488,104.8008 72.6512,112.0782 "/>
<path id="XMLID_217_" d="M77.3833,104.8008h0.8987v7.2774h-0.8987V104.8008L77.3833,104.8008z M78.282,102.8579h-0.8987v-1.1995
	h0.8987V102.8579L78.282,102.8579z"/>
<path id="XMLID_216_" d="M81.1056,111.0212c0.5422,0.2717,1.1985,0.4562,1.8985,0.4562c0.8558,0,1.6123-0.4695,1.6123-1.2966
	c0-1.7262-3.4967-1.4562-3.4967-3.5682c0-1.443,1.1705-1.9848,2.37-1.9848c0.385,0,1.1556,0.0856,1.7979,0.3289l-0.0855,0.7851
	c-0.4715-0.2129-1.1139-0.344-1.6133-0.344c-0.9273,0-1.5696,0.287-1.5696,1.2148c0,1.3554,3.5822,1.1843,3.5822,3.5682
	c0,1.5399-1.4416,2.0685-2.5406,2.0685c-0.6991,0-1.3981-0.0856-2.0405-0.3422L81.1056,111.0212L81.1056,111.0212z"/>
<path id="XMLID_215_" d="M87.7678,111.0212c0.5422,0.2717,1.1993,0.4562,1.8984,0.4562c0.8559,0,1.6123-0.4695,1.6123-1.2966
	c0-1.7262-3.4966-1.4562-3.4966-3.5682c0-1.443,1.1705-1.9848,2.3696-1.9848c0.3854,0,1.1559,0.0856,1.7981,0.3289l-0.0854,0.7851
	c-0.4715-0.2129-1.1138-0.344-1.6132-0.344c-0.9275,0-1.5698,0.287-1.5698,1.2148c0,1.3554,3.5823,1.1843,3.5823,3.5682
	c0,1.5399-1.4417,2.0685-2.5407,2.0685c-0.699,0-1.398-0.0856-2.0404-0.3422L87.7678,111.0212L87.7678,111.0212z"/>
<path id="XMLID_214_" d="M107.0004,103.2306c-0.6283-0.329-1.5268-0.4297-2.2267-0.4297c-2.5824,0-4.039,1.8269-4.039,4.2964
	c0,2.5113,1.4128,4.2945,4.039,4.2945c0.6573,0,1.6559-0.0836,2.2267-0.4277l0.0567,0.8574
	c-0.542,0.327-1.6551,0.4278-2.2834,0.4278c-3.1395,0-5.0237-2.0685-5.0237-5.152c0-3.0246,1.941-5.1519,5.0237-5.1519
	c0.5857,0,1.7701,0.0988,2.2834,0.3707L107.0004,103.2306L107.0004,103.2306z"/>
<path id="XMLID_211_" d="M113.5319,111.4774c1.5696,0,2.4124-1.3536,2.4124-3.0379c0-1.6863-0.8428-3.0417-2.4124-3.0417
	c-1.5698,0-2.4119,1.3554-2.4119,3.0417C111.12,110.1238,111.9621,111.4774,113.5319,111.4774L113.5319,111.4774z
	 M113.5319,104.6278c2.3549,0,3.3963,1.8269,3.3963,3.8117c0,1.9828-1.0414,3.8098-3.3963,3.8098
	c-2.3552,0-3.3966-1.827-3.3966-3.8098C110.1353,106.4547,111.1767,104.6278,113.5319,104.6278L113.5319,104.6278z"/>
<path id="XMLID_210_" d="M119.7364,106.5118c0-0.557,0-1.1293-0.0577-1.711h0.8708v1.2965h0.0287
	c0.2997-0.654,0.8419-1.4695,2.355-1.4695c1.7981,0,2.483,1.1996,2.483,2.7984v4.652h-0.8994v-4.4239
	c0-1.3707-0.4855-2.2565-1.7266-2.2565c-1.6412,0-2.1554,1.441-2.1554,2.6558v4.0246h-0.8984V106.5118L119.7364,106.5118z"/>
<path id="XMLID_209_" d="M129.3939,105.5688h-1.4704v-0.768h1.4704v-0.5304c0-1.5265,0.0566-3.0683,1.9261-3.0683
	c0.2859,0,0.6711,0.0437,0.8429,0.1425l-0.0576,0.7852c-0.1857-0.0988-0.4566-0.1578-0.7138-0.1578
	c-1.2271,0-1.0991,1.3289-1.0991,2.1996v0.6292h1.6422v0.768h-1.6422v6.5094h-0.8985V105.5688L129.3939,105.5688z"/>
<path id="XMLID_206_" d="M139.0811,107.9243c0-1.2699-0.5133-2.5265-1.8554-2.5265c-1.3266,0-2.1406,1.3269-2.1406,2.5265H139.0811
	L139.0811,107.9243z M139.5239,111.85c-0.6283,0.2567-1.4415,0.3993-2.1127,0.3993c-2.4114,0-3.3111-1.6274-3.3111-3.8098
	c0-2.2281,1.2281-3.8117,3.069-3.8117c2.055,0,2.897,1.6558,2.897,3.6101v0.4582h-4.981c0,1.5399,0.8279,2.7813,2.3976,2.7813
	c0.6563,0,1.6136-0.27,2.0412-0.5418V111.85L139.5239,111.85z"/>
<path id="XMLID_203_" d="M145.6004,111.4774c1.5986,0,2.1554-1.7129,2.1554-3.0379c0-1.327-0.5568-3.0417-2.1554-3.0417
	c-1.7126,0-2.1555,1.6273-2.1555,3.0417C143.4449,109.852,143.8878,111.4774,145.6004,111.4774L145.6004,111.4774z
	 M148.6544,112.0782h-0.8986v-1.1559h-0.0286c-0.4856,0.9277-1.2283,1.327-2.2698,1.327c-1.9975,0-2.9973-1.6559-2.9973-3.8098
	c0-2.2129,0.8569-3.8117,2.9973-3.8117c1.4277,0,2.1406,1.0418,2.2698,1.3973h0.0286v-4.6519h0.8986V112.0782L148.6544,112.0782z"/>
<path id="XMLID_200_" d="M156.3711,107.9243c0-1.2699-0.5135-2.5265-1.8557-2.5265c-1.3265,0-2.1406,1.3269-2.1406,2.5265H156.3711
	L156.3711,107.9243z M156.8138,111.85c-0.6285,0.2567-1.4415,0.3993-2.1129,0.3993c-2.4114,0-3.311-1.6274-3.311-3.8098
	c0-2.2281,1.2281-3.8117,3.069-3.8117c2.0552,0,2.897,1.6558,2.897,3.6101v0.4582h-4.9811c0,1.5399,0.8282,2.7813,2.3976,2.7813
	c0.6566,0,1.6136-0.27,2.0414-0.5418V111.85L156.8138,111.85z"/>
<path id="XMLID_199_" d="M160.1777,106.4263c0-0.8004,0-1.0989-0.0575-1.6255h0.8996v1.3973h0.0287
	c0.3278-0.8156,0.9413-1.5703,1.8696-1.5703c0.2135,0,0.4707,0.0418,0.6275,0.0856v0.941
	c-0.1857-0.0552-0.4279-0.0856-0.6562-0.0856c-1.4278,0-1.813,1.6008-1.813,2.9125v3.5969h-0.8987V106.4263L160.1777,106.4263z"/>
<path id="XMLID_196_" d="M170.1362,108.409h-0.2561c-1.5558,0-3.4115,0.1579-3.4115,1.7566c0,0.9563,0.6851,1.3118,1.5131,1.3118
	c2.1117,0,2.1545-1.8384,2.1545-2.6254V108.409L170.1362,108.409z M170.2216,110.909h-0.0277
	c-0.4002,0.8688-1.4129,1.3403-2.3123,1.3403c-2.0692,0-2.3978-1.3993-2.3978-2.0551c0-2.4429,2.5972-2.5551,4.4815-2.5551h0.1709
	v-0.3688c0-1.2452-0.4418-1.8725-1.655-1.8725c-0.7566,0-1.4706,0.171-2.1416,0.6007v-0.8708
	c0.557-0.2718,1.4992-0.4999,2.1416-0.4999c1.798,0,2.5545,0.8155,2.5545,2.7129v3.2109c0,0.5836,0,1.0266,0.0714,1.5266h-0.8855
	V110.909L170.2216,110.909z"/>
<path id="XMLID_195_" d="M177.4252,105.5688h-1.6539v4.7128c0,0.654,0.2414,1.1958,0.9695,1.1958
	c0.3421,0,0.5703-0.0723,0.8289-0.1692l0.055,0.7395c-0.2128,0.0875-0.6558,0.2016-1.0987,0.2016
	c-1.5988,0-1.654-1.0989-1.654-2.4258v-4.2547h-1.4276v-0.768h1.4276v-1.7566l0.8993-0.3156v2.0722h1.6539V105.5688
	L177.4252,105.5688z"/>
<path id="XMLID_192_" d="M180.1495,104.8008h0.8992v7.2774h-0.8992V104.8008L180.1495,104.8008z M181.0487,102.8579h-0.8992v-1.1995
	h0.8992V102.8579L181.0487,102.8579z"/>
<path id="XMLID_189_" d="M187.2689,111.4774c1.5703,0,2.4125-1.3536,2.4125-3.0379c0-1.6863-0.8422-3.0417-2.4125-3.0417
	c-1.5702,0-2.4125,1.3554-2.4125,3.0417C184.8564,110.1238,185.6987,111.4774,187.2689,111.4774L187.2689,111.4774z
	 M187.2689,104.6278c2.3536,0,3.3973,1.8269,3.3973,3.8117c0,1.9828-1.0437,3.8098-3.3973,3.8098
	c-2.3553,0-3.3972-1.827-3.3972-3.8098C183.8717,106.4547,184.9136,104.6278,187.2689,104.6278L187.2689,104.6278z"/>
<path id="XMLID_188_" d="M193.4742,106.5118c0-0.557,0-1.1293-0.0591-1.711h0.8727v1.2965h0.0265
	c0.2985-0.654,0.8423-1.4695,2.3555-1.4695c1.7984,0,2.4829,1.1996,2.4829,2.7984v4.652h-0.9012v-4.4239
	c0-1.3707-0.481-2.2565-1.7262-2.2565c-1.6406,0-2.1539,1.441-2.1539,2.6558v4.0246h-0.8972V106.5118L193.4742,106.5118z"/>
<polygon id="XMLID_187_" points="56.8985,141.4688 61.6363,141.4688 61.6363,142.3243 57.8835,142.3243 57.8835,145.8774 
	61.4656,145.8774 61.4656,146.7348 57.8835,146.7348 57.8835,151.4305 56.8985,151.4305 56.8985,141.4688 "/>
<path id="XMLID_184_" d="M68.8117,147.2767c0-1.27-0.5131-2.5266-1.8554-2.5266c-1.3266,0-2.1406,1.3288-2.1406,2.5266H68.8117
	L68.8117,147.2767z M69.2547,151.2024c-0.6285,0.2566-1.4416,0.3992-2.1129,0.3992c-2.4115,0-3.3111-1.6273-3.3111-3.8116
	c0-2.2244,1.2281-3.8098,3.069-3.8098c2.0551,0,2.897,1.6558,2.897,3.612v0.4563h-4.981c0,1.5417,0.8279,2.7831,2.3975,2.7831
	c0.6565,0,1.6136-0.2718,2.0415-0.5437V151.2024L69.2547,151.2024z"/>
<path id="XMLID_181_" d="M75.3302,150.8316c1.5985,0,2.1545-1.7129,2.1545-3.0416c0-1.3251-0.556-3.0399-2.1545-3.0399
	c-1.7127,0-2.1555,1.6292-2.1555,3.0399C73.1747,149.2043,73.6175,150.8316,75.3302,150.8316L75.3302,150.8316z M78.384,151.4305
	h-0.8993v-1.1559h-0.0279c-0.4855,0.9278-1.2273,1.327-2.2696,1.327c-1.9976,0-2.9975-1.654-2.9975-3.8116
	c0-2.211,0.8569-3.8098,2.9975-3.8098c1.4276,0,2.1405,1.0437,2.2696,1.3992h0.0279v-4.652h0.8993V151.4305L78.384,151.4305z"/>
<path id="XMLID_178_" d="M86.1008,147.2767c0-1.27-0.5133-2.5266-1.8548-2.5266c-1.3274,0-2.1415,1.3288-2.1415,2.5266H86.1008
	L86.1008,147.2767z M86.5435,151.2024c-0.6286,0.2566-1.4416,0.3992-2.1127,0.3992c-2.4116,0-3.3111-1.6273-3.3111-3.8116
	c0-2.2244,1.2281-3.8098,3.0688-3.8098c2.0552,0,2.8972,1.6558,2.8972,3.612v0.4563h-4.9812c0,1.5417,0.828,2.7831,2.3979,2.7831
	c0.6571,0,1.6132-0.2718,2.0411-0.5437V151.2024L86.5435,151.2024z"/>
<path id="XMLID_177_" d="M89.9085,145.7785c0-0.8003,0-1.0987-0.0577-1.6272h0.8996v1.3991h0.0287
	c0.3278-0.8117,0.9412-1.5702,1.8695-1.5702c0.2135,0,0.4708,0.0436,0.6276,0.0855v0.9429c-0.1857-0.057-0.428-0.0855-0.6562-0.0855
	c-1.4277,0-1.813,1.5969-1.813,2.9106v3.5968h-0.8985V145.7785L89.9085,145.7785z"/>
<path id="XMLID_174_" d="M99.8668,147.7633h-0.2562c-1.5556,0-3.4114,0.1559-3.4114,1.7547c0,0.9562,0.6851,1.3136,1.5132,1.3136
	c2.1116,0,2.1544-1.842,2.1544-2.6253V147.7633L99.8668,147.7633z M99.9521,150.2594h-0.0277
	c-0.4001,0.8726-1.4128,1.3422-2.3123,1.3422c-2.0691,0-2.3978-1.3974-2.3978-2.0551c0-2.4391,2.5972-2.555,4.4818-2.555h0.1707
	v-0.3708c0-1.2413-0.4417-1.8706-1.655-1.8706c-0.7567,0-1.4703,0.173-2.1416,0.6007v-0.8707
	c0.5571-0.2718,1.4992-0.4999,2.1416-0.4999c1.798,0,2.5544,0.8136,2.5544,2.7128v3.209c0,0.5875,0,1.0285,0.0715,1.5285h-0.8856
	V150.2594L99.9521,150.2594z"/>
<polygon id="XMLID_173_" points="104.0161,140.7274 104.9148,140.7274 104.9148,151.4305 104.0161,151.4305 104.0161,140.7274 "/>
<path id="XMLID_170_" d="M114.3728,150.575h0.8131c2.8266,0,4.6674-1.1425,4.6674-4.1957c0-3.0417-1.8129-4.055-4.0389-4.055
	h-1.4416V150.575L114.3728,150.575z M113.3878,141.4688h2.4692c3.5683,0,4.9811,2.0551,4.9811,4.9656
	c0,3.6121-2.4125,4.9961-5.7088,4.9961h-1.7415V141.4688L113.3878,141.4688z"/>
<path id="XMLID_167_" d="M128.4398,147.2767c0-1.27-0.5133-2.5266-1.8558-2.5266c-1.3263,0-2.1406,1.3288-2.1406,2.5266H128.4398
	L128.4398,147.2767z M128.8824,151.2024c-0.6285,0.2566-1.4415,0.3992-2.1126,0.3992c-2.4117,0-3.3111-1.6273-3.3111-3.8116
	c0-2.2244,1.228-3.8098,3.0687-3.8098c2.0553,0,2.8971,1.6558,2.8971,3.612v0.4563h-4.9811c0,1.5417,0.8282,2.7831,2.3978,2.7831
	c0.6563,0,1.6133-0.2718,2.0412-0.5437V151.2024L128.8824,151.2024z"/>
<path id="XMLID_164_" d="M135.2159,144.7501c-1.5985,0-2.1554,1.7148-2.1554,3.0399c0,1.3287,0.5569,3.0416,2.1554,3.0416
	c1.7127,0,2.1545-1.6273,2.1545-3.0416C137.3704,146.3793,136.9286,144.7501,135.2159,144.7501L135.2159,144.7501z
	 M132.1611,144.1513h0.8994l-0.0565,1.3288h0.0277c0.2283-0.4012,0.7854-1.4999,2.3262-1.4999c2.1416,0,2.9974,1.5988,2.9974,3.8098
	c0,2.1576-0.9988,3.8116-2.9974,3.8116c-1.1416,0-1.8267-0.4696-2.2685-1.4125h-0.0289v4.2393h-0.8994V144.1513L132.1611,144.1513z"
	/>
<path id="XMLID_161_" d="M145.3869,147.7633h-0.2561c-1.5558,0-3.4115,0.1559-3.4115,1.7547c0,0.9562,0.6852,1.3136,1.5131,1.3136
	c2.1119,0,2.1545-1.842,2.1545-2.6253V147.7633L145.3869,147.7633z M145.4724,150.2594h-0.028
	c-0.3999,0.8726-1.4128,1.3422-2.3123,1.3422c-2.069,0-2.3976-1.3974-2.3976-2.0551c0-2.4391,2.5972-2.555,4.4817-2.555h0.1707
	v-0.3708c0-1.2413-0.4419-1.8706-1.6551-1.8706c-0.7564,0-1.4703,0.173-2.1414,0.6007v-0.8707
	c0.5568-0.2718,1.4991-0.4999,2.1414-0.4999c1.7981,0,2.5546,0.8136,2.5546,2.7128v3.209c0,0.5875,0,1.0285,0.0716,1.5285h-0.8856
	V150.2594L145.4724,150.2594z"/>
<path id="XMLID_160_" d="M149.5362,145.7785c0-0.8003,0-1.0987-0.0575-1.6272h0.8994v1.3991h0.0289
	c0.3276-0.8117,0.9412-1.5702,1.8695-1.5702c0.2135,0,0.4706,0.0436,0.6274,0.0855v0.9429c-0.1855-0.057-0.428-0.0855-0.6562-0.0855
	c-1.4277,0-1.8129,1.5969-1.8129,2.9106v3.5968h-0.8986V145.7785L149.5362,145.7785z"/>
<path id="XMLID_159_" d="M158.5386,144.9231h-1.6551v4.7089c0,0.6559,0.2421,1.1996,0.9699,1.1996
	c0.3426,0,0.5708-0.0722,0.8281-0.1711l0.0566,0.7415c-0.2134,0.0855-0.6562,0.1996-1.0982,0.1996
	c-1.5984,0-1.6558-1.0969-1.6558-2.4258v-4.2527h-1.4277v-0.7718h1.4277v-1.7548l0.8994-0.3137v2.0685h1.6551V144.9231
	L158.5386,144.9231z"/>
<path id="XMLID_158_" d="M170.0535,151.4305v-4.8383c0-1.0266-0.3851-1.8421-1.5418-1.8421c-0.9849,0-1.9547,0.8441-1.9547,2.6558
	v4.0246h-0.8997v-4.8383c0-1.0266-0.3852-1.8421-1.5408-1.8421c-0.9849,0-1.9558,0.8441-1.9558,2.6558v4.0246h-0.8987v-5.5664
	c0-0.557,0-1.1254-0.0576-1.7128h0.8709v1.2281l0.0287,0.0133c0.285-0.4981,0.7138-1.4125,2.2685-1.4125
	c0.6424,0,1.6989,0.2718,1.9272,1.5417h0.0288c0.3276-0.8574,1.1844-1.5417,2.3263-1.5417c1.4703,0,2.2974,1.0284,2.2974,2.4391
	v5.0112H170.0535L170.0535,151.4305z"/>
<path id="XMLID_155_" d="M178.6951,147.2767c0-1.27-0.5133-2.5266-1.8554-2.5266c-1.3252,0-2.1406,1.3288-2.1406,2.5266H178.6951
	L178.6951,147.2767z M179.1381,151.2024c-0.6273,0.2566-1.4411,0.3992-2.1121,0.3992c-2.4125,0-3.3113-1.6273-3.3113-3.8116
	c0-2.2244,1.2276-3.8098,3.068-3.8098c2.0569,0,2.8972,1.6558,2.8972,3.612v0.4563h-4.9808c0,1.5417,0.8288,2.7831,2.3991,2.7831
	c0.6559,0,1.612-0.2718,2.0399-0.5437V151.2024L179.1381,151.2024z"/>
<path id="XMLID_154_" d="M182.503,145.8641c0-0.557,0-1.1254-0.0571-1.7128h0.8708v1.3003h0.0285
	c0.3003-0.6578,0.8421-1.4714,2.3553-1.4714c1.7985,0,2.4829,1.1995,2.4829,2.7984v4.6519h-0.8992v-4.4238
	c0-1.3707-0.4868-2.2566-1.7262-2.2566c-1.6426,0-2.1559,1.4429-2.1559,2.6558v4.0246h-0.8991V145.8641L182.503,145.8641z"/>
<path id="XMLID_153_" d="M194.6869,144.9231h-1.6557v4.7089c0,0.6559,0.2414,1.1996,0.9695,1.1996
	c0.344,0,0.5722-0.0722,0.8289-0.1711l0.057,0.7415c-0.213,0.0855-0.6559,0.1996-1.0969,0.1996
	c-1.6007,0-1.6559-1.0969-1.6559-2.4258v-4.2527h-1.4296v-0.7718h1.4296v-1.7548l0.8974-0.3137v2.0685h1.6557V144.9231
	L194.6869,144.9231z"/>
<path id="XMLID_150_" d="M205.3273,150.8316c1.5684,0,2.4125-1.3554,2.4125-3.0416c0-1.6826-0.8441-3.0399-2.4125-3.0399
	c-1.5684,0-2.4105,1.3573-2.4105,3.0399C202.9168,149.4762,203.7589,150.8316,205.3273,150.8316L205.3273,150.8316z
	 M205.3273,143.9802c2.3555,0,3.3953,1.8269,3.3953,3.8098c0,1.9846-1.0398,3.8116-3.3953,3.8116
	c-2.3554,0-3.3953-1.827-3.3953-3.8116C201.932,145.8071,202.9719,143.9802,205.3273,143.9802L205.3273,143.9802z"/>
<path id="XMLID_149_" d="M212.1465,144.9231h-1.4695v-0.7718h1.4695v-0.5266c0-1.5266,0.0552-3.0703,1.9278-3.0703
	c0.285,0,0.6691,0.0437,0.8421,0.1445l-0.0589,0.7852c-0.1864-0.1008-0.4563-0.1579-0.7129-0.1579
	c-1.2281,0-1.0989,1.327-1.0989,2.1977v0.6274h1.6406v0.7718h-1.6406v6.5074h-0.8992V144.9231L212.1465,144.9231z"/>
<polygon id="XMLID_148_" points="222.5721,141.4688 227.4559,141.4688 227.4559,142.3243 223.5568,142.3243 223.5568,145.8774 
	227.2544,145.8774 227.2544,146.7348 223.5568,146.7348 223.5568,150.575 227.6271,150.575 227.6271,151.4305 222.5721,151.4305 
	222.5721,141.4688 "/>
<path id="XMLID_147_" d="M235.4575,145.1227c-0.4866-0.2148-1.0703-0.3726-1.557-0.3726c-1.7547,0-2.7394,1.2718-2.7394,3.0399
	c0,1.6557,0.998,3.0416,2.6406,3.0416c0.5703,0,1.0989-0.1292,1.6406-0.3269l0.0856,0.8402
	c-0.6122,0.213-1.1844,0.2567-1.8687,0.2567c-2.3422,0-3.4829-1.7851-3.4829-3.8116c0-2.2396,1.4411-3.8098,3.5969-3.8098
	c0.8707,0,1.498,0.2015,1.7547,0.2851L235.4575,145.1227L235.4575,145.1227z"/>
<path id="XMLID_144_" d="M241.0048,150.8316c1.5703,0,2.4125-1.3554,2.4125-3.0416c0-1.6826-0.8422-3.0399-2.4125-3.0399
	c-1.5684,0-2.4105,1.3573-2.4105,3.0399C238.5943,149.4762,239.4364,150.8316,241.0048,150.8316L241.0048,150.8316z
	 M241.0048,143.9802c2.3555,0,3.3973,1.8269,3.3973,3.8098c0,1.9846-1.0418,3.8116-3.3973,3.8116
	c-2.3554,0-3.3952-1.827-3.3952-3.8116C237.6096,145.8071,238.6494,143.9802,241.0048,143.9802L241.0048,143.9802z"/>
<path id="XMLID_143_" d="M247.208,145.8641c0-0.557,0-1.1254-0.055-1.7128h0.8687v1.3003h0.0304
	c0.3004-0.6578,0.8422-1.4714,2.3537-1.4714c1.7983,0,2.4846,1.1995,2.4846,2.7984v4.6519h-0.8992v-4.4238
	c0-1.3707-0.4866-2.2566-1.7261-2.2566c-1.6407,0-2.1578,1.4429-2.1578,2.6558v4.0246h-0.8993V145.8641L247.208,145.8641z"/>
<path id="XMLID_140_" d="M259.0936,150.8316c1.5722,0,2.4125-1.3554,2.4125-3.0416c0-1.6826-0.8403-3.0399-2.4125-3.0399
	c-1.5702,0-2.4125,1.3573-2.4125,3.0399C256.6811,149.4762,257.5234,150.8316,259.0936,150.8316L259.0936,150.8316z
	 M259.0936,143.9802c2.3555,0,3.3973,1.8269,3.3973,3.8098c0,1.9846-1.0418,3.8116-3.3973,3.8116
	c-2.3554,0-3.3972-1.827-3.3972-3.8116C255.6964,145.8071,256.7382,143.9802,259.0936,143.9802L259.0936,143.9802z"/>
<path id="XMLID_139_" d="M274.0874,151.4305v-4.8383c0-1.0266-0.3821-1.8421-1.5399-1.8421c-0.9848,0-1.9542,0.8441-1.9542,2.6558
	v4.0246h-0.8993v-4.8383c0-1.0266-0.3858-1.8421-1.5417-1.8421c-0.9866,0-1.9544,0.8441-1.9544,2.6558v4.0246h-0.8991v-5.5664
	c0-0.557,0-1.1254-0.059-1.7128h0.8726v1.2281l0.0266,0.0133c0.2852-0.4981,0.7149-1.4125,2.2699-1.4125
	c0.6426,0,1.6977,0.2718,1.9258,1.5417h0.0286c0.3289-0.8574,1.1843-1.5417,2.3288-1.5417c1.4695,0,2.2984,1.0284,2.2984,2.4391
	v5.0112H274.0874L274.0874,151.4305z"/>
<path id="XMLID_136_" d="M278.2908,144.1513h0.903v7.2792h-0.903V144.1513L278.2908,144.1513z M279.1938,142.2102h-0.903v-1.1976
	h0.903V142.2102L279.1938,142.2102z"/>
<path id="XMLID_135_" d="M287.3095,145.1227c-0.4866-0.2148-1.0684-0.3726-1.555-0.3726c-1.7567,0-2.7415,1.2718-2.7415,3.0399
	c0,1.6557,1,3.0416,2.6407,3.0416c0.5721,0,1.0987-0.1292,1.6405-0.3269l0.0856,0.8402c-0.6121,0.213-1.1843,0.2567-1.8668,0.2567
	c-2.3441,0-3.4828-1.7851-3.4828-3.8116c0-2.2396,1.4409-3.8098,3.5931-3.8098c0.8725,0,1.4999,0.2015,1.7565,0.2851
	L287.3095,145.1227L287.3095,145.1227z"/>
<path id="XMLID_132_" d="M298.7235,142.4099l-2.1729,5.496h4.3269L298.7235,142.4099L298.7235,142.4099z M298.2369,141.4688h1.114
	l3.9542,9.9617h-1.0284l-1.0684-2.6672h-5.0246l-1.0722,2.6672h-0.9544L298.2369,141.4688L298.2369,141.4688z"/>
<path id="XMLID_131_" d="M306.3393,144.9231h-1.4714v-0.7718h1.4714v-0.5266c0-1.5266,0.0552-3.0703,1.9277-3.0703
	c0.2813,0,0.6672,0.0437,0.8384,0.1445l-0.0552,0.7852c-0.1863-0.1008-0.4582-0.1579-0.7129-0.1579
	c-1.23,0-1.0988,1.327-1.0988,2.1977v0.6274h1.6406v0.7718h-1.6406v6.5074h-0.8992V144.9231L306.3393,144.9231z"/>
<path id="XMLID_130_" d="M311.9456,144.9231h-1.4695v-0.7718h1.4695v-0.5266c0-1.5266,0.0551-3.0703,1.9277-3.0703
	c0.2814,0,0.6672,0.0437,0.8383,0.1445l-0.0551,0.7852c-0.1864-0.1008-0.4562-0.1579-0.7128-0.1579
	c-1.23,0-1.0989,1.327-1.0989,2.1977v0.6274h1.6406v0.7718h-1.6406v6.5074h-0.8992V144.9231L311.9456,144.9231z"/>
<path id="XMLID_127_" d="M321.2913,147.7633h-0.2605c-1.555,0-3.4086,0.1559-3.4086,1.7547c0,0.9562,0.6843,1.3136,1.5114,1.3136
	c2.1139,0,2.1577-1.842,2.1577-2.6253V147.7633L321.2913,147.7633z M321.3769,150.2594h-0.0305
	c-0.3993,0.8726-1.4144,1.3422-2.3117,1.3422c-2.0684,0-2.3954-1.3974-2.3954-2.0551c0-2.4391,2.595-2.555,4.4771-2.555h0.1749
	v-0.3708c0-1.2413-0.4449-1.8706-1.6559-1.8706c-0.7566,0-1.4695,0.173-2.1425,0.6007v-0.8707
	c0.5571-0.2718,1.5-0.4999,2.1425-0.4999c1.7965,0,2.5551,0.8136,2.5551,2.7128v3.209c0,0.5875,0,1.0285,0.0704,1.5285h-0.884
	V150.2594L321.3769,150.2594z"/>
<path id="XMLID_124_" d="M325.4394,144.1513h0.8973v7.2792h-0.8973V144.1513L325.4394,144.1513z M326.3367,142.2102h-0.8973v-1.1976
	h0.8973V142.2102L326.3367,142.2102z"/>
<path id="XMLID_123_" d="M329.7168,145.7785c0-0.8003,0-1.0987-0.057-1.6272h0.8993v1.3991h0.0304
	c0.327-0.8117,0.9428-1.5702,1.8668-1.5702c0.2149,0,0.4714,0.0436,0.6311,0.0855v0.9429c-0.1843-0.057-0.4296-0.0855-0.6558-0.0855
	c-1.4296,0-1.8137,1.5969-1.8137,2.9106v3.5968h-0.9011V145.7785L329.7168,145.7785z"/>
<path id="XMLID_122_" d="M335.0265,150.3735c0.5419,0.2719,1.1959,0.4581,1.8973,0.4581c0.8537,0,1.6103-0.4715,1.6103-1.3003
	c0-1.7262-3.4962-1.4562-3.4962-3.5683c0-1.4411,1.173-1.9828,2.3688-1.9828c0.3859,0,1.1577,0.0855,1.8003,0.3289l-0.0855,0.7851
	c-0.4714-0.2148-1.114-0.3441-1.6159-0.3441c-0.9277,0-1.5665,0.2871-1.5665,1.2129c0,1.3573,3.5797,1.1862,3.5797,3.5683
	c0,1.5437-1.441,2.0703-2.5398,2.0703c-0.6977,0-1.3993-0.0856-2.0418-0.3422L335.0265,150.3735L335.0265,150.3735z"/>
<polygon id="XMLID_121_" points="342.7126,150.2309 343.9123,150.2309 342.7829,153.343 341.8838,153.343 342.7126,150.2309 "/>
<polygon id="XMLID_120_" points="57.0266,161.1431 61.9084,161.1431 61.9084,162.0005 58.0115,162.0005 58.0115,165.5536 
	61.7078,165.5536 61.7078,166.411 58.0115,166.411 58.0115,170.2493 62.0791,170.2493 62.0791,171.1067 57.0266,171.1067 
	57.0266,161.1431 "/>
<path id="XMLID_117_" d="M67.8846,170.5059c1.5984,0,2.1553-1.7109,2.1553-3.0398c0-1.327-0.5569-3.0399-2.1553-3.0399
	c-1.7127,0-2.1555,1.6274-2.1555,3.0399C65.7291,168.8805,66.1719,170.5059,67.8846,170.5059L67.8846,170.5059z M70.9386,171.1067
	h-0.8987v-1.1578h-0.0288c-0.4855,0.9296-1.2281,1.3269-2.2695,1.3269c-1.9976,0-2.9974-1.6539-2.9974-3.8097
	c0-2.211,0.8568-3.8097,2.9974-3.8097c1.4275,0,2.1404,1.0436,2.2695,1.3991h0.0288v-4.6519h0.8987V171.1067L70.9386,171.1067z"/>
<path id="XMLID_116_" d="M79.8971,169.3919c0,0.557,0,1.1292,0.0567,1.7148h-0.8707v-1.2985h-0.0279
	c-0.2998,0.6559-0.8419,1.4676-2.355,1.4676c-1.798,0-2.4832-1.1957-2.4832-2.7964v-4.652h0.8987v4.4258
	c0,1.3687,0.4854,2.2527,1.7275,2.2527c1.641,0,2.1546-1.441,2.1546-2.6539v-4.0246h0.8993V169.3919L79.8971,169.3919z"/>
<path id="XMLID_115_" d="M87.9989,164.797c-0.4855-0.2129-1.0703-0.3708-1.5556-0.3708c-1.7554,0-2.7402,1.2719-2.7402,3.0399
	c0,1.6559,0.9995,3.0398,2.6407,3.0398c0.571,0,1.0991-0.1274,1.6412-0.327l0.0854,0.8422
	c-0.6134,0.2129-1.1844,0.2547-1.8695,0.2547c-2.341,0-3.4827-1.7831-3.4827-3.8097c0-2.2395,1.4416-3.8097,3.597-3.8097
	c0.8707,0,1.4983,0.1995,1.7552,0.2851L87.9989,164.797L87.9989,164.797z"/>
<path id="XMLID_112_" d="M94.8022,167.4395H94.546c-1.5558,0-3.4114,0.1559-3.4114,1.7546c0,0.9563,0.6852,1.3118,1.5131,1.3118
	c2.1119,0,2.1545-1.8421,2.1545-2.6254V167.4395L94.8022,167.4395z M94.8877,169.9337h-0.028
	c-0.3999,0.8726-1.4128,1.3421-2.3122,1.3421c-2.0692,0-2.3976-1.3973-2.3976-2.055c0-2.4391,2.5972-2.5532,4.4816-2.5532h0.1707
	v-0.3726c0-1.2395-0.4419-1.8688-1.6551-1.8688c-0.7565,0-1.4703,0.1731-2.1413,0.5989v-0.8707
	c0.5568-0.27,1.4989-0.498,2.1413-0.498c1.798,0,2.5547,0.8117,2.5547,2.7108v3.211c0,0.5874,0,1.0285,0.0715,1.5285h-0.8856
	V169.9337L94.8877,169.9337z"/>
<path id="XMLID_111_" d="M102.0918,164.5993h-1.655v4.707c0,0.6578,0.2422,1.1996,0.9701,1.1996
	c0.3424,0,0.5707-0.0703,0.828-0.1711l0.0566,0.7434c-0.2135,0.0855-0.6562,0.1976-1.0991,0.1976
	c-1.5985,0-1.655-1.0969-1.655-2.4257v-4.2508h-1.4267v-0.7719h1.4267v-1.7547l0.8994-0.3136v2.0683h1.655V164.5993
	L102.0918,164.5993z"/>
<path id="XMLID_108_" d="M104.8153,163.8274h0.8987v7.2793h-0.8987V163.8274L104.8153,163.8274z M105.714,161.8864h-0.8987v-1.1995
	h0.8987V161.8864L105.714,161.8864z"/>
<path id="XMLID_105_" d="M111.9343,170.5059c1.5705,0,2.4125-1.3555,2.4125-3.0398c0-1.6825-0.842-3.0399-2.4125-3.0399
	c-1.5696,0-2.4117,1.3574-2.4117,3.0399C109.5226,169.1504,110.3647,170.5059,111.9343,170.5059L111.9343,170.5059z
	 M111.9343,163.6564c2.3549,0,3.3974,1.8269,3.3974,3.8097c0,1.9847-1.0425,3.8097-3.3974,3.8097
	c-2.355,0-3.3966-1.825-3.3966-3.8097C108.5377,165.4833,109.5793,163.6564,111.9343,163.6564L111.9343,163.6564z"/>
<path id="XMLID_104_" d="M118.1387,165.5403c0-0.557,0-1.1273-0.0575-1.7129h0.8708v1.2984h0.0287
	c0.2997-0.6577,0.842-1.4694,2.3549-1.4694c1.7982,0,2.4831,1.1995,2.4831,2.7964v4.6539h-0.8994v-4.4257
	c0-1.3689-0.4846-2.2548-1.7266-2.2548c-1.6412,0-2.1553,1.443-2.1553,2.6539v4.0266h-0.8987V165.5403L118.1387,165.5403z"/>
<path id="XMLID_101_" d="M136.3567,167.4395h-0.2561c-1.5558,0-3.4115,0.1559-3.4115,1.7546c0,0.9563,0.6852,1.3118,1.5131,1.3118
	c2.1119,0,2.1545-1.8421,2.1545-2.6254V167.4395L136.3567,167.4395z M136.4423,169.9337h-0.028
	c-0.3999,0.8726-1.4128,1.3421-2.3122,1.3421c-2.0692,0-2.3978-1.3973-2.3978-2.055c0-2.4391,2.5974-2.5532,4.4817-2.5532h0.1707
	v-0.3726c0-1.2395-0.4418-1.8688-1.6551-1.8688c-0.7563,0-1.4703,0.1731-2.1413,0.5989v-0.8707
	c0.5568-0.27,1.499-0.498,2.1413-0.498c1.798,0,2.5547,0.8117,2.5547,2.7108v3.211c0,0.5874,0,1.0285,0.0715,1.5285h-0.8855
	V169.9337L136.4423,169.9337z"/>
<path id="XMLID_100_" d="M140.507,165.5403c0-0.557,0-1.1273-0.0575-1.7129h0.8708v1.2984h0.0287
	c0.2997-0.6577,0.842-1.4694,2.355-1.4694c1.7981,0,2.483,1.1995,2.483,2.7964v4.6539h-0.8994v-4.4257
	c0-1.3689-0.4855-2.2548-1.7266-2.2548c-1.6412,0-2.1553,1.443-2.1553,2.6539v4.0266h-0.8987V165.5403L140.507,165.5403z"/>
<path id="XMLID_97_" d="M152.2625,170.5059c1.5986,0,2.1544-1.7109,2.1544-3.0398c0-1.327-0.5558-3.0399-2.1544-3.0399
	c-1.7124,0-2.1554,1.6274-2.1554,3.0399C150.1071,168.8805,150.5501,170.5059,152.2625,170.5059L152.2625,170.5059z
	 M155.3166,171.1067h-0.8997v-1.1578h-0.0277c-0.4856,0.9296-1.2271,1.3269-2.2697,1.3269c-1.9974,0-2.9972-1.6539-2.9972-3.8097
	c0-2.211,0.8568-3.8097,2.9972-3.8097c1.4277,0,2.1406,1.0436,2.2697,1.3991h0.0277v-4.6519h0.8997V171.1067L155.3166,171.1067z"/>
<path id="XMLID_94_" d="M164.7866,165.5536h1.0416c1.1566,0,2.4831-0.443,2.4831-1.8269c0-1.6274-1.1558-1.7262-2.512-1.7262
	h-1.0127V165.5536L164.7866,165.5536z M163.8018,161.1431h2.5693c1.7694,0,2.9251,0.7566,2.9251,2.5836
	c0,1.2851-0.9849,2.1425-2.2121,2.2984v0.0285c0.7992,0.1007,0.9711,0.5285,1.2847,1.1996l1.6988,3.8535h-1.0852l-1.4416-3.3687
	c-0.5708-1.2852-0.9987-1.327-1.9409-1.327h-0.8133v4.6957h-0.9848V161.1431L163.8018,161.1431z"/>
<path id="XMLID_91_" d="M177.1552,166.9528c0-1.2699-0.5132-2.5266-1.8535-2.5266c-1.3289,0-2.1421,1.327-2.1421,2.5266H177.1552
	L177.1552,166.9528z M177.5982,170.8785c-0.6274,0.2548-1.441,0.3973-2.1121,0.3973c-2.4119,0-3.3113-1.6254-3.3113-3.8097
	c0-2.2243,1.2279-3.8097,3.0679-3.8097c2.0552,0,2.8973,1.6557,2.8973,3.6101v0.4562h-4.9804c0,1.5437,0.8283,2.7832,2.3968,2.7832
	c0.6578,0,1.614-0.2699,2.0418-0.5418V170.8785L177.5982,170.8785z"/>
<path id="XMLID_90_" d="M180.406,170.0497c0.5418,0.2718,1.1977,0.4562,1.8992,0.4562c0.8536,0,1.6102-0.4715,1.6102-1.2984
	c0-1.7281-3.496-1.4563-3.496-3.5683c0-1.441,1.171-1.9828,2.3706-1.9828c0.3841,0,1.1558,0.0855,1.7984,0.3288l-0.0855,0.7852
	c-0.4715-0.2168-1.114-0.3442-1.6159-0.3442c-0.9259,0-1.5684,0.2852-1.5684,1.213c0,1.3574,3.5816,1.1862,3.5816,3.5683
	c0,1.5418-1.441,2.0683-2.5398,2.0683c-0.6977,0-1.3972-0.0836-2.0399-0.3402L180.406,170.0497L180.406,170.0497z"/>
<path id="XMLID_87_" d="M192.0634,166.9528c0-1.2699-0.5132-2.5266-1.8573-2.5266c-1.325,0-2.1386,1.327-2.1386,2.5266H192.0634
	L192.0634,166.9528z M192.5045,170.8785c-0.6273,0.2548-1.441,0.3973-2.1121,0.3973c-2.4106,0-3.3117-1.6254-3.3117-3.8097
	c0-2.2243,1.2282-3.8097,3.0703-3.8097c2.0551,0,2.8953,1.6557,2.8953,3.6101v0.4562h-4.9788c0,1.5437,0.8287,2.7832,2.3971,2.7832
	c0.654,0,1.6122-0.2699,2.0399-0.5418V170.8785L192.5045,170.8785z"/>
<path id="XMLID_84_" d="M199.9644,167.4395h-0.2567c-1.555,0-3.4105,0.1559-3.4105,1.7546c0,0.9563,0.6844,1.3118,1.5132,1.3118
	c2.1122,0,2.154-1.8421,2.154-2.6254V167.4395L199.9644,167.4395z M200.0499,169.9337h-0.0266
	c-0.4011,0.8726-1.4144,1.3421-2.3137,1.3421c-2.0683,0-2.3971-1.3973-2.3971-2.055c0-2.4391,2.5987-2.5532,4.4808-2.5532h0.1711
	v-0.3726c0-1.2395-0.4429-1.8688-1.6539-1.8688c-0.7567,0-1.4715,0.1731-2.1407,0.5989v-0.8707
	c0.557-0.27,1.4981-0.498,2.1407-0.498c1.7983,0,2.5531,0.8117,2.5531,2.7108v3.211c0,0.5874,0,1.0285,0.0742,1.5285h-0.8879
	V169.9337L200.0499,169.9337z"/>
<path id="XMLID_83_" d="M204.1144,165.4548c0-0.8004,0-1.0989-0.057-1.6274h0.9011v1.3992h0.0247
	c0.3308-0.8136,0.9449-1.5702,1.8727-1.5702c0.2128,0,0.4713,0.0418,0.6273,0.0855v0.9429
	c-0.1865-0.0589-0.4279-0.0855-0.6578-0.0855c-1.4258,0-1.8118,1.5968-1.8118,2.9105v3.5969h-0.8992V165.4548L204.1144,165.4548z"/>
<path id="XMLID_82_" d="M214.4601,164.797c-0.4866-0.2129-1.0722-0.3708-1.557-0.3708c-1.7546,0-2.7394,1.2719-2.7394,3.0399
	c0,1.6559,0.9981,3.0398,2.6406,3.0398c0.5721,0,1.0988-0.1274,1.6406-0.327l0.0855,0.8422
	c-0.6121,0.2129-1.1844,0.2547-1.8687,0.2547c-2.3422,0-3.4828-1.7831-3.4828-3.8097c0-2.2395,1.4411-3.8097,3.5949-3.8097
	c0.8727,0,1.5,0.1995,1.7566,0.2851L214.4601,164.797L214.4601,164.797z"/>
<path id="XMLID_81_" d="M217.1673,160.4036h0.8972v4.6519h0.0304c0.386-0.8003,1.1996-1.3991,2.2681-1.3991
	c1.9581,0,2.4847,1.2984,2.4847,3.0968v4.3535h-0.8992v-4.3402c0-1.2547-0.2434-2.3403-1.7262-2.3403
	c-1.6007,0-2.1578,1.5133-2.1578,2.7832v3.8973h-0.8972V160.4036L217.1673,160.4036z"/>
<polygon id="XMLID_80_" points="231.3892,161.1431 236.2693,161.1431 236.2693,162.0005 232.3759,162.0005 232.3759,165.5536 
	236.0697,165.5536 236.0697,166.411 232.3759,166.411 232.3759,170.2493 236.4404,170.2493 236.4404,171.1067 231.3892,171.1067 
	231.3892,161.1431 "/>
<path id="XMLID_77_" d="M243.1608,162.086l-2.1711,5.4941h4.325L243.1608,162.086L243.1608,162.086z M242.6759,161.1431h1.1122
	l3.9522,9.9636h-1.0265l-1.0721-2.6692h-5.0228l-1.0703,2.6692h-0.9562L242.6759,161.1431L242.6759,161.1431z"/>
<polygon id="XMLID_76_" points="250.2612,161.1431 255.1432,161.1431 255.1432,162.0005 251.246,162.0005 251.246,165.5536 
	254.9436,165.5536 254.9436,166.411 251.246,166.411 251.246,170.2493 255.3143,170.2493 255.3143,171.1067 250.2612,171.1067 
	250.2612,161.1431 "/>
<path id="XMLID_73_" d="M259.5214,165.5536h1.0418c1.1559,0,2.4808-0.443,2.4808-1.8269c0-1.6274-1.1539-1.7262-2.5093-1.7262
	h-1.0133V165.5536L259.5214,165.5536z M258.5367,161.1431h2.5702c1.768,0,2.9238,0.7566,2.9238,2.5836
	c0,1.2851-0.9867,2.1425-2.2109,2.2984v0.0285c0.7985,0.1007,0.9695,0.5285,1.2851,1.1996l1.6958,3.8535h-1.0836l-1.4411-3.3687
	c-0.5722-1.2852-0.998-1.327-1.941-1.327h-0.8136v4.6957h-0.9847V161.1431L258.5367,161.1431z"/>
<path id="XMLID_72_" d="M62.3076,182.6481c-0.6276-0.2718-1.3275-0.4296-2.0266-0.4296c-0.685,0-1.5695,0.3003-1.5695,1.384
	c0,1.728,4.3664,0.9999,4.3664,4.3401c0,2.1844-1.7265,3.0113-3.739,3.0113c-1.0842,0-1.5696-0.1426-2.5545-0.3859l0.1855-1.7965
	c0.6851,0.3707,1.4695,0.6122,2.2549,0.6122c0.7565,0,1.7701-0.386,1.7701-1.2852c0-1.8973-4.3673-1.114-4.3673-4.4086
	c0-2.2261,1.7266-3.0398,3.4817-3.0398c0.8569,0,1.6561,0.114,2.3839,0.3574L62.3076,182.6481L62.3076,182.6481z"/>
<path id="XMLID_71_" d="M65.5573,184.8305h-1.4128v-1.3992h1.4128v-1.4695l1.9133-0.6141v2.0836h1.6976v1.3992h-1.6976v3.4258
	c0,0.6274,0.1707,1.2129,0.8985,1.2129c0.3424,0,0.6711-0.0703,0.8706-0.2015l0.0576,1.5151
	c-0.4,0.1141-0.8427,0.1711-1.4127,0.1711c-1.4991,0-2.3273-0.9277-2.3273-2.3839V184.8305L65.5573,184.8305z"/>
<path id="XMLID_68_" d="M73.2611,189.5547c0.5857,0,1.0424-0.2566,1.3421-0.6558c0.3139-0.4145,0.3992-0.941,0.3992-1.5133h-0.8281
	c-0.8556,0-2.1256,0.1426-2.1256,1.2699C72.0487,189.2829,72.5758,189.5547,73.2611,189.5547L73.2611,189.5547z M71.0202,183.8173
	c0.7426-0.3422,1.7415-0.557,2.5554-0.557c2.2399,0,3.1682,0.9278,3.1682,3.0968v0.943c0,0.7433,0.0139,1.3003,0.0286,1.8421
	c0.0141,0.5551,0.0428,1.0684,0.0857,1.6406H75.174c-0.0714-0.3859-0.0714-0.8725-0.0862-1.0988H75.06
	c-0.4427,0.8137-1.399,1.2699-2.2696,1.2699c-1.2987,0-2.5686-0.7851-2.5686-2.1824c0-1.0989,0.5273-1.7414,1.2551-2.0988
	c0.7287-0.3555,1.6699-0.4277,2.4691-0.4277h1.0564c0-1.1863-0.528-1.5836-1.6551-1.5836c-0.8141,0-1.6273,0.3117-2.2697,0.7965
	L71.0202,183.8173L71.0202,183.8173z"/>
<path id="XMLID_67_" d="M79.4656,184.8305h-1.413v-1.3992h1.413v-1.4695l1.9131-0.6141v2.0836h1.6978v1.3992h-1.6978v3.4258
	c0,0.6274,0.1706,1.2129,0.8986,1.2129c0.3424,0,0.671-0.0703,0.8706-0.2015l0.0575,1.5151
	c-0.4001,0.1141-0.8418,0.1711-1.4137,0.1711c-1.4981,0-2.3261-0.9277-2.3261-2.3839V184.8305L79.4656,184.8305z"/>
<path id="XMLID_64_" d="M89.2112,186.3875c-0.0566-0.9296-0.4855-1.7261-1.5555-1.7261c-1.0705,0-1.6126,0.7413-1.6979,1.7261
	H89.2112L89.2112,186.3875z M90.496,190.3665c-0.6999,0.3878-1.4992,0.5874-2.5267,0.5874c-2.4255,0-3.8382-1.3992-3.8382-3.8116
	c0-2.1254,1.1268-3.882,3.4103-3.882c2.7264,0,3.4968,1.8707,3.4968,4.439h-5.0804c0.0853,1.1844,0.9134,1.8554,2.0978,1.8554
	c0.9274,0,1.7266-0.3422,2.4404-0.7433V190.3665L90.496,190.3665z"/>
<path id="XMLID_63_" d="M102.4492,182.6481c-0.6275-0.2718-1.3272-0.4296-2.0263-0.4296c-0.6851,0-1.5698,0.3003-1.5698,1.384
	c0,1.728,4.3667,0.9999,4.3667,4.3401c0,2.1844-1.7266,3.0113-3.739,3.0113c-1.0842,0-1.5698-0.1426-2.5548-0.3859l0.1858-1.7965
	c0.6849,0.3707,1.4694,0.6122,2.2546,0.6122c0.7568,0,1.7704-0.386,1.7704-1.2852c0-1.8973-4.3676-1.114-4.3676-4.4086
	c0-2.2261,1.7267-3.0398,3.4818-3.0398c0.8569,0,1.6561,0.114,2.384,0.3574L102.4492,182.6481L102.4492,182.6481z"/>
<path id="XMLID_60_" d="M109.6814,186.3875c-0.0567-0.9296-0.4856-1.7261-1.5558-1.7261c-1.0704,0-1.6125,0.7413-1.6978,1.7261
	H109.6814L109.6814,186.3875z M110.9661,190.3665c-0.6999,0.3878-1.4993,0.5874-2.5267,0.5874
	c-2.4256,0-3.8385-1.3992-3.8385-3.8116c0-2.1254,1.1269-3.882,3.4105-3.882c2.7264,0,3.4967,1.8707,3.4967,4.439h-5.0803
	c0.0853,1.1844,0.9133,1.8554,2.0978,1.8554c0.9274,0,1.7267-0.3422,2.4405-0.7433V190.3665L110.9661,190.3665z"/>
<path id="XMLID_59_" d="M117.9837,185.0169c-0.3426-0.1578-0.7137-0.2719-1.2985-0.2719c-1.1847,0-1.941,0.943-1.941,2.327
	c0,1.3554,0.6423,2.3972,1.9836,2.3972c0.5422,0,1.1417-0.2015,1.4704-0.3422l0.0854,1.5836
	c-0.557,0.173-1.128,0.2433-1.9123,0.2433c-2.4125,0-3.6258-1.6406-3.6258-3.8819c0-2.1255,1.2568-3.8117,3.5543-3.8117
	c0.7705,0,1.3274,0.0855,1.8556,0.2433L117.9837,185.0169L117.9837,185.0169z"/>
<path id="XMLID_58_" d="M119.8078,183.4313h1.6987v1.6711h0.028c0.0862-0.6844,0.8705-1.8421,2.0123-1.8421
	c0.1856,0,0.3852,0,0.5859,0.057v1.9277c-0.172-0.1008-0.5145-0.1578-0.8569-0.1578c-1.5558,0-1.5558,1.9429-1.5558,2.9961v2.6995
	h-1.9122V183.4313L119.8078,183.4313z"/>
<path id="XMLID_55_" d="M129.8813,186.3875c-0.0577-0.9296-0.4855-1.7261-1.556-1.7261c-1.0702,0-1.6122,0.7413-1.6985,1.7261
	H129.8813L129.8813,186.3875z M131.166,190.3665c-0.7,0.3878-1.4992,0.5874-2.5266,0.5874c-2.4257,0-3.8396-1.3992-3.8396-3.8116
	c0-2.1254,1.128-3.882,3.4115-3.882c2.7261,0,3.4968,1.8707,3.4968,4.439h-5.0813c0.0863,1.1844,0.9133,1.8554,2.0988,1.8554
	c0.9273,0,1.7265-0.3422,2.4404-0.7433V190.3665L131.166,190.3665z"/>
<path id="XMLID_54_" d="M134.0445,184.8305h-1.4127v-1.3992h1.4127v-1.4695l1.9132-0.6141v2.0836h1.6976v1.3992h-1.6976v3.4258
	c0,0.6274,0.1707,1.2129,0.8984,1.2129c0.3426,0,0.6714-0.0703,0.8708-0.2015l0.0575,1.5151
	c-0.4,0.1141-0.8428,0.1711-1.4128,0.1711c-1.499,0-2.3271-0.9277-2.3271-2.3839V184.8305L134.0445,184.8305z"/>
<path id="XMLID_51_" d="M141.7482,189.5547c0.5857,0,1.0423-0.2566,1.3421-0.6558c0.3139-0.4145,0.3993-0.941,0.3993-1.5133h-0.8282
	c-0.8559,0-2.1255,0.1426-2.1255,1.2699C140.5359,189.2829,141.0631,189.5547,141.7482,189.5547L141.7482,189.5547z
	 M139.5074,183.8173c0.7426-0.3422,1.7414-0.557,2.5554-0.557c2.2398,0,3.1681,0.9278,3.1681,3.0968v0.943
	c0,0.7433,0.0139,1.3003,0.0288,1.8421c0.014,0.5551,0.0428,1.0684,0.0855,1.6406h-1.6839
	c-0.0715-0.3859-0.0715-0.8725-0.0863-1.0988h-0.0278c-0.443,0.8137-1.399,1.2699-2.2697,1.2699
	c-1.2987,0-2.5686-0.7851-2.5686-2.1824c0-1.0989,0.5274-1.7414,1.2552-2.0988c0.7286-0.3555,1.6698-0.4277,2.469-0.4277h1.0565
	c0-1.1863-0.5281-1.5836-1.655-1.5836c-0.8141,0-1.6275,0.3117-2.2698,0.7965L139.5074,183.8173L139.5074,183.8173z"/>
<path id="XMLID_50_" d="M147.3678,183.4313h1.6988v1.6711h0.0278c0.0863-0.6844,0.8707-1.8421,2.0124-1.8421
	c0.1857,0,0.3854,0,0.5857,0.057v1.9277c-0.1715-0.1008-0.5142-0.1578-0.8568-0.1578c-1.5557,0-1.5557,1.9429-1.5557,2.9961v2.6995
	h-1.9122V183.4313L147.3678,183.4313z"/>
<path id="XMLID_47_" d="M153.1305,183.4313h1.9122v7.3515h-1.9122V183.4313L153.1305,183.4313z M153.1305,180.2641h1.9122v1.827
	h-1.9122V180.2641L153.1305,180.2641z"/>
<path id="XMLID_44_" d="M159.8362,189.5547c0.5857,0,1.0426-0.2566,1.3424-0.6558c0.3136-0.4145,0.3989-0.941,0.3989-1.5133h-0.8278
	c-0.8559,0-2.1258,0.1426-2.1258,1.2699C158.6239,189.2829,159.1512,189.5547,159.8362,189.5547L159.8362,189.5547z
	 M157.5954,183.8173c0.7425-0.3422,1.7414-0.557,2.5555-0.557c2.24,0,3.1681,0.9278,3.1681,3.0968v0.943
	c0,0.7433,0.0141,1.3003,0.0289,1.8421c0.0139,0.5551,0.0426,1.0684,0.0853,1.6406h-1.6837
	c-0.0715-0.3859-0.0715-0.8725-0.0863-1.0988h-0.028c-0.4427,0.8137-1.3989,1.2699-2.2695,1.2699
	c-1.2986,0-2.5686-0.7851-2.5686-2.1824c0-1.0989,0.5271-1.7414,1.2549-2.0988c0.7287-0.3555,1.6702-0.4277,2.4693-0.4277h1.0562
	c0-1.1863-0.528-1.5836-1.655-1.5836c-0.814,0-1.6272,0.3117-2.2695,0.7965L157.5954,183.8173L157.5954,183.8173z"/>
<path id="XMLID_43_" d="M166.0407,184.8305h-1.4127v-1.3992h1.4127v-1.4695l1.9131-0.6141v2.0836h1.6978v1.3992h-1.6978v3.4258
	c0,0.6274,0.1709,1.2129,0.8987,1.2129c0.3426,0,0.6711-0.0703,0.8707-0.2015l0.0576,1.5151
	c-0.4002,0.1141-0.8421,0.1711-1.4139,0.1711c-1.4982,0-2.3262-0.9277-2.3262-2.3839V184.8305L166.0407,184.8305z"/>
<path id="XMLID_42_" d="M176.0545,184.8305h-1.4125v-1.3992h1.4125v-1.0265c0-1.4696,0.8289-2.4962,2.3421-2.4962
	c0.4829,0,1.0266,0.0704,1.3973,0.156l-0.1577,1.5854c-0.1692-0.1007-0.4126-0.2585-0.8271-0.2585
	c-0.6425,0-0.8421,0.557-0.8421,1.1273v0.9125h1.6692v1.3992h-1.6692v5.9523h-1.9125V184.8305L176.0545,184.8305z"/>
<path id="XMLID_39_" d="M184.4858,189.4692c1.4715,0,1.8555-1.3137,1.8555-2.5399c0-1.1292-0.599-2.1843-1.8555-2.1843
	c-1.2413,0-1.8403,1.0856-1.8403,2.1843C182.6455,188.1441,183.0314,189.4692,184.4858,189.4692L184.4858,189.4692z
	 M184.4858,183.2603c2.1862,0,3.8554,1.4714,3.8554,3.8972c0,2.1102-1.4144,3.7964-3.8554,3.7964
	c-2.4258,0-3.8364-1.6862-3.8364-3.7964C180.6494,184.7317,182.3166,183.2603,184.4858,183.2603L184.4858,183.2603z"/>
<path id="XMLID_38_" d="M190.0902,183.4313h1.7014v1.6711h0.0267c0.0875-0.6844,0.8726-1.8421,2.0113-1.8421
	c0.1864,0,0.3859,0,0.5875,0.057v1.9277c-0.1712-0.1008-0.5152-0.1578-0.8575-0.1578c-1.5569,0-1.5569,1.9429-1.5569,2.9961v2.6995
	h-1.9125V183.4313L190.0902,183.4313z"/>
<polygon id="XMLID_37_" points="200.1621,180.8212 206.0421,180.8212 206.0421,182.3896 202.162,182.3896 202.162,184.8458 
	205.7152,184.8458 205.7152,186.4142 202.162,186.4142 202.162,189.2125 206.0726,189.2125 206.0726,190.7828 200.1621,190.7828 
	200.1621,180.8212 "/>
<path id="XMLID_36_" d="M212.9031,185.0169c-0.3403-0.1578-0.7129-0.2719-1.2985-0.2719c-1.1843,0-1.9409,0.943-1.9409,2.327
	c0,1.3554,0.6426,2.3972,1.9847,2.3972c0.5418,0,1.1407-0.2015,1.4715-0.3422l0.0855,1.5836
	c-0.557,0.173-1.1292,0.2433-1.9125,0.2433c-2.4144,0-3.6272-1.6406-3.6272-3.8819c0-2.1255,1.2585-3.8117,3.555-3.8117
	c0.7699,0,1.3269,0.0855,1.8534,0.2433L212.9031,185.0169L212.9031,185.0169z"/>
<path id="XMLID_33_" d="M218.0512,189.4692c1.4715,0,1.8555-1.3137,1.8555-2.5399c0-1.1292-0.5969-2.1843-1.8555-2.1843
	c-1.2414,0-1.8383,1.0856-1.8383,2.1843C216.2129,188.1441,216.597,189.4692,218.0512,189.4692L218.0512,189.4692z
	 M218.0512,183.2603c2.1863,0,3.8554,1.4714,3.8554,3.8972c0,2.1102-1.4124,3.7964-3.8554,3.7964
	c-2.4257,0-3.8364-1.6862-3.8364-3.7964C214.2148,184.7317,215.8821,183.2603,218.0512,183.2603L218.0512,183.2603z"/>
<path id="XMLID_32_" d="M223.6137,183.4313h1.8137v0.9981h0.0266c0.6008-0.8403,1.4144-1.1691,2.4144-1.1691
	c1.7414,0,2.4962,1.23,2.4962,2.8839v4.6386h-1.9125v-3.9238c0-0.9011-0.0134-2.114-1.2414-2.114c-1.3859,0-1.6844,1.5-1.6844,2.441
	v3.5968h-1.9126V183.4313L223.6137,183.4313z"/>
<path id="XMLID_29_" d="M235.9119,189.4692c1.4694,0,1.8555-1.3137,1.8555-2.5399c0-1.1292-0.5989-2.1843-1.8555-2.1843
	c-1.2414,0-1.8403,1.0856-1.8403,2.1843C234.0716,188.1441,234.4557,189.4692,235.9119,189.4692L235.9119,189.4692z
	 M235.9119,183.2603c2.1844,0,3.8535,1.4714,3.8535,3.8972c0,2.1102-1.4125,3.7964-3.8535,3.7964
	c-2.4258,0-3.8384-1.6862-3.8384-3.7964C232.0735,184.7317,233.7408,183.2603,235.9119,183.2603L235.9119,183.2603z"/>
<path id="XMLID_28_" d="M241.446,183.4313h1.7832v1.0285h0.0285c0.5988-0.8992,1.4714-1.1995,2.1844-1.1995
	c1.0284,0,1.7564,0.3859,2.1671,1.3003c0.4449-0.8859,1.4012-1.3003,2.2984-1.3003c1.8118,0,2.3289,1.2432,2.3289,2.8839v4.6386
	h-1.9144v-4.3801c0-0.6882,0-1.6577-1.097-1.6577c-1.2717,0-1.4296,1.5113-1.4296,2.4695v3.5683h-1.9124v-4.3801
	c0-0.6882,0-1.6577-1.0989-1.6577c-1.2699,0-1.4258,1.5113-1.4258,2.4695v3.5683h-1.9124V183.4313L241.446,183.4313z"/>
<path id="XMLID_25_" d="M254.4113,183.4313h1.9126v7.3515h-1.9126V183.4313L254.4113,183.4313z M254.4113,180.2641h1.9126v1.827
	h-1.9126V180.2641L254.4113,180.2641z"/>
<path id="XMLID_24_" d="M263.3159,185.0169c-0.3422-0.1578-0.7128-0.2719-1.3003-0.2719c-1.1844,0-1.9391,0.943-1.9391,2.327
	c0,1.3554,0.6426,2.3972,1.9848,2.3972c0.5418,0,1.1406-0.2015,1.4695-0.3422l0.0855,1.5836
	c-0.5569,0.173-1.1273,0.2433-1.9125,0.2433c-2.4124,0-3.6272-1.6406-3.6272-3.8819c0-2.1255,1.2585-3.8117,3.555-3.8117
	c0.7719,0,1.3288,0.0855,1.8555,0.2433L263.3159,185.0169L263.3159,185.0169z"/>
<path id="XMLID_21_" d="M273.4012,182.8192h-0.0304l-1.441,4.1101h2.9124L273.4012,182.8192L273.4012,182.8192z M272.3024,180.8212
	h2.2528l3.9143,9.9616h-2.213l-0.8572-2.2832h-4.0398l-0.8708,2.2832h-2.0684L272.3024,180.8212L272.3024,180.8212z"/>
<path id="XMLID_20_" d="M280.4884,184.8305h-1.4106v-1.3992h1.4106v-1.0265c0-1.4696,0.8288-2.4962,2.3441-2.4962
	c0.4828,0,1.0246,0.0704,1.3954,0.156l-0.1559,1.5854c-0.1711-0.1007-0.4126-0.2585-0.8289-0.2585
	c-0.6407,0-0.8422,0.557-0.8422,1.1273v0.9125h1.6711v1.3992h-1.6711v5.9523h-1.9125V184.8305L280.4884,184.8305z"/>
<path id="XMLID_19_" d="M285.9959,184.8305h-1.4107v-1.3992h1.4107v-1.0265c0-1.4696,0.827-2.4962,2.3421-2.4962
	c0.4828,0,1.0247,0.0704,1.3972,0.156l-0.1559,1.5854c-0.171-0.1007-0.4124-0.2585-0.8288-0.2585
	c-0.6425,0-0.8421,0.557-0.8421,1.1273v0.9125h1.6709v1.3992h-1.6709v5.9523h-1.9125V184.8305L285.9959,184.8305z"/>
<path id="XMLID_16_" d="M293.6286,189.5547c0.5836,0,1.04-0.2566,1.3404-0.6558c0.3154-0.4145,0.4011-0.941,0.4011-1.5133h-0.8271
	c-0.8572,0-2.1272,0.1426-2.1272,1.2699C292.4158,189.2829,292.9424,189.5547,293.6286,189.5547L293.6286,189.5547z
	 M291.3873,183.8173c0.7414-0.3422,1.7413-0.557,2.5531-0.557c2.2433,0,3.171,0.9278,3.171,3.0968v0.943
	c0,0.7433,0.0152,1.3003,0.0267,1.8421c0.0152,0.5551,0.0455,1.0684,0.0855,1.6406h-1.6824
	c-0.0703-0.3859-0.0703-0.8725-0.0856-1.0988h-0.0285c-0.443,0.8137-1.4011,1.2699-2.27,1.2699
	c-1.2983,0-2.5682-0.7851-2.5682-2.1824c0-1.0989,0.5265-1.7414,1.2547-2.0988c0.7281-0.3555,1.671-0.4277,2.4694-0.4277h1.0571
	c0-1.1863-0.5267-1.5836-1.6558-1.5836c-0.8119,0-1.6256,0.3117-2.2681,0.7965L291.3873,183.8173L291.3873,183.8173z"/>
<path id="XMLID_13_" d="M299.2464,183.4313h1.9125v7.3515h-1.9125V183.4313L299.2464,183.4313z M299.2464,180.2641h1.9125v1.827
	h-1.9125V180.2641L299.2464,180.2641z"/>
<path id="XMLID_12_" d="M303.4288,183.4313h1.6957v1.6711h0.0304c0.0856-0.6844,0.8726-1.8421,2.0113-1.8421
	c0.1863,0,0.3879,0,0.5875,0.057v1.9277c-0.1711-0.1008-0.5152-0.1578-0.8574-0.1578c-1.555,0-1.555,1.9429-1.555,2.9961v2.6995
	h-1.9125V183.4313L303.4288,183.4313z"/>
<path id="XMLID_11_" d="M313.5159,184.9731c-0.5855-0.1996-1.0132-0.3117-1.7148-0.3117c-0.5133,0-1.1254,0.1844-1.1254,0.8117
	c0,1.1692,3.3231,0.4278,3.3231,3.0817c0,1.7147-1.5266,2.3991-3.0816,2.3991c-0.7283,0-1.4696-0.1292-2.1693-0.3156l0.116-1.5684
	c0.5969,0.2985,1.2263,0.4848,1.8821,0.4848c0.4866,0,1.2547-0.1863,1.2547-0.8992c0-1.441-3.3231-0.4562-3.3231-3.112
	c0-1.5837,1.3821-2.2832,2.8821-2.2832c0.8992,0,1.4848,0.1425,2.0835,0.2718L313.5159,184.9731L313.5159,184.9731z"/>
<path id="XMLID_10_" d="M325.3977,182.6481c-0.6275-0.2718-1.3252-0.4296-2.0266-0.4296c-0.6825,0-1.5703,0.3003-1.5703,1.384
	c0,1.728,4.3706,0.9999,4.3706,4.3401c0,2.1844-1.7319,3.0113-3.7395,3.0113c-1.0894,0-1.5702-0.1426-2.5588-0.3859l0.1863-1.7965
	c0.6863,0.3707,1.4695,0.6122,2.2565,0.6122c0.7547,0,1.768-0.386,1.768-1.2852c0-1.8973-4.3667-1.114-4.3667-4.4086
	c0-2.2261,1.7261-3.0398,3.4827-3.0398c0.8575,0,1.6559,0.114,2.384,0.3574L325.3977,182.6481L325.3977,182.6481z"/>
<polygon id="XMLID_9_" points="328.1904,180.8212 334.0722,180.8212 334.0722,182.3896 330.1883,182.3896 330.1883,184.8458 
	333.7414,184.8458 333.7414,186.4142 330.1883,186.4142 330.1883,189.2125 334.0969,189.2125 334.0969,190.7828 328.1904,190.7828 
	328.1904,180.8212 "/>
<path id="XMLID_8_" d="M343.589,190.6383c-0.728,0.173-1.5151,0.3156-2.2699,0.3156c-3.2261,0-5.4693-1.614-5.4693-4.9808
	c0-3.4106,2.0873-5.323,5.4693-5.323c0.6541,0,1.5266,0.1273,2.2547,0.4125l-0.1445,1.6862
	c-0.7547-0.4296-1.441-0.5303-2.1539-0.5303c-2.0531,0-3.3383,1.5703-3.3383,3.6121c0,2.0265,1.2547,3.5531,3.382,3.5531
	c0.7833,0,1.7129-0.1712,2.1844-0.4145L343.589,190.6383L343.589,190.6383z"/>
<path id="XMLID_5_" d="M349.663,189.3837c2.0417,0,2.7965-1.8118,2.7965-3.6121c0-1.7528-0.8137-3.5531-2.7965-3.5531
	c-1.9828,0-2.7964,1.8003-2.7964,3.5531C346.8666,187.5719,347.6213,189.3837,349.663,189.3837L349.663,189.3837z M349.663,180.6501
	c3.1272,0,4.882,2.1121,4.882,5.1215c0,3.0113-1.73,5.1823-4.882,5.1823c-3.1976,0-4.882-2.1272-4.882-5.1823
	C344.781,182.7184,346.4958,180.6501,349.663,180.6501L349.663,180.6501z"/>
<path id="XMLID_4_" class="st0" d="M40.4284,3.306c0,0-7.545-3.306-20.1767-3.306h-0.0038C7.6162,0,0.0694,3.306,0.0694,3.306
	s-0.6757,14.6307,2.1889,22.9023c5.059,14.547,17.9879,18.6325,17.9879,18.6325h0.0035h0.004c0,0,12.9268-4.0855,17.9877-18.6325
	C41.106,17.9367,40.4284,3.306,40.4284,3.306L40.4284,3.306z"/>
<g id="XMLID_2_">
	<polygon id="XMLID_3_" class="st1" points="33.6594,15.9178 33.6594,23.9802 24.2544,23.9802 24.2544,33.3848 16.1933,33.3848 
		16.1933,23.9802 6.7882,23.9802 6.7882,15.9178 16.1933,15.9178 16.1933,6.515 24.2525,6.515 24.2544,15.9178 33.6594,15.9178 	"/>
</g>
</svg>
