<?xml version="1.0" encoding="utf-8"?>
<!-- Generator: Adobe Illustrator 22.1.0, SVG Export Plug-In . SVG Version: 6.00 Build 0)  -->
<svg version="1.1" id="Layer_2" xmlns="http://www.w3.org/2000/svg" xmlns:xlink="http://www.w3.org/1999/xlink" x="0px" y="0px"
	 viewBox="0 0 237.6599 69.8651" style="enable-background:new 0 0 237.6599 69.8651;" xml:space="preserve">
<style type="text/css">
	.st0{fill:#807D7A;}
	.st1{fill:#59380A;}
	.st2{fill:#87B52D;}
</style>
<g id="XMLID_21_">
	<path id="XMLID_22_" class="st0" d="M25.3278,67.5502l-1.8809-7.874h1.6279l1.1865,5.4087l1.4395-5.4087h1.8906l1.3808,5.5
		l1.209-5.5h1.5996l-1.9121,7.874h-1.6855l-1.5684-5.8867l-1.5635,5.8867H25.3278z"/>
	<path id="XMLID_25_" class="st0" d="M35.3015,63.5863l-1.3701-0.2471c0.1543-0.5513,0.4199-0.9595,0.7949-1.2246
		c0.377-0.2651,0.9355-0.3975,1.6758-0.3975c0.6738,0,1.1748,0.0796,1.5039,0.2393c0.3301,0.1592,0.5625,0.3613,0.6953,0.6064
		c0.1348,0.2456,0.2021,0.6958,0.2021,1.3511l-0.0166,1.7617c0,0.5015,0.0254,0.8711,0.0723,1.1089
		c0.0488,0.2383,0.1396,0.4937,0.2715,0.7656h-1.4922c-0.04-0.1001-0.0879-0.249-0.1455-0.4458
		c-0.0244-0.0894-0.043-0.1484-0.0537-0.1772c-0.2578,0.2505-0.5332,0.4385-0.8271,0.564s-0.6064,0.188-0.9404,0.188
		c-0.5869,0-1.0488-0.1592-1.3887-0.478c-0.3379-0.3188-0.5068-0.7217-0.5068-1.2085c0-0.3223,0.0771-0.6094,0.2314-0.8623
		c0.1533-0.252,0.3691-0.4453,0.6465-0.5801c0.2773-0.1338,0.6777-0.2515,1.2012-0.3516c0.7051-0.1323,1.1934-0.2559,1.4658-0.3706
		v-0.1504c0-0.29-0.0713-0.4966-0.2148-0.6206c-0.1436-0.123-0.4131-0.1851-0.8115-0.1851c-0.2676,0-0.4775,0.0527-0.6279,0.1587
		C35.5163,63.1361,35.3942,63.3212,35.3015,63.5863z M37.321,64.8109c-0.1934,0.0645-0.499,0.1416-0.9189,0.231
		c-0.418,0.0894-0.6924,0.1772-0.8213,0.2632c-0.1963,0.1396-0.2959,0.3169-0.2959,0.5317c0,0.2114,0.0791,0.394,0.2363,0.5479
		c0.1582,0.1538,0.3584,0.231,0.6016,0.231c0.2725,0,0.5322-0.0894,0.7793-0.2686c0.1826-0.1362,0.3027-0.3027,0.3594-0.4995
		c0.04-0.1289,0.0596-0.374,0.0596-0.7358V64.8109z"/>
	<path id="XMLID_28_" class="st0" d="M39.7595,65.9228l1.5146-0.231c0.0645,0.2935,0.1953,0.5166,0.3916,0.6689
		c0.1973,0.1519,0.4727,0.228,0.8281,0.228c0.3896,0,0.6836-0.0718,0.8809-0.2148c0.1318-0.1001,0.1982-0.2344,0.1982-0.4028
		c0-0.1147-0.0361-0.2095-0.1074-0.2847c-0.0752-0.0718-0.2432-0.1377-0.5049-0.1987c-1.2168-0.2686-1.9893-0.5137-2.3145-0.7358
		c-0.4512-0.3081-0.6777-0.7358-0.6777-1.2837c0-0.4941,0.1953-0.9097,0.5859-1.2461s0.9961-0.5049,1.8154-0.5049
		c0.7803,0,1.3604,0.127,1.7402,0.3813s0.6416,0.6304,0.7842,1.1279l-1.4238,0.2632c-0.0605-0.2222-0.1758-0.3921-0.3457-0.5103
		s-0.4131-0.1772-0.7285-0.1772c-0.3965,0-0.6816,0.0557-0.8535,0.1665c-0.1152,0.0786-0.1719,0.1807-0.1719,0.3062
		c0,0.1074,0.0508,0.1987,0.1504,0.2739c0.1367,0.1001,0.6055,0.2417,1.4102,0.4243c0.8037,0.1826,1.3652,0.4063,1.6836,0.6714
		c0.3145,0.2686,0.4727,0.6426,0.4727,1.1226c0,0.5229-0.2188,0.9722-0.6553,1.3481s-1.083,0.564-1.9385,0.564
		c-0.7773,0-1.3926-0.1577-1.8457-0.4727S39.8991,66.4633,39.7595,65.9228z"/>
	<path id="XMLID_30_" class="st0" d="M49.0251,61.8461v1.2031h-1.0313v2.2988c0,0.4653,0.0098,0.7368,0.0293,0.8135
		c0.0195,0.0771,0.0645,0.1406,0.1348,0.1909c0.0684,0.0503,0.1543,0.0752,0.2539,0.0752c0.1406,0,0.3418-0.0483,0.6074-0.145
		l0.1289,1.1709c-0.3516,0.1504-0.748,0.2256-1.1924,0.2256c-0.2725,0-0.5176-0.0459-0.7354-0.1367
		c-0.2188-0.0918-0.3789-0.21-0.4805-0.3545c-0.1035-0.1455-0.1738-0.3413-0.2129-0.5884
		c-0.0322-0.1753-0.0488-0.5298-0.0488-1.0635v-2.4868h-0.6924v-1.2031h0.6924v-1.1333l1.5156-0.8809v2.0142H49.0251z"/>
	<path id="XMLID_32_" class="st0" d="M53.3747,65.7348l1.5039,0.2524c-0.1934,0.5513-0.498,0.9712-0.916,1.2593
		c-0.416,0.2886-0.9385,0.4326-1.5645,0.4326c-0.9922,0-1.7266-0.3242-2.2031-0.9722c-0.375-0.519-0.5635-1.1743-0.5635-1.9658
		c0-0.9453,0.2471-1.6855,0.7412-2.2212c0.4941-0.5352,1.1191-0.8027,1.875-0.8027c0.8477,0,1.5176,0.2803,2.0078,0.8408
		c0.4912,0.5601,0.7256,1.4185,0.7041,2.5752h-3.7813c0.0107,0.4478,0.1318,0.7959,0.3652,1.0449
		c0.2334,0.2485,0.5225,0.373,0.8701,0.373c0.2363,0,0.4355-0.0645,0.5957-0.1934C53.1716,66.2289,53.2927,66.0214,53.3747,65.7348z
		 M53.4606,64.2094c-0.0098-0.437-0.123-0.769-0.3379-0.9961c-0.2148-0.2275-0.4766-0.3413-0.7842-0.3413
		c-0.3291,0-0.6016,0.1201-0.8164,0.3599s-0.3203,0.5659-0.3174,0.9775H53.4606z"/>
	<path id="XMLID_38_" class="st0" d="M59.2351,67.5502v-7.874h2.3799l1.4277,5.3711l1.4131-5.3711h2.3848v7.874H65.363V61.352
		l-1.5625,6.1982h-1.5313l-1.5566-6.1982v6.1982H59.2351z"/>
	<path id="XMLID_43_" class="st0" d="M69.5368,63.5863l-1.3691-0.2471c0.1533-0.5513,0.418-0.9595,0.7949-1.2246
		c0.375-0.2651,0.9336-0.3975,1.6758-0.3975c0.6729,0,1.1738,0.0796,1.5039,0.2393c0.3291,0.1592,0.5605,0.3613,0.6953,0.6064
		c0.1348,0.2456,0.2012,0.6958,0.2012,1.3511l-0.0156,1.7617c0,0.5015,0.0234,0.8711,0.0723,1.1089
		c0.0488,0.2383,0.1387,0.4937,0.2715,0.7656h-1.4941c-0.0391-0.1001-0.0879-0.249-0.1445-0.4458
		c-0.0254-0.0894-0.043-0.1484-0.0537-0.1772c-0.2578,0.2505-0.5342,0.4385-0.8272,0.564c-0.293,0.1255-0.6074,0.188-0.9394,0.188
		c-0.5879,0-1.0508-0.1592-1.3887-0.478s-0.5078-0.7217-0.5078-1.2085c0-0.3223,0.0771-0.6094,0.2305-0.8623
		c0.1543-0.252,0.3701-0.4453,0.6484-0.5801c0.2773-0.1338,0.6768-0.2515,1.1992-0.3516c0.7061-0.1323,1.1953-0.2559,1.4668-0.3706
		v-0.1504c0-0.29-0.0723-0.4966-0.2148-0.6206c-0.1426-0.123-0.4141-0.1851-0.8105-0.1851c-0.2695,0-0.4785,0.0527-0.6289,0.1587
		C69.7517,63.1361,69.6306,63.3212,69.5368,63.5863z M71.5563,64.8109c-0.1934,0.0645-0.5,0.1416-0.918,0.231
		c-0.4199,0.0894-0.6934,0.1772-0.8223,0.2632c-0.1973,0.1396-0.2949,0.3169-0.2949,0.5317c0,0.2114,0.0781,0.394,0.2363,0.5479
		c0.1572,0.1538,0.3574,0.231,0.6016,0.231c0.2715,0,0.5313-0.0894,0.7783-0.2686c0.1826-0.1362,0.3027-0.3027,0.3604-0.4995
		c0.0391-0.1289,0.0586-0.374,0.0586-0.7358V64.8109z"/>
	<path id="XMLID_46_" class="st0" d="M79.7145,67.5502h-1.5088v-2.9111c0-0.6157-0.0322-1.0142-0.0967-1.1953
		c-0.0645-0.1807-0.1689-0.3213-0.3145-0.4214c-0.1445-0.1001-0.3193-0.1504-0.5234-0.1504c-0.2617,0-0.4961,0.0718-0.7031,0.2148
		c-0.208,0.1431-0.3506,0.333-0.4277,0.5693c-0.0762,0.2363-0.1152,0.6733-0.1152,1.3105v2.5835h-1.5098v-5.7041h1.4023v0.8379
		c0.498-0.6445,1.125-0.9668,1.8799-0.9668c0.333,0,0.6377,0.0601,0.9131,0.1797c0.2754,0.1201,0.4844,0.2734,0.626,0.4595
		s0.2393,0.3975,0.2949,0.6338s0.083,0.5747,0.083,1.0151V67.5502z"/>
	<path id="XMLID_48_" class="st0" d="M82.3737,63.5863l-1.3701-0.2471c0.1543-0.5513,0.4199-0.9595,0.7949-1.2246
		c0.377-0.2651,0.9355-0.3975,1.6758-0.3975c0.6738,0,1.1748,0.0796,1.5039,0.2393c0.3301,0.1592,0.5625,0.3613,0.6953,0.6064
		c0.1348,0.2456,0.2021,0.6958,0.2021,1.3511l-0.0166,1.7617c0,0.5015,0.0254,0.8711,0.0723,1.1089
		c0.0488,0.2383,0.1396,0.4937,0.2715,0.7656h-1.4922c-0.04-0.1001-0.0879-0.249-0.1455-0.4458
		c-0.0244-0.0894-0.043-0.1484-0.0537-0.1772c-0.2578,0.2505-0.5332,0.4385-0.8271,0.564s-0.6064,0.188-0.9404,0.188
		c-0.5869,0-1.0488-0.1592-1.3887-0.478c-0.3379-0.3188-0.5068-0.7217-0.5068-1.2085c0-0.3223,0.0771-0.6094,0.2314-0.8623
		c0.1533-0.252,0.3691-0.4453,0.6465-0.5801c0.2773-0.1338,0.6777-0.2515,1.2012-0.3516c0.7051-0.1323,1.1934-0.2559,1.4658-0.3706
		v-0.1504c0-0.29-0.0713-0.4966-0.2148-0.6206c-0.1436-0.123-0.4131-0.1851-0.8115-0.1851c-0.2676,0-0.4775,0.0527-0.6279,0.1587
		C82.5886,63.1361,82.4665,63.3212,82.3737,63.5863z M84.3933,64.8109c-0.1934,0.0645-0.499,0.1416-0.9189,0.231
		c-0.418,0.0894-0.6924,0.1772-0.8213,0.2632c-0.1963,0.1396-0.2959,0.3169-0.2959,0.5317c0,0.2114,0.0791,0.394,0.2363,0.5479
		c0.1582,0.1538,0.3584,0.231,0.6016,0.231c0.2725,0,0.5322-0.0894,0.7793-0.2686c0.1826-0.1362,0.3027-0.3027,0.3594-0.4995
		c0.04-0.1289,0.0596-0.374,0.0596-0.7358V64.8109z"/>
	<path id="XMLID_51_" class="st0" d="M87.2243,67.9262l1.7236,0.2095c0.0283,0.2007,0.0947,0.3384,0.1982,0.4136
		c0.1436,0.1074,0.3691,0.1611,0.6777,0.1611c0.3936,0,0.6885-0.0591,0.8857-0.1772c0.1328-0.0786,0.2324-0.2061,0.3008-0.3813
		c0.0469-0.1255,0.0693-0.3564,0.0693-0.6929v-0.8325c-0.4512,0.6157-1.0195,0.9238-1.707,0.9238
		c-0.7666,0-1.374-0.3242-1.8213-0.9722c-0.3506-0.5122-0.5264-1.1494-0.5264-1.9121c0-0.9561,0.2305-1.6865,0.6904-2.1914
		s1.0322-0.7573,1.7158-0.7573c0.7051,0,1.2871,0.3096,1.7461,0.9292v-0.8003h1.4121v5.1187c0,0.6733-0.0557,1.1763-0.166,1.5093
		c-0.1113,0.333-0.2676,0.5942-0.4678,0.7842s-0.4678,0.3384-0.8027,0.4458s-0.7588,0.1611-1.2705,0.1611
		c-0.9668,0-1.6523-0.1655-2.0566-0.4966c-0.4053-0.3315-0.6074-0.7515-0.6074-1.2598
		C87.2185,68.0585,87.2204,67.998,87.2243,67.9262z M88.572,64.58c0,0.605,0.1172,1.0483,0.3516,1.3296
		c0.2344,0.2808,0.5234,0.4214,0.8672,0.4214c0.3691,0,0.6807-0.144,0.9355-0.4321c0.2539-0.2886,0.3809-0.7153,0.3809-1.2813
		c0-0.5908-0.1221-1.0293-0.3652-1.3159s-0.5518-0.4297-0.9238-0.4297c-0.3613,0-0.6602,0.1406-0.8945,0.4214
		C88.6892,63.5746,88.572,64.0033,88.572,64.58z"/>
	<path id="XMLID_54_" class="st0" d="M97.3854,65.7348l1.5039,0.2524c-0.1934,0.5513-0.499,0.9712-0.916,1.2593
		c-0.417,0.2886-0.9385,0.4326-1.5654,0.4326c-0.9922,0-1.7256-0.3242-2.2021-0.9722c-0.376-0.519-0.5635-1.1743-0.5635-1.9658
		c0-0.9453,0.2461-1.6855,0.7402-2.2212c0.4941-0.5352,1.1191-0.8027,1.875-0.8027c0.8486,0,1.5186,0.2803,2.0088,0.8408
		c0.4902,0.5601,0.7256,1.4185,0.7041,2.5752h-3.7813c0.0098,0.4478,0.1318,0.7959,0.3652,1.0449
		c0.2324,0.2485,0.5225,0.373,0.8691,0.373c0.2363,0,0.4355-0.0645,0.5967-0.1934S97.3034,66.0214,97.3854,65.7348z
		 M97.4714,64.2094c-0.0107-0.437-0.124-0.769-0.3389-0.9961c-0.2148-0.2275-0.4756-0.3413-0.7832-0.3413
		c-0.3301,0-0.6016,0.1201-0.8164,0.3599s-0.3213,0.5659-0.3174,0.9775H97.4714z"/>
	<path id="XMLID_57_" class="st0" d="M100.0876,61.8461h1.3916v0.7788c0.4971-0.605,1.0898-0.9077,1.7773-0.9077
		c0.3652,0,0.6816,0.0752,0.9512,0.2256c0.2676,0.1504,0.4883,0.3779,0.6602,0.6821c0.251-0.3042,0.5215-0.5317,0.8105-0.6821
		c0.291-0.1504,0.6006-0.2256,0.9297-0.2256c0.4189,0,0.7734,0.085,1.0635,0.2549c0.29,0.1704,0.5068,0.4199,0.6494,0.7495
		c0.1045,0.2437,0.1563,0.6372,0.1563,1.1816v3.647h-1.5098v-3.2603c0-0.5659-0.0518-0.9312-0.1553-1.0957
		c-0.1396-0.2148-0.3545-0.3223-0.6445-0.3223c-0.2109,0-0.4102,0.0645-0.5967,0.1934c-0.1855,0.1289-0.3203,0.3179-0.4023,0.5669
		c-0.082,0.2485-0.123,0.6416-0.123,1.1787v2.7393h-1.5098v-3.126c0-0.5552-0.0273-0.9131-0.0801-1.0742
		c-0.0547-0.1611-0.1377-0.2813-0.25-0.3599c-0.1133-0.0786-0.2656-0.1182-0.459-0.1182c-0.2334,0-0.4424,0.0625-0.6289,0.188
		s-0.3193,0.3062-0.4004,0.5425c-0.0801,0.2363-0.1211,0.6284-0.1211,1.1763v2.7715h-1.5088V61.8461z"/>
	<path id="XMLID_59_" class="st0" d="M113.2839,65.7348l1.5039,0.2524c-0.1934,0.5513-0.499,0.9712-0.916,1.2593
		c-0.417,0.2886-0.9385,0.4326-1.5654,0.4326c-0.9922,0-1.7256-0.3242-2.2021-0.9722c-0.376-0.519-0.5635-1.1743-0.5635-1.9658
		c0-0.9453,0.2461-1.6855,0.7402-2.2212c0.4941-0.5352,1.1191-0.8027,1.875-0.8027c0.8486,0,1.5186,0.2803,2.0088,0.8408
		c0.4902,0.5601,0.7256,1.4185,0.7041,2.5752h-3.7813c0.0098,0.4478,0.1318,0.7959,0.3652,1.0449
		c0.2324,0.2485,0.5225,0.373,0.8691,0.373c0.2363,0,0.4355-0.0645,0.5967-0.1934S113.2019,66.0214,113.2839,65.7348z
		 M113.3698,64.2094c-0.0107-0.437-0.124-0.769-0.3389-0.9961c-0.2148-0.2275-0.4756-0.3413-0.7832-0.3413
		c-0.3301,0-0.6016,0.1201-0.8164,0.3599s-0.3213,0.5659-0.3174,0.9775H113.3698z"/>
	<path id="XMLID_62_" class="st0" d="M121.2878,67.5502h-1.5098v-2.9111c0-0.6157-0.0322-1.0142-0.0967-1.1953
		c-0.0645-0.1807-0.1689-0.3213-0.3145-0.4214c-0.1445-0.1001-0.3193-0.1504-0.5234-0.1504c-0.2617,0-0.4961,0.0718-0.7041,0.2148
		c-0.207,0.1431-0.3496,0.333-0.4268,0.5693s-0.1152,0.6733-0.1152,1.3105v2.5835h-1.5088v-5.7041h1.4014v0.8379
		c0.498-0.6445,1.124-0.9668,1.8799-0.9668c0.333,0,0.6377,0.0601,0.9131,0.1797c0.2754,0.1201,0.4844,0.2734,0.626,0.4595
		s0.2393,0.3975,0.2949,0.6338s0.084,0.5747,0.084,1.0151V67.5502z"/>
	<path id="XMLID_64_" class="st0" d="M125.4343,61.8461v1.2031h-1.0313v2.2988c0,0.4653,0.0098,0.7368,0.0293,0.8135
		c0.0195,0.0771,0.0645,0.1406,0.1348,0.1909c0.0693,0.0503,0.1543,0.0752,0.2549,0.0752c0.1396,0,0.3418-0.0483,0.6074-0.145
		l0.1289,1.1709c-0.3516,0.1504-0.749,0.2256-1.1934,0.2256c-0.2715,0-0.5166-0.0459-0.7354-0.1367
		c-0.2188-0.0918-0.3789-0.21-0.4805-0.3545c-0.1025-0.1455-0.1729-0.3413-0.2119-0.5884
		c-0.0332-0.1753-0.0488-0.5298-0.0488-1.0635v-2.4868h-0.6934v-1.2031h0.6934v-1.1333l1.5146-0.8809v2.0142H125.4343z"/>
	<path id="XMLID_66_" class="st0" d="M129.5534,67.5502v-7.874h3.3467c0.8408,0,1.4521,0.0708,1.834,0.2119
		c0.3809,0.1416,0.6865,0.3931,0.916,0.7549c0.2285,0.3618,0.3438,0.7754,0.3438,1.2407c0,0.5908-0.1738,1.0786-0.5215,1.4634
		c-0.3476,0.3853-0.8662,0.6279-1.5576,0.728c0.3438,0.2007,0.6279,0.4209,0.8516,0.6606s0.5254,0.666,0.9053,1.2783l0.9609,1.5361
		h-1.9014l-1.1494-1.7134c-0.4082-0.6123-0.6875-0.998-0.8379-1.1577c-0.1504-0.1592-0.3096-0.2686-0.4785-0.3271
		c-0.168-0.0596-0.4346-0.0889-0.7998-0.0889h-0.3223v3.2871H129.5534z M131.1432,63.0063h1.1768
		c0.7617,0,1.2383-0.0322,1.4277-0.0967c0.1904-0.0645,0.3389-0.1753,0.4463-0.333s0.1611-0.3545,0.1611-0.5908
		c0-0.2651-0.0703-0.479-0.2119-0.6416c-0.1416-0.1631-0.3408-0.2661-0.5986-0.3091c-0.1289-0.0181-0.5156-0.0269-1.1602-0.0269
		h-1.2412V63.0063z"/>
	<path id="XMLID_69_" class="st0" d="M140.7839,65.7348l1.5039,0.2524c-0.1934,0.5513-0.499,0.9712-0.916,1.2593
		c-0.417,0.2886-0.9385,0.4326-1.5654,0.4326c-0.9922,0-1.7256-0.3242-2.2021-0.9722c-0.376-0.519-0.5635-1.1743-0.5635-1.9658
		c0-0.9453,0.2461-1.6855,0.7402-2.2212c0.4941-0.5352,1.1191-0.8027,1.875-0.8027c0.8486,0,1.5186,0.2803,2.0088,0.8408
		c0.4902,0.5601,0.7256,1.4185,0.7041,2.5752h-3.7813c0.0098,0.4478,0.1318,0.7959,0.3652,1.0449
		c0.2324,0.2485,0.5225,0.373,0.8691,0.373c0.2363,0,0.4355-0.0645,0.5967-0.1934S140.7018,66.0214,140.7839,65.7348z
		 M140.8698,64.2094c-0.0107-0.437-0.124-0.769-0.3389-0.9961c-0.2148-0.2275-0.4756-0.3413-0.7832-0.3413
		c-0.3301,0-0.6016,0.1201-0.8164,0.3599s-0.3213,0.5659-0.3174,0.9775H140.8698z"/>
	<path id="XMLID_72_" class="st0" d="M143.4597,67.9262l1.7236,0.2095c0.0283,0.2007,0.0947,0.3384,0.1982,0.4136
		c0.1436,0.1074,0.3691,0.1611,0.6777,0.1611c0.3936,0,0.6885-0.0591,0.8857-0.1772c0.1328-0.0786,0.2324-0.2061,0.3008-0.3813
		c0.0469-0.1255,0.0693-0.3564,0.0693-0.6929v-0.8325c-0.4512,0.6157-1.0195,0.9238-1.707,0.9238
		c-0.7666,0-1.374-0.3242-1.8213-0.9722c-0.3506-0.5122-0.5264-1.1494-0.5264-1.9121c0-0.9561,0.2305-1.6865,0.6904-2.1914
		s1.0322-0.7573,1.7158-0.7573c0.7051,0,1.2871,0.3096,1.7461,0.9292v-0.8003h1.4121v5.1187c0,0.6733-0.0557,1.1763-0.166,1.5093
		c-0.1113,0.333-0.2676,0.5942-0.4678,0.7842s-0.4678,0.3384-0.8027,0.4458s-0.7588,0.1611-1.2705,0.1611
		c-0.9668,0-1.6523-0.1655-2.0566-0.4966c-0.4053-0.3315-0.6074-0.7515-0.6074-1.2598
		C143.4538,68.0585,143.4557,67.998,143.4597,67.9262z M144.8073,64.58c0,0.605,0.1172,1.0483,0.3516,1.3296
		c0.2344,0.2808,0.5234,0.4214,0.8672,0.4214c0.3691,0,0.6807-0.144,0.9355-0.4321c0.2539-0.2886,0.3809-0.7153,0.3809-1.2813
		c0-0.5908-0.1221-1.0293-0.3652-1.3159s-0.5518-0.4297-0.9238-0.4297c-0.3613,0-0.6602,0.1406-0.8945,0.4214
		C144.9245,63.5746,144.8073,64.0033,144.8073,64.58z"/>
	<path id="XMLID_75_" class="st0" d="M154.0729,67.5502v-0.854c-0.208,0.3042-0.4805,0.5444-0.8193,0.7197
		c-0.3379,0.1753-0.6953,0.2632-1.0713,0.2632c-0.3828,0-0.7266-0.084-1.0313-0.2524s-0.5244-0.4048-0.6611-0.709
		c-0.1357-0.3042-0.2031-0.7251-0.2031-1.2622v-3.6094h1.5088v2.6211c0,0.8022,0.0273,1.2935,0.083,1.4746
		c0.0557,0.1807,0.1572,0.3237,0.3037,0.4297c0.1465,0.1055,0.333,0.1582,0.5586,0.1582c0.2578,0,0.4893-0.0708,0.6924-0.2119
		c0.2051-0.1416,0.3438-0.3174,0.4199-0.5264c0.0742-0.21,0.1123-0.7227,0.1123-1.5391v-2.4063h1.5088v5.7041H154.0729z"/>
	<path id="XMLID_77_" class="st0" d="M157.0368,67.5502v-7.874h1.5098v7.874H157.0368z"/>
	<path id="XMLID_79_" class="st0" d="M161.2223,63.5863l-1.3701-0.2471c0.1543-0.5513,0.4189-0.9595,0.7949-1.2246
		s0.9346-0.3975,1.6758-0.3975c0.6729,0,1.1748,0.0796,1.5039,0.2393c0.3291,0.1592,0.5615,0.3613,0.6953,0.6064
		c0.1348,0.2456,0.2021,0.6958,0.2021,1.3511l-0.0166,1.7617c0,0.5015,0.0244,0.8711,0.0723,1.1089
		c0.0488,0.2383,0.1387,0.4937,0.2715,0.7656h-1.4932c-0.0391-0.1001-0.0879-0.249-0.1445-0.4458
		c-0.0254-0.0894-0.043-0.1484-0.0547-0.1772c-0.2578,0.2505-0.5332,0.4385-0.8262,0.564c-0.2939,0.1255-0.6074,0.188-0.9404,0.188
		c-0.5869,0-1.0498-0.1592-1.3887-0.478c-0.3379-0.3188-0.5068-0.7217-0.5068-1.2085c0-0.3223,0.0762-0.6094,0.2305-0.8623
		c0.1543-0.252,0.3701-0.4453,0.6475-0.5801c0.2773-0.1338,0.6777-0.2515,1.2002-0.3516c0.7051-0.1323,1.1943-0.2559,1.4668-0.3706
		v-0.1504c0-0.29-0.0723-0.4966-0.2148-0.6206c-0.1436-0.123-0.4141-0.1851-0.8115-0.1851c-0.2686,0-0.4775,0.0527-0.6279,0.1587
		C161.4372,63.1361,161.3151,63.3212,161.2223,63.5863z M163.2419,64.8109c-0.1934,0.0645-0.5,0.1416-0.9189,0.231
		s-0.6924,0.1772-0.8213,0.2632c-0.1973,0.1396-0.2959,0.3169-0.2959,0.5317c0,0.2114,0.0791,0.394,0.2363,0.5479
		s0.3584,0.231,0.6016,0.231c0.2725,0,0.5322-0.0894,0.7783-0.2686c0.1836-0.1362,0.3027-0.3027,0.3604-0.4995
		c0.0391-0.1289,0.0596-0.374,0.0596-0.7358V64.8109z"/>
	<path id="XMLID_82_" class="st0" d="M168.8268,61.8461v1.2031h-1.0313v2.2988c0,0.4653,0.0098,0.7368,0.0293,0.8135
		c0.0195,0.0771,0.0645,0.1406,0.1348,0.1909c0.0693,0.0503,0.1543,0.0752,0.2549,0.0752c0.1396,0,0.3418-0.0483,0.6074-0.145
		l0.1289,1.1709c-0.3516,0.1504-0.749,0.2256-1.1934,0.2256c-0.2715,0-0.5166-0.0459-0.7354-0.1367
		c-0.2188-0.0918-0.3789-0.21-0.4805-0.3545c-0.1025-0.1455-0.1729-0.3413-0.2119-0.5884
		c-0.0332-0.1753-0.0488-0.5298-0.0488-1.0635v-2.4868h-0.6934v-1.2031h0.6934v-1.1333l1.5146-0.8809v2.0142H168.8268z"/>
	<path id="XMLID_84_" class="st0" d="M169.5251,64.6176c0-0.5015,0.124-0.9863,0.3701-1.4556
		c0.248-0.4692,0.5977-0.8271,1.0508-1.0742s0.959-0.3706,1.5176-0.3706c0.8623,0,1.5693,0.2803,2.1211,0.8408
		c0.5518,0.5601,0.8271,1.2681,0.8271,2.124c0,0.8628-0.2783,1.5781-0.835,2.1455c-0.5566,0.5679-1.2578,0.8516-2.1035,0.8516
		c-0.5225,0-1.0205-0.1182-1.4951-0.3545s-0.835-0.583-1.083-1.0391C169.6491,65.8285,169.5251,65.2729,169.5251,64.6176z
		 M171.072,64.6982c0,0.5659,0.1338,0.999,0.4033,1.2998c0.2676,0.3008,0.5996,0.4512,0.9932,0.4512s0.7246-0.1504,0.9912-0.4512
		s0.4004-0.7378,0.4004-1.3105c0-0.5586-0.1338-0.9883-0.4004-1.2891s-0.5977-0.4512-0.9912-0.4512s-0.7256,0.1504-0.9932,0.4512
		C171.2057,63.6991,171.072,64.1322,171.072,64.6982z"/>
	<path id="XMLID_87_" class="st0" d="M178.0388,67.5502h-1.5098v-5.7041h1.4023v0.811c0.2402-0.3833,0.4561-0.6357,0.6475-0.7573
		s0.4092-0.1826,0.6523-0.1826c0.3438,0,0.6748,0.0947,0.9932,0.2847l-0.4668,1.3159c-0.2539-0.1646-0.4902-0.2471-0.709-0.2471
		c-0.2109,0-0.3906,0.0581-0.5371,0.1748c-0.1465,0.1162-0.2627,0.3267-0.3467,0.6309s-0.126,0.9419-0.126,1.9121V67.5502z"/>
	<path id="XMLID_89_" class="st0" d="M180.1599,61.8461h1.6064l1.3633,4.0498l1.332-4.0498h1.5635l-2.0146,5.4893l-0.3594,0.9937
		c-0.1328,0.333-0.2588,0.5874-0.3789,0.7627s-0.2578,0.3179-0.4131,0.4272c-0.1563,0.1089-0.3477,0.1938-0.5752,0.2549
		s-0.4844,0.0913-0.7705,0.0913c-0.29,0-0.5752-0.0303-0.8545-0.0913l-0.1338-1.1816c0.2363,0.0464,0.4492,0.0698,0.6396,0.0698
		c0.3506,0,0.6104-0.103,0.7783-0.3091c0.168-0.2056,0.2969-0.4678,0.3867-0.7866L180.1599,61.8461z"/>
	<path id="XMLID_91_" class="st0" d="M196.7507,67.5502h-1.7285l-0.6875-1.7886h-3.1484l-0.6494,1.7886h-1.6865l3.0664-7.874h1.6816
		L196.7507,67.5502z M193.8239,64.435l-1.085-2.9219l-1.0635,2.9219H193.8239z"/>
	<path id="XMLID_94_" class="st0" d="M201.3386,67.5502v-0.854c-0.208,0.3042-0.4805,0.5444-0.8193,0.7197
		c-0.3379,0.1753-0.6953,0.2632-1.0713,0.2632c-0.3828,0-0.7266-0.084-1.0313-0.2524s-0.5244-0.4048-0.6611-0.709
		c-0.1357-0.3042-0.2031-0.7251-0.2031-1.2622v-3.6094h1.5088v2.6211c0,0.8022,0.0273,1.2935,0.083,1.4746
		c0.0557,0.1807,0.1572,0.3237,0.3037,0.4297c0.1465,0.1055,0.333,0.1582,0.5586,0.1582c0.2578,0,0.4893-0.0708,0.6924-0.2119
		c0.2051-0.1416,0.3438-0.3174,0.4199-0.5264c0.0742-0.21,0.1123-0.7227,0.1123-1.5391v-2.4063h1.5088v5.7041H201.3386z"/>
	<path id="XMLID_96_" class="st0" d="M206.9186,61.8461v1.2031h-1.0313v2.2988c0,0.4653,0.0098,0.7368,0.0293,0.8135
		c0.0195,0.0771,0.0645,0.1406,0.1348,0.1909c0.0693,0.0503,0.1543,0.0752,0.2549,0.0752c0.1396,0,0.3418-0.0483,0.6074-0.145
		l0.1289,1.1709c-0.3516,0.1504-0.749,0.2256-1.1934,0.2256c-0.2715,0-0.5166-0.0459-0.7354-0.1367
		c-0.2188-0.0918-0.3789-0.21-0.4805-0.3545c-0.1025-0.1455-0.1729-0.3413-0.2119-0.5884
		c-0.0332-0.1753-0.0488-0.5298-0.0488-1.0635v-2.4868h-0.6934v-1.2031h0.6934v-1.1333l1.5146-0.8809v2.0142H206.9186z"/>
	<path id="XMLID_98_" class="st0" d="M209.4694,59.6762v2.895c0.4873-0.5693,1.0693-0.854,1.7461-0.854
		c0.3477,0,0.6602,0.0645,0.9395,0.1934s0.4902,0.2935,0.6318,0.4941s0.2383,0.4224,0.29,0.666s0.0781,0.6211,0.0781,1.1333v3.3462
		h-1.5098V64.537c0-0.5981-0.0283-0.9775-0.0859-1.1387s-0.1582-0.2891-0.3037-0.3843c-0.1445-0.0947-0.3262-0.1421-0.5449-0.1421
		c-0.251,0-0.4746,0.061-0.6709,0.1826c-0.1973,0.1216-0.3418,0.3052-0.4326,0.5503c-0.0918,0.2456-0.1377,0.6079-0.1377,1.0879
		v2.8574h-1.5088v-7.874H209.4694z"/>
	<path id="XMLID_100_" class="st0" d="M214.3366,64.6176c0-0.5015,0.124-0.9863,0.3701-1.4556
		c0.248-0.4692,0.5977-0.8271,1.0508-1.0742s0.959-0.3706,1.5176-0.3706c0.8623,0,1.5693,0.2803,2.1211,0.8408
		c0.5518,0.5601,0.8271,1.2681,0.8271,2.124c0,0.8628-0.2783,1.5781-0.835,2.1455c-0.5566,0.5679-1.2578,0.8516-2.1035,0.8516
		c-0.5225,0-1.0205-0.1182-1.4951-0.3545s-0.835-0.583-1.083-1.0391C214.4606,65.8285,214.3366,65.2729,214.3366,64.6176z
		 M215.8835,64.6982c0,0.5659,0.1338,0.999,0.4033,1.2998c0.2676,0.3008,0.5996,0.4512,0.9932,0.4512s0.7246-0.1504,0.9912-0.4512
		s0.4004-0.7378,0.4004-1.3105c0-0.5586-0.1338-0.9883-0.4004-1.2891s-0.5977-0.4512-0.9912-0.4512s-0.7256,0.1504-0.9932,0.4512
		C216.0173,63.6991,215.8835,64.1322,215.8835,64.6982z"/>
	<path id="XMLID_103_" class="st0" d="M222.8493,67.5502h-1.5098v-5.7041h1.4023v0.811c0.2402-0.3833,0.4561-0.6357,0.6475-0.7573
		s0.4092-0.1826,0.6523-0.1826c0.3438,0,0.6748,0.0947,0.9932,0.2847l-0.4668,1.3159c-0.2539-0.1646-0.4902-0.2471-0.709-0.2471
		c-0.2109,0-0.3906,0.0581-0.5371,0.1748c-0.1465,0.1162-0.2627,0.3267-0.3467,0.6309s-0.126,0.9419-0.126,1.9121V67.5502z"/>
	<path id="XMLID_105_" class="st0" d="M225.6852,61.0727v-1.3965h1.5098v1.3965H225.6852z M225.6852,67.5502v-5.7041h1.5098v5.7041
		H225.6852z"/>
	<path id="XMLID_108_" class="st0" d="M231.3571,61.8461v1.2031h-1.0313v2.2988c0,0.4653,0.0098,0.7368,0.0293,0.8135
		c0.0195,0.0771,0.0645,0.1406,0.1348,0.1909c0.0693,0.0503,0.1543,0.0752,0.2549,0.0752c0.1396,0,0.3418-0.0483,0.6074-0.145
		l0.1289,1.1709c-0.3516,0.1504-0.749,0.2256-1.1934,0.2256c-0.2715,0-0.5166-0.0459-0.7354-0.1367
		c-0.2188-0.0918-0.3789-0.21-0.4805-0.3545c-0.1025-0.1455-0.1729-0.3413-0.2119-0.5884
		c-0.0332-0.1753-0.0488-0.5298-0.0488-1.0635v-2.4868h-0.6934v-1.2031h0.6934v-1.1333l1.5146-0.8809v2.0142H231.3571z"/>
	<path id="XMLID_110_" class="st0" d="M231.6901,61.8461h1.6064l1.3633,4.0498l1.332-4.0498h1.5635l-2.0146,5.4893l-0.3594,0.9937
		c-0.1328,0.333-0.2588,0.5874-0.3789,0.7627s-0.2578,0.3179-0.4131,0.4272c-0.1563,0.1089-0.3477,0.1938-0.5752,0.2549
		s-0.4844,0.0913-0.7705,0.0913c-0.29,0-0.5752-0.0303-0.8545-0.0913l-0.1338-1.1816c0.2363,0.0464,0.4492,0.0698,0.6396,0.0698
		c0.3506,0,0.6104-0.103,0.7783-0.3091c0.168-0.2056,0.2969-0.4678,0.3867-0.7866L231.6901,61.8461z"/>
</g>
<path id="XMLID_4_" class="st1" d="M75.6661,49.4145c-0.3666,0-0.692-0.2349-0.8072-0.583l-10.3996-31.39
	c-0.0859-0.2592-0.042-0.5439,0.1178-0.7653c0.1599-0.2214,0.4163-0.3525,0.6894-0.3525h5.9709c0.365,0,0.6893,0.2329,0.8059,0.5788
	l6.55,19.4384c0.1202,0.3567,0.4606,0.5919,0.8367,0.5783c0.3762-0.0137,0.6986-0.273,0.7926-0.6374l4.9831-19.3201
	c0.0969-0.3756,0.4356-0.638,0.8234-0.638h7.6858c0.3928,0,0.7345,0.269,0.8266,0.6508l4.7309,19.5935
	c0.089,0.3684,0.411,0.6335,0.7896,0.65c0.3787,0.0165,0.7225-0.2196,0.8432-0.5789l6.6273-19.7358
	c0.1163-0.3463,0.4408-0.5797,0.8062-0.5797h5.8371c0.2737,0,0.5307,0.1317,0.6905,0.354s0.2028,0.5078,0.1157,0.7672l-10.545,31.39
	c-0.1163,0.3463-0.4408,0.5796-0.8061,0.5796h-6.7732c-0.3867,0-0.7247-0.2609-0.8227-0.635l-5.4869-20.956
	c-0.098-0.3742-0.4362-0.6352-0.8231-0.635s-0.7248,0.2615-0.8225,0.6358L83.438,48.7787
	c-0.0977,0.3745-0.4359,0.6358-0.8229,0.6358H75.6661z"/>
<path id="XMLID_6_" class="st1" d="M120.2602,49.4145c-0.4697,0-0.8504-0.3807-0.8504-0.8504v-31.39
	c0-0.4697,0.3807-0.8504,0.8504-0.8504h11.4481c0.3632,0,0.6864,0.2307,0.8043,0.5743l7.5516,21.998l7.4651-21.9952
	c0.1171-0.345,0.4409-0.5771,0.8053-0.5771h11.4748c0.4697,0,0.8504,0.3807,0.8504,0.8504v31.39
	c0,0.4697-0.3807,0.8504-0.8504,0.8504h-6.3101c-0.4697,0-0.8504-0.3807-0.8504-0.8504V23.3661l-8.2864,25.4611
	c-0.114,0.3502-0.4404,0.5872-0.8086,0.5872h-7.0663c-0.3686,0-0.6952-0.2374-0.8089-0.588l-8.2579-25.4603v25.1979
	c0,0.4697-0.3807,0.8504-0.8504,0.8504H120.2602z"/>
<path id="XMLID_8_" class="st1" d="M169.0328,49.4145c-0.4697,0-0.8504-0.3807-0.8504-0.8504v-31.39
	c0-0.4697,0.3807-0.8504,0.8504-0.8504h15.5653c4.1278,0,7.1271,0.2974,8.9981,0.8916c1.871,0.5947,3.7924,1.4464,4.9168,2.966
	c1.1234,1.52,1.8968,3.4637,1.8968,5.4198c0,5.2555-3.6866,8.67-8.3722,9.7292c2.433,0.2293,8.0802,9.3671,10.1201,12.7993
	c0.1561,0.2627,0.1593,0.589,0.0083,0.8547c-0.151,0.2657-0.4329,0.4303-0.7385,0.4303h-7.3989c-0.279,0-0.5401-0.137-0.6991-0.3662
	c-1.4109-2.0334-8.2544-11.8529-8.9938-12.0756c-0.826-0.248-1.1981-0.3721-3.9258-0.3721h-4.4281v11.9635
	c0,0.4697-0.3807,0.8504-0.8504,0.8504H169.0328z M175.9818,30.3183h5.7707c3.7409,0,6.0771-0.1353,7.0086-0.4063
	c0.9305-0.271,1.66-0.7368,2.1875-1.3994c0.5265-0.6621,0.7898-1.4897,0.7898-2.4829c0-1.1133-0.3467-2.0127-1.041-2.6973
	c-0.6933-0.6846-1.673-1.1177-2.9371-1.2979c-0.633-0.0752-2.5301-0.1133-5.6913-0.1133h-6.0872V30.3183z"/>
<path id="XMLID_18_" class="st1" d="M219.6599,16.3236c-6,0-9.625,3.7407-11.25,9.7961c-1.3847,5.1601-4.4033,18.4414-5.2657,22.256
	c-0.057,0.2521,0.0039,0.5164,0.1652,0.7184c0.1613,0.202,0.4058,0.3203,0.6643,0.3203h6.0298c0.3864,0,0.7249-0.2606,0.8227-0.6345
	c0.3437-1.3131,1.1772-4.5082,2.0956-8.1048h17.2381v7.8889c0,0.4697,0.3807,0.8504,0.8504,0.8504h5.7992
	c0.4697,0,0.8504-0.3807,0.8504-0.8504v-31.39c0-0.4696-0.3806-0.8504-0.8503-0.8504
	C233.9683,16.3236,224.6984,16.3236,219.6599,16.3236z M214.3056,35.1902c0.8079-3.2501,1.5232-6.2347,1.8542-7.89
	c1-5,6.25-5.1249,9-5.1249s5,0,5,0v13.015H214.3056z"/>
<path id="XMLID_24_" class="st2" d="M34.6599,22.1753c0,0-18.2256,11.4575-19.9756,34.7075
	C46.4344,50.247,60.9099,35.3302,55.4099,1.0502c-44.25-9.25-72.75,45-43.5,68.75c-20.129-25.7557,6.4363-64.8052,37.5-64
	c3.5,17.7461-5.0065,37.9434-28.75,43.6143C21.2055,36.2703,28.4099,29.5503,34.6599,22.1753z"/>
</svg>
