<svg xmlns="http://www.w3.org/2000/svg" viewBox="0 0 20 14.091">
  <defs>
    <style>
      .cls-1 {
        fill: #263d4a;
      }
    </style>
  </defs>
  <path id="youtube-icion-dark" class="cls-1" d="M27.58,36.2a2.531,2.531,0,0,0-1.773-1.784C24.25,34,18,34,18,34s-6.25,0-7.818.42A2.512,2.512,0,0,0,8.409,36.2,26.87,26.87,0,0,0,8,41.045a26.16,26.16,0,0,0,.42,4.841,2.531,2.531,0,0,0,1.773,1.784c1.557.42,7.807.42,7.807.42s6.25,0,7.818-.42a2.512,2.512,0,0,0,1.773-1.784A26.87,26.87,0,0,0,28,41.045,26.16,26.16,0,0,0,27.58,36.2ZM15.955,44.023V38.068l5.227,2.977Z" transform="translate(-8 -34)"/>
</svg>
