<svg xmlns="http://www.w3.org/2000/svg" viewBox="0 0 24 16.909">
  <defs>
    <style>
      .cls-1 {
        fill: #fff;
      }
    </style>
  </defs>
  <path id="youtube-icon-light" class="cls-1" d="M31.5,36.645A3.037,3.037,0,0,0,29.368,34.5C27.5,34,20,34,20,34s-7.5,0-9.382.5a3.014,3.014,0,0,0-2.127,2.141A32.244,32.244,0,0,0,8,42.455a31.392,31.392,0,0,0,.5,5.809A3.037,3.037,0,0,0,10.632,50.4c1.868.5,9.368.5,9.368.5s7.5,0,9.382-.5a3.014,3.014,0,0,0,2.127-2.141A32.244,32.244,0,0,0,32,42.455,31.392,31.392,0,0,0,31.5,36.645Zm-13.95,9.382V38.882l6.273,3.573Z" transform="translate(-8 -34)"/>
</svg>
